<?xml version="1.0" encoding="UTF-8" standalone="no"?>
<!DOCTYPE svg PUBLIC "-//W3C//DTD SVG 1.1//EN"
 "http://www.w3.org/Graphics/SVG/1.1/DTD/svg11.dtd">
<!-- Generated by graphviz version 2.43.0 (0)
 -->
<!-- Title: Map Pages: 1 -->
<svg width="291pt" height="188pt"
 viewBox="0.00 0.00 291.44 188.00" xmlns="http://www.w3.org/2000/svg" xmlns:xlink="http://www.w3.org/1999/xlink">
<g id="graph0" class="graph" transform="scale(1 1) rotate(0) translate(4 184)">
<title>Map</title>
<polygon fill="white" stroke="transparent" points="-4,4 -4,-184 287.44,-184 287.44,4 -4,4"/>
<!-- Лес -->
<g id="node1" class="node">
<title>Лес</title>
<ellipse fill="none" stroke="black" cx="39.65" cy="-90" rx="28.7" ry="18"/>
<text text-anchor="middle" x="39.65" y="-86.3" font-family="Times,serif" font-size="14.00">Лес</text>
</g>
<!-- Озеро -->
<g id="node2" class="node">
<title>Озеро</title>
<ellipse fill="none" stroke="black" cx="39.65" cy="-18" rx="39.79" ry="18"/>
<text text-anchor="middle" x="39.65" y="-14.3" font-family="Times,serif" font-size="14.00">Озеро</text>
</g>
<!-- Лес&#45;&gt;Озеро -->
<g id="edge1" class="edge">
<title>Лес&#45;&gt;Озеро</title>
<path fill="none" stroke="black" d="M33.77,-72.05C32.95,-64.35 32.71,-55.03 33.04,-46.36"/>
<polygon fill="black" stroke="black" points="36.54,-46.49 33.73,-36.28 29.56,-46.01 36.54,-46.49"/>
</g>
<!-- Озеро&#45;&gt;Лес -->
<g id="edge6" class="edge">
<title>Озеро&#45;&gt;Лес</title>
<path fill="none" stroke="black" d="M45.56,-36.28C46.36,-44.03 46.59,-53.36 46.24,-62.01"/>
<polygon fill="black" stroke="black" points="42.74,-61.83 45.52,-72.05 49.72,-62.33 42.74,-61.83"/>
</g>
<!-- Окраина -->
<g id="node3" class="node">
<title>Окраина</title>
<ellipse fill="none" stroke="black" cx="128.65" cy="-162" rx="51.99" ry="18"/>
<text text-anchor="middle" x="128.65" y="-158.3" font-family="Times,serif" font-size="14.00">Окраина</text>
</g>
<!-- Окраина&#45;&gt;Лес -->
<g id="edge2" class="edge">
<title>Окраина&#45;&gt;Лес</title>
<path fill="none" stroke="black" d="M108.45,-145.12C95.54,-134.96 78.69,-121.71 64.9,-110.86"/>
<polygon fill="black" stroke="black" points="66.79,-107.9 56.77,-104.47 62.46,-113.4 66.79,-107.9"/>
</g>
<!-- болото -->
<g id="node4" class="node">
<title>болото</title>
<ellipse fill="none" stroke="black" cx="128.65" cy="-90" rx="42.79" ry="18"/>
<text text-anchor="middle" x="128.65" y="-86.3" font-family="Times,serif" font-size="14.00">болото</text>
</g>
<!-- Окраина&#45;&gt;болото -->
<g id="edge3" class="edge">
<title>Окраина&#45;&gt;болото</title>
<path fill="none" stroke="black" d="M128.65,-143.7C128.65,-135.98 128.65,-126.71 128.65,-118.11"/>
<polygon fill="black" stroke="black" points="132.15,-118.1 128.65,-108.1 125.15,-118.1 132.15,-118.1"/>
</g>
<!-- Поляна -->
<g id="node5" class="node">
<title>Поляна</title>
<ellipse fill="none" stroke="black" cx="236.65" cy="-90" rx="46.59" ry="18"/>
<text text-anchor="middle" x="236.65" y="-86.3" font-family="Times,serif" font-size="14.00">Поляна</text>
</g>
<!-- Окраина&#45;&gt;Поляна -->
<g id="edge4" class="edge">
<title>Окраина&#45;&gt;Поляна</title>
<path fill="none" stroke="black" d="M152.08,-145.81C167.61,-135.74 188.18,-122.42 205.13,-111.42"/>
<polygon fill="black" stroke="black" points="207.14,-114.29 213.63,-105.92 203.33,-108.42 207.14,-114.29"/>
</g>
<!-- Поляна&#45;&gt;Озеро -->
<g id="edge5" class="edge">
<title>Поляна&#45;&gt;Озеро</title>
<path fill="none" stroke="black" d="M203.23,-77.13C169.11,-65 116.14,-46.18 79.78,-33.26"/>
<polygon fill="black" stroke="black" points="80.58,-29.83 69.99,-29.78 78.24,-36.43 80.58,-29.83"/>
</g>
</g>
</svg>
