<svg xmlns="http://www.w3.org/2000/svg" width="167" height="47" viewBox="0 0 167 47"><defs><style>.cls-1{fill:#fff;fill-rule:evenodd}</style></defs><path id="logo" class="cls-1" d="M152.438 46.107H1.41a.585.585 0 0 1-.585-.585.585.585 0 0 1 .585-.585h151.028a.585.585 0 0 1 .586.585.585.585 0 0 1-.586.585zm13.781-2.354L125.7.555a1.413 1.413 0 0 0-2.095 0l-13.817 16.772a1.413 1.413 0 0 1-1.867.2l-.389-.278a1.413 1.413 0 0 0-1.9.237L84.686 41.95a.7.7 0 0 0 .539 1.16h41.548a.705.705 0 0 0 .706-.705v-8.09a1.412 1.412 0 0 1 2.2-1.167l19.5 12.716a1.416 1.416 0 0 0 .794.243h15.197a1.41 1.41 0 0 0 1.049-2.354zM2.015.83H7.48a10.544 10.544 0 0 1 5.42 1.062 3.692 3.692 0 0 1 1.69 3.376 4.25 4.25 0 0 1-.739 2.579 2.951 2.951 0 0 1-1.964 1.211v.12a3.869 3.869 0 0 1 2.413 1.391 4.522 4.522 0 0 1 .739 2.711 4.465 4.465 0 0 1-1.739 3.741 7.511 7.511 0 0 1-4.714 1.343H2.015V.83zm3.724 6.944H7.9a3.957 3.957 0 0 0 2.192-.468 1.743 1.743 0 0 0 .679-1.547 1.548 1.548 0 0 0-.739-1.445A4.756 4.756 0 0 0 7.7 3.877H5.739v3.9zm0 2.95v4.569h2.426a3.6 3.6 0 0 0 2.27-.588 2.168 2.168 0 0 0 .733-1.8q0-2.182-3.123-2.183H5.739zM30.99.83v11.346a6.536 6.536 0 0 1-.871 3.406 5.668 5.668 0 0 1-2.519 2.243 9.017 9.017 0 0 1-3.891.779 7.458 7.458 0 0 1-5.26-1.733 6.143 6.143 0 0 1-1.874-4.743V.83h3.711v10.734a4.489 4.489 0 0 0 .817 2.974 3.4 3.4 0 0 0 2.7.947 3.323 3.323 0 0 0 2.648-.953 4.518 4.518 0 0 0 .823-2.992V.83h3.716zM43.809 13.5a4.531 4.531 0 0 1-1.709 3.737 7.443 7.443 0 0 1-4.765 1.363 11.2 11.2 0 0 1-4.972-1.055V14.1a20.47 20.47 0 0 0 3.008 1.115 8.915 8.915 0 0 0 2.252.324 3.206 3.206 0 0 0 1.88-.468 1.6 1.6 0 0 0 .655-1.391 1.535 1.535 0 0 0-.288-.918 3.239 3.239 0 0 0-.847-.774 21.658 21.658 0 0 0-2.276-1.188 10.75 10.75 0 0 1-2.414-1.451 5.444 5.444 0 0 1-1.285-1.619 4.611 4.611 0 0 1-.48-2.159 4.528 4.528 0 0 1 1.579-3.661A6.567 6.567 0 0 1 38.512.578 10.323 10.323 0 0 1 41.125.9a17.985 17.985 0 0 1 2.6.912l-1.2 2.89A17.633 17.633 0 0 0 40.2 3.9a7.48 7.48 0 0 0-1.808-.228 2.4 2.4 0 0 0-1.621.492 1.619 1.619 0 0 0-.565 1.283 1.583 1.583 0 0 0 .228.857 2.5 2.5 0 0 0 .727.708 22.311 22.311 0 0 0 2.36 1.229A9.388 9.388 0 0 1 42.9 10.6a4.6 4.6 0 0 1 .909 2.9zm1.338 4.869V.83h3.723v17.535h-3.723zm21.875 0h-4.731L54.652 5.1h-.108q.227 3.514.228 5.013v8.251h-3.327V.83h4.7l7.627 13.133h.084q-.18-3.418-.18-4.833V.83h3.351v17.535zm12.687 0H69.6V.83h10.11v3.047h-6.389v3.85h5.945v3.046h-5.945v4.521h6.389v3.07zM91.894 13.5a4.531 4.531 0 0 1-1.712 3.742A7.443 7.443 0 0 1 85.42 18.6a11.2 11.2 0 0 1-4.972-1.055V14.1a20.47 20.47 0 0 0 3.009 1.115 8.914 8.914 0 0 0 2.252.324 3.206 3.206 0 0 0 1.88-.468 1.6 1.6 0 0 0 .655-1.391 1.534 1.534 0 0 0-.288-.918 3.236 3.236 0 0 0-.847-.774 21.68 21.68 0 0 0-2.277-1.188 10.75 10.75 0 0 1-2.414-1.451 5.446 5.446 0 0 1-1.285-1.619 4.612 4.612 0 0 1-.48-2.159 4.528 4.528 0 0 1 1.578-3.661A6.568 6.568 0 0 1 86.6.578 10.324 10.324 0 0 1 89.209.9a17.985 17.985 0 0 1 2.6.912l-1.2 2.89a17.643 17.643 0 0 0-2.324-.8 7.481 7.481 0 0 0-1.808-.228 2.4 2.4 0 0 0-1.621.492 1.619 1.619 0 0 0-.564 1.283 1.583 1.583 0 0 0 .228.857 2.5 2.5 0 0 0 .727.708 22.316 22.316 0 0 0 2.36 1.229 9.386 9.386 0 0 1 3.374 2.357 4.6 4.6 0 0 1 .913 2.9zm11.7 0a4.53 4.53 0 0 1-1.711 3.742 7.444 7.444 0 0 1-4.76 1.358 11.2 11.2 0 0 1-4.972-1.055V14.1a20.465 20.465 0 0 0 3.008 1.115 8.915 8.915 0 0 0 2.252.324 3.205 3.205 0 0 0 1.88-.468 1.6 1.6 0 0 0 .655-1.391 1.534 1.534 0 0 0-.288-.918 3.236 3.236 0 0 0-.847-.774 21.685 21.685 0 0 0-2.277-1.188 10.75 10.75 0 0 1-2.414-1.454 5.445 5.445 0 0 1-1.285-1.619 4.611 4.611 0 0 1-.48-2.159 4.528 4.528 0 0 1 1.579-3.658A6.567 6.567 0 0 1 98.3.578a10.328 10.328 0 0 1 2.612.322 17.961 17.961 0 0 1 2.6.912l-1.2 2.89a17.623 17.623 0 0 0-2.324-.8 7.479 7.479 0 0 0-1.807-.228 2.4 2.4 0 0 0-1.621.492 1.619 1.619 0 0 0-.565 1.283 1.584 1.584 0 0 0 .228.857 2.5 2.5 0 0 0 .727.708 22.349 22.349 0 0 0 2.36 1.229 9.382 9.382 0 0 1 3.375 2.357 4.6 4.6 0 0 1 .915 2.9zM17.542 32.706a10.06 10.06 0 0 1-2.149 6.79 7.405 7.405 0 0 1-5.929 2.5 7.392 7.392 0 0 1-5.916-2.5A10.1 10.1 0 0 1 1.4 32.681 9.924 9.924 0 0 1 3.567 25.9a7.469 7.469 0 0 1 5.922-2.473 7.388 7.388 0 0 1 5.917 2.485 10.075 10.075 0 0 1 2.136 6.794zm-14.772 0a9.226 9.226 0 0 0 1.73 5.988 6.043 6.043 0 0 0 4.965 2.115 6.081 6.081 0 0 0 4.984-2.1 9.238 9.238 0 0 0 1.723-6.007 9.14 9.14 0 0 0-1.723-5.976 6.078 6.078 0 0 0-4.959-2.078 6.107 6.107 0 0 0-4.971 2.1 9.057 9.057 0 0 0-1.749 5.958zm17.03 9.04V23.714h1.26v16.849h8.609v1.184H19.8zm15.234-8.164l5.286-9.867h1.359l-6.02 11.063v6.968h-1.3v-6.87l-6.04-11.162h1.445zm15.246 8.164L43.544 25.1h-.1q.1 1.529.1 3.133v13.513h-1.211V23.714h1.952l6.4 15.861h.074l6.4-15.861h1.9v18.032h-1.275V28.081q0-1.43.149-2.96h-.1l-6.755 16.625h-.8zm22.85-12.851a4.791 4.791 0 0 1-1.779 4.005 8 8 0 0 1-5.039 1.4H63.52v7.45h-1.26V23.714h4.422q6.448 0 6.448 5.181zm-9.61 4.317H66a7.534 7.534 0 0 0 4.409-1.005 3.791 3.791 0 0 0 1.359-3.262 3.68 3.68 0 0 0-1.285-3.09 6.428 6.428 0 0 0-3.977-1.005H63.52v8.362z"/></svg>