<?xml version="1.0" encoding="UTF-8"?>
<svg width="100px" height="111px" viewBox="0 0 100 111" version="1.1" xmlns="http://www.w3.org/2000/svg" xmlns:xlink="http://www.w3.org/1999/xlink">
    <!-- Generator: Sketch 45.1 (43504) - http://www.bohemiancoding.com/sketch -->
    <title>logo</title>
    <desc>Created with Sketch.</desc>
    <defs></defs>
    <g id="Page-1" stroke="none" stroke-width="1" fill="#FFFFFF">
        <g id="152" transform="translate(-337.000000, -6765.000000)">
            <g id="logo" transform="translate(337.000000, 6765.000000)">
                <path d="M46.8722391,1.18186243 C44.4082332,2.69395558 40.962624,5.48698037 38.364708,11.6871379 C38.364708,11.6871379 32.7071589,25.0081605 38.364708,31.2313433 C38.364708,31.2313433 37.5448875,32.418962 37.2391969,34.0676919 C36.7902043,36.4892829 38.1299109,38.9260221 40.4542504,39.7403892 C41.5082621,40.1097023 42.8970489,40.2751206 44.7078645,39.9748833 L41.2446834,41.2094615 C41.2446834,41.2094615 40.5990672,48.1876305 38.0335684,55.0297687 C37.6906132,55.9444169 37.2491947,56.5273196 36.7059803,57.0496294 C36.161857,57.6579811 35.5359334,58.2590616 34.8366926,58.8598391 C34.749439,58.9352772 34.6615794,59.0110182 34.573114,59.0873651 C34.4819218,59.1606824 34.3898208,59.2349085 34.2971138,59.3094377 C34.1126087,59.4587989 33.9262859,59.6111898 33.7290564,59.7563095 C33.5333416,59.9029441 33.3388388,60.0559409 33.1319144,60.1989399 C33.0295126,60.2719542 32.9265048,60.3452715 32.8231941,60.4188917 C32.7690645,60.4596908 32.6769635,60.5217985 32.546891,60.6052145 C32.0830531,60.9021192 31.6101264,61.2050832 31.1278077,61.5141064 C30.6751796,61.7640517 30.2143714,62.0182385 29.7453832,62.2769697 L29.3803116,62.4642014 C29.2533697,62.5232794 29.1261248,62.5826603 28.998274,62.6423442 C28.7425725,62.762318 28.4844472,62.8832006 28.224807,63.0049921 C28.0939266,63.0640701 27.9660758,63.1328429 27.8312568,63.1843468 C27.6961349,63.2364566 27.561013,63.2891723 27.4252851,63.341888 C27.1532235,63.4479254 26.879647,63.5548717 26.6039498,63.6621209 C24.3844358,64.4834563 21.9246714,65.0651471 19.3322087,65.2869167 C19.0465137,65.3172131 19.0116729,65.3229694 18.9674401,65.3250901 C18.7217363,65.3356939 18.5487439,65.3414502 18.3754485,65.3478124 C18.0318874,65.3584162 17.6631802,65.3811385 17.3786971,65.359931 C17.0724005,65.3441769 16.7730721,65.351145 16.45496,65.3217575 C16.13503,65.2896434 15.8135852,65.2572262 15.4915345,65.2248091 C14.209997,65.0454544 12.9336098,64.7118911 11.7069087,64.2126065 C9.25229465,63.2203995 7.01157317,61.5419791 5.31618682,59.3918439 C3.61504415,57.2477679 2.45923663,54.6477311 2.01933295,51.958623 C1.56943146,49.2689089 1.85603537,46.5040597 2.77704583,44.0452042 C2.90368476,43.7422402 3.03002074,43.4404881 3.15544782,43.1399479 C3.28602529,42.8412254 3.44447544,42.5570452 3.58656554,42.2658968 C3.66695198,42.1043161 3.72017265,42.0016113 3.74622755,41.9577825 C3.89589175,41.7045046 3.98132759,41.5599908 4.06676343,41.4160829 C4.1518963,41.2749017 4.23914992,41.1567458 4.32488872,41.0261683 C4.41274827,40.8989234 4.49030705,40.7686489 4.59058812,40.6447367 C5.34193875,39.6349578 6.21356608,38.7366696 7.18759523,38.0207658 C8.15707992,37.3006204 9.20533524,36.7365015 10.2778277,36.3390128 C11.0382672,36.0618008 11.8114313,35.8712364 12.5745975,35.7548983 C9.9606244,35.3649836 7.56417944,36.5659328 5.9015132,37.766579 C4.45576916,38.8108958 3.5650551,39.8549096 3.56808474,39.8530918 C3.3481329,40.1197001 3.13181663,40.4217552 2.92761892,40.7035117 C2.83551787,40.8431781 2.7428109,40.9831474 2.65010392,41.1234197 L2.37077115,41.583622 C2.19989947,41.8911304 2.01297071,42.1931855 1.8533087,42.5116006 C1.69970597,42.8333483 1.54519434,43.1569139 1.39037976,43.4816912 C0.243055222,46.1241429 -0.238960446,49.1831701 0.113083681,52.2206868 C0.453615178,55.2572946 1.60063675,58.2572438 3.42235907,60.8094122 C5.2355984,63.3661251 7.73656593,65.4629388 10.5786709,66.7829527 C11.9971482,67.4464438 13.4931842,67.9199765 15.0049744,68.2090041 C15.3851942,68.2668702 15.7642021,68.3247364 16.1419982,68.3826025 C16.522218,68.4365301 16.9260689,68.4544049 17.3162865,68.4889428 C17.7289234,68.529237 18.0570334,68.5231778 18.4066538,68.529843 C18.5805551,68.5325696 18.7532446,68.5352963 18.926237,68.53772 C19.153763,68.5371141 19.2049639,68.5328726 19.2482877,68.5310548 C22.4233501,68.4150196 25.2184956,67.9045253 27.7733907,67.1031857 C28.0915029,66.9974512 28.4068884,66.8926257 28.7204561,66.7884061 C28.8770885,66.7356904 29.0334179,66.6835806 29.1891413,66.6314708 C29.3451678,66.5802699 29.4936201,66.5111941 29.6454051,66.4521161 C29.9471572,66.3291127 30.2467885,66.2070183 30.5436932,66.0858327 C30.6924485,66.0249369 30.8402949,65.9640412 30.9878384,65.9037513 L31.4289539,65.7056129 C32.0130685,65.4177971 32.5877911,65.1345258 33.15191,64.8567079 C33.6490739,64.5725277 34.1371488,64.2934978 34.615226,64.0202244 C34.8206355,63.9032803 34.817,63.9060069 34.8951647,63.8566238 C35.1560166,63.6902966 35.2778081,63.6127378 35.3989937,63.535179 C35.6431827,63.3833941 35.8770709,63.2188847 36.110959,63.0610404 C36.3460591,62.905317 36.5720702,62.7395957 36.7962635,62.5766011 C36.9083602,62.4951038 37.019548,62.4142124 37.1304328,62.333624 C37.2388939,62.2494 37.3467491,62.1657819 37.4536953,62.0827698 C38.3113863,61.4180669 39.0978808,60.7363979 39.793486,60.0359452 C41.0516954,58.7971256 42.0236038,57.5171028 42.7473847,56.3546301 C42.6504362,56.8036227 42.5543967,57.2762465 42.4453296,57.793103 C41.878787,60.457974 41.5852149,64.2674429 40.1400768,68.714954 C39.4159929,70.9368917 38.5510308,73.3163707 37.4961103,75.7640165 C36.4396749,78.2089357 35.1929782,80.7271722 33.6657369,83.1630025 C32.1381926,85.5921676 30.3252562,87.9552865 28.1099837,89.8988003 C27.0044682,90.868588 25.7971568,91.7265819 24.4953206,92.4006767 C23.1965141,93.0787101 21.8010621,93.566785 20.355924,93.8258192 C19.6339608,93.9594263 18.8992732,94.0263814 18.16095,94.0454681 C17.7907281,94.0536481 17.4177794,94.0533452 17.0751272,94.0236547 C16.7579239,93.9979028 16.3986087,93.9476107 16.0714076,93.8679312 C14.7329128,93.558908 13.5213599,92.8399745 12.6594274,91.784751 C12.2249771,91.2612293 11.8829308,90.6674199 11.6302588,90.0311956 C11.384858,89.3916386 11.2303464,88.7111816 11.1591498,88.0143645 C11.0888622,87.3208799 11.0982541,86.597705 11.1761158,85.9036145 C11.2560983,85.2216426 11.4160633,84.5342174 11.645407,83.8801182 C11.8753567,83.2245042 12.1704436,82.5928243 12.5179432,81.9959853 C12.8699874,81.39339 13.2674761,80.821697 13.6940493,80.2793915 C14.5493166,79.1978101 15.5303139,78.2498359 16.5958382,77.4824281 C16.5958382,77.4824281 19.4591506,75.0947691 24.6316544,74.6860707 C24.2847607,74.5903341 23.9272632,74.5224702 23.5643124,74.4873264 C23.2516535,74.4573329 22.9353592,74.4461233 22.6178529,74.4512737 C22.4597057,74.4543033 22.2994378,74.4606656 22.1361402,74.4721782 L21.7810665,74.5018686 C21.0239595,74.5851837 20.3780403,74.7057634 19.7345449,74.8814825 C18.4466451,75.2311029 17.169046,75.8046137 15.9802154,76.5832311 C14.789567,77.3600307 13.6843545,78.3322421 12.705175,79.4580562 C12.2171,80.0218721 11.7556859,80.6238615 11.3378986,81.2679629 C10.9176876,81.9178206 10.5495864,82.6155466 10.2508639,83.3544757 C9.9530503,84.0952226 9.73006882,84.8711133 9.59585579,85.6882071 C9.46800499,86.4943942 9.41862187,87.3045199 9.46255164,88.1416093 C9.50769327,88.9741543 9.6546308,89.8215445 9.92790429,90.6450006 C10.2084489,91.4660329 10.6162384,92.2597985 11.149758,92.9684312 C11.6814597,93.6752461 12.3370737,94.3114705 13.0878184,94.811058 C13.8337157,95.3176138 14.6659577,95.6899565 15.5309199,95.9371751 C15.7475391,95.9989798 15.9659761,96.0516955 16.1865339,96.0968371 C16.4095154,96.139555 16.6221961,96.1798492 16.8651732,96.2077219 C17.3108332,96.2649821 17.7334679,96.2843718 18.1573145,96.2952785 C19.0077343,96.3134564 19.8651223,96.274677 20.7146333,96.1592477 C22.4148671,95.9368721 24.0826837,95.4387994 25.6277999,94.7216837 C27.1771576,94.0094154 28.6059357,93.087799 29.9038333,92.0525711 C32.504476,89.9754502 34.5955333,87.4796331 36.3602984,84.9465513 C38.1235487,82.4046837 39.5644453,79.8010114 40.7953879,77.2824719 C42.0245127,74.7612058 43.0418657,72.3196192 43.9037982,70.0416332 C44.6606021,68.0360117 45.2995531,66.158847 45.8394349,64.4504332 C45.8030793,64.9415378 45.7600584,65.4429431 45.7067367,65.9564671 C45.5185961,67.8221191 45.2650153,69.8422829 44.8208701,71.9290987 C44.7663366,72.1902536 44.7227098,72.4574678 44.6584814,72.7186228 C44.594253,72.9803836 44.5297217,73.2436593 44.4648874,73.5084498 C44.3324922,74.0377279 44.2152451,74.5812452 44.0440705,75.1080995 C43.880167,75.6428309 43.7329265,76.1730179 43.551754,76.7301686 C43.3636134,77.2915608 43.173958,77.8584064 42.9827877,78.4300994 C42.2126533,80.7241426 41.4191907,83.116346 40.6941979,85.580352 C39.9698111,88.0443579 39.306017,90.5807722 38.8152154,93.1702052 C38.3316849,95.7575175 38.002666,98.4075433 38.1320317,101.069082 C38.2017134,102.396973 38.3995488,103.732438 38.8258191,105.012764 C39.0397117,105.651412 39.3120763,106.275214 39.6586671,106.858723 C40.0049549,107.441929 40.4248629,107.983325 40.9074845,108.452617 C41.3895002,108.922514 41.9327146,109.318488 42.5044076,109.631752 L42.7743485,109.777175 L43.3554334,110.035603 C43.484799,110.099832 43.6617299,110.15285 43.8177564,110.209202 C43.9749947,110.26222 44.1313241,110.315239 44.2882594,110.367955 C45.1017177,110.603964 45.9294152,110.714545 46.7401468,110.717272 C47.1694467,110.715757 47.5272472,110.693035 47.8786854,110.65062 C49.0490352,110.508833 50.1503092,110.143761 51.1140376,109.618119 C51.6184726,109.343634 52.0835222,109.02431 52.5076718,108.673477 C47.5145227,110.255252 44.6627229,109.130953 44.6627229,109.130953 L44.3055284,108.98553 C44.1846458,108.934935 44.0716402,108.9007 43.9362153,108.824353 L43.543271,108.62167 L43.2078899,108.428379 C42.7552618,108.144502 42.34111,107.802759 41.979977,107.407694 C41.2537724,106.619382 40.7538818,105.613541 40.4594008,104.512873 C40.1618902,103.411902 40.0491876,102.225495 40.0558528,101.020002 C40.0758485,98.6023491 40.5218114,96.1171357 41.1271334,93.6740343 C41.7376058,91.2269943 42.5198588,88.8093419 43.3636134,86.4492526 C44.2082769,84.0879515 45.1205014,81.7863342 46.0187896,79.5462187 C46.2435889,78.9836146 46.4662674,78.4261609 46.6871281,77.8732517 C46.906171,77.3136772 47.1106717,76.7216856 47.3194139,76.155446 C47.5393657,75.5861767 47.6996337,75.0123629 47.8756557,74.4479411 C47.9620005,74.1652757 48.0480422,73.8841251 48.1334781,73.6053983 C48.2189139,73.3257625 48.2822334,73.0452179 48.3570655,72.7680059 C48.9626904,70.5500067 49.3544229,68.4250174 49.6673846,66.4596902 C49.8167459,65.5344382 49.9349018,64.644936 50.0336681,63.7930014 C50.3329965,64.7918736 50.7044303,65.8367963 51.1794778,66.9083798 C51.2827885,67.1377236 51.3873111,67.3697939 51.4924396,67.6039851 C51.6027184,67.8363585 51.7260248,68.0660051 51.8438778,68.3001963 C52.0729185,68.7719112 52.3507365,69.2324164 52.6252218,69.7035254 C52.7567082,69.9413521 52.9148554,70.1682721 53.0672462,70.4006455 C53.2217579,70.631504 53.3732398,70.866604 53.5338107,71.0980685 C53.7037735,71.3237767 53.8749482,71.5513026 54.0476376,71.7803434 C54.1339824,71.8945608 54.220933,72.0090811 54.3078837,72.1239045 C54.3987729,72.2360012 54.4957213,72.3447652 54.5896402,72.4553471 C56.0884029,74.23011 57.9555698,75.8855051 60.1469082,77.1176595 C62.3255221,78.3679918 64.7622612,79.2496169 67.269288,79.7710179 L67.7391851,79.8746316 L68.1696969,79.9643089 C68.4666016,80.0261136 68.7750189,80.0848886 69.0640466,80.1494199 C69.3412586,80.2166779 69.6190765,80.2839359 69.8971975,80.3514969 C70.1762273,80.4223905 70.4582867,80.5096441 70.7400432,80.5875058 C71.8607069,80.921978 72.9571335,81.3355238 73.9962999,81.8493507 C75.0330426,82.3646924 76.0204022,82.9727411 76.8953621,83.7022783 C77.7685042,84.4318156 78.552575,85.260422 79.1739541,86.1947629 C80.4336782,88.0489023 81.0865656,90.2838675 81.0808093,92.4621784 C81.0823241,92.7336341 81.0729322,93.0047869 81.0517247,93.27291 L81.0093098,93.6543416 L80.9490199,94.0784912 L80.8666138,94.4529546 C80.8666138,94.4529546 80.3167342,97.7607152 77.2622515,100.647356 C78.1272136,100.196243 78.9497607,99.6045539 79.6899017,98.8801671 C80.4909384,98.0948845 81.1965415,97.1508488 81.7130951,96.0647229 C81.7982279,95.8747645 81.8779075,95.6814735 81.9560722,95.4860618 C82.0130294,95.3209464 82.1063423,95.0513085 82.1636025,94.8861931 L82.2669132,94.5365727 L82.4083974,93.895198 L82.4741405,93.5395183 C82.5310978,93.1223369 82.5601823,92.8163433 82.5774513,92.5085319 C82.731054,90.052706 82.1502721,87.4375211 80.8029913,85.1695328 C80.1398032,84.0316002 79.2796885,83.0033405 78.3141423,82.0944486 C77.3461725,81.1849508 76.2545933,80.4190579 75.113631,79.7640498 C73.970245,79.1105565 72.7717196,78.5758251 71.5547133,78.1319829 C71.2481138,78.0259455 70.9475735,77.9135459 70.6358236,77.8144766 C70.321347,77.7181341 70.0071734,77.6220945 69.6933027,77.5263579 C69.388218,77.4391043 69.0985845,77.365787 68.8010738,77.2848956 L68.4453941,77.1906738 L67.9239932,77.0416156 C65.6947843,76.4362936 63.6219049,75.5307343 61.8398708,74.3612934 C61.6093152,74.2267774 61.3993612,74.0646916 61.1881953,73.9074534 C60.9767265,73.7514269 60.7661665,73.5960064 60.5565155,73.4414948 C60.358983,73.2724409 60.1626623,73.1042959 59.9675535,72.9367568 C59.7739595,72.7677029 59.5727915,72.6101617 59.3988901,72.4238388 C59.0401808,72.0645236 58.6742003,71.7218713 58.3603297,71.33741 C58.1997588,71.1489664 58.030099,70.9714296 57.8798288,70.7790474 C57.7316794,70.5845446 57.5847419,70.3912536 57.4387133,70.1991744 C57.3666079,70.1028319 57.2914728,70.009519 57.2217911,69.9122675 C57.155442,69.8122894 57.0893958,69.7123113 57.0239556,69.6132421 C56.8924693,69.4151037 56.7615888,69.218783 56.6319203,69.0239772 C56.5101287,68.8231121 56.3971232,68.6189144 56.2798761,68.4195641 C56.1650528,68.2193049 56.0438672,68.0257109 55.9469187,67.8181806 C55.742721,67.4103911 55.532464,67.016235 55.3655309,66.6066277 C55.2785802,66.4036419 55.1861762,66.2064123 55.1052848,66.0058502 C55.028635,65.8028643 54.952591,65.6019992 54.8774559,65.4032549 C54.2815258,63.8108763 53.9291787,62.2709104 53.7061972,60.8939392 C53.6504519,60.5482573 53.6044014,60.2152999 53.5641071,59.8911285 C53.8434399,60.4288895 54.2245686,61.1111644 54.7326392,61.9064448 C55.3549271,62.8819887 56.1683854,64.0223451 57.2120962,65.2372306 C58.2579279,66.4484805 59.534315,67.7360774 61.0785224,68.9588399 C62.6169734,70.1846321 64.4256683,71.3407426 66.4615861,72.2890198 C68.4978069,73.2339645 70.7579181,73.9677432 73.1373971,74.3924987 C75.5162701,74.8245253 78.0045132,74.9626768 80.4933621,74.8302816 C81.0705085,74.8060445 81.6988558,74.7672651 82.276911,74.7527228 C82.5686653,74.7448457 82.8607226,74.7366657 83.1533858,74.7287887 L84.0389494,74.7236383 C85.2205089,74.7254561 86.4038861,74.7639325 87.57363,74.8666373 C88.7430709,74.9702509 89.9003933,75.137487 91.0137858,75.4059131 C92.1235428,75.6782777 93.2033064,76.0336545 94.1612785,76.5559643 C95.1280365,77.0655497 95.9651259,77.7414623 96.6234666,78.5658273 C97.2860488,79.3889804 97.7592785,80.3617977 98.1310153,81.392784 C98.3221856,81.9169117 98.4827565,82.418923 98.5727368,82.9100276 C98.6681704,83.4141596 98.713312,83.9261687 98.705132,84.4354511 C98.6911957,85.454319 98.4854831,86.4577356 98.1410131,87.3841994 C97.797452,88.3118751 97.309377,89.1622949 96.7249595,89.8881966 C96.4325993,90.2508444 96.1138812,90.5819841 95.7715319,90.8658613 C95.7715319,90.8658613 94.9095995,91.7817214 92.8436882,92.8620909 C93.5807995,92.7678691 94.3260909,92.5860907 95.0098805,92.2479829 C95.115312,92.1943583 95.2213494,92.1407337 95.3276897,92.0865031 C95.4322123,92.02894 95.5249193,91.9844043 95.6412574,91.9156314 C95.8578767,91.7923251 96.0687396,91.6550824 96.2711195,91.5042064 C96.6783031,91.2054839 97.0551903,90.8573783 97.4045077,90.4741289 C98.1013248,89.7070241 98.6945283,88.8026767 99.1398853,87.7928978 C99.5849394,86.7843308 99.8882063,85.6685145 99.9754599,84.4918024 C99.9909111,84.2873018 99.9990911,84.0806803 100,83.87315 C99.9984852,83.4335493 99.9742481,83.0666599 99.9275916,82.6991647 C99.8509417,82.0808152 99.7455103,81.4924592 99.5800919,80.9337936 C99.2471345,79.7994965 98.7230069,78.618846 97.9728681,77.559381 C97.2300005,76.4977953 96.2287046,75.5892063 95.115009,74.9135967 C94.0043431,74.2195062 92.7943051,73.742035 91.5730573,73.3627241 C90.348174,72.9876548 89.1014773,72.7316502 87.8550835,72.5441155 C86.6080839,72.3577927 85.3601753,72.2417575 84.1189319,72.1641987 C83.8086968,72.1472327 83.4987647,72.1305697 83.1891355,72.1136037 C82.8767797,72.1033029 82.5650297,72.0923962 82.2538857,72.0823984 C81.6252355,72.060888 81.0514218,72.0627058 80.4303456,72.0511931 C78.1299403,72.0315005 75.8892188,71.7627714 73.802403,71.2486416 C71.7134664,70.740874 69.7866156,69.97589 68.0809285,69.0527588 C66.3761503,68.1253861 64.8922328,67.041381 63.6428094,65.9122343 C62.3888415,64.7870261 61.367853,63.619706 60.5413673,62.5326713 C59.7160934,61.4426069 59.0853224,60.4304043 58.6139105,59.5793786 C58.1794602,58.7956108 57.878617,58.1518123 57.6825993,57.6958516 C58.4720453,58.4720453 59.2786135,59.2215781 60.1057051,60.0359452 C60.8013103,60.7363979 61.5878048,61.4180669 62.4454958,62.0827698 C62.552745,62.1657819 62.6602972,62.2494 62.7690613,62.333624 C62.8796431,62.4142124 62.9908309,62.4951038 63.1029276,62.5766011 C63.3271209,62.7395957 63.553132,62.905317 63.7882321,63.0610404 C64.0221203,63.2188847 64.2560084,63.3833941 64.5001974,63.535179 C64.621383,63.6127378 64.7434775,63.6902966 64.8658749,63.7684613 C65.0042284,63.8557149 65.1435919,63.9396359 65.2839652,64.0202244 C65.7620423,64.2934978 66.2501173,64.5725277 66.7472811,64.8567079 C67.3114,65.1345258 67.8861227,65.4177971 68.4705402,65.7056129 L68.9113527,65.9037513 C69.0588962,65.9640412 69.2070456,66.0249369 69.3554979,66.0858327 C69.6524026,66.2070183 69.9520339,66.3291127 70.2537861,66.4521161 C70.405571,66.5111941 70.5540233,66.5802699 70.7100498,66.6314708 C70.8657733,66.6835806 71.0221027,66.7356904 71.178735,66.7884061 C71.4923027,66.8926257 71.8079912,66.9974512 72.1258004,67.1031857 C74.6806955,67.9045253 77.4758411,68.4150196 80.3791447,68.5162096 C80.6942273,68.5328726 80.7454282,68.5371141 80.7869342,68.5371141 C81.1459465,68.5352963 81.318939,68.5325696 81.4925373,68.529843 C81.8421577,68.5231778 82.1702677,68.529237 82.5829046,68.4889428 C82.9731222,68.4544049 83.3772761,68.4365301 83.7571929,68.3826025 C84.135292,68.3247364 84.5142999,68.2668702 84.8942167,68.2090041 C86.4060069,67.9199765 87.9020429,67.4464438 89.3205202,66.7829527 C92.1626252,65.4629388 94.6635927,63.3661251 96.477135,60.8094122 C98.2985544,58.2572438 99.4455759,55.2572946 99.7864104,52.2206868 C100.138152,49.1831701 99.6561359,46.1241429 98.5088114,43.4816912 C98.3539968,43.1569139 98.1994852,42.8333483 98.0458824,42.5116006 C97.8862204,42.1931855 97.6992916,41.8911304 97.52842,41.583622 L97.3536098,41.281264 C97.1563802,40.9831474 97.0636733,40.8431781 96.9715722,40.7035117 C96.7673745,40.4217552 96.5510582,40.1197001 96.3311064,39.8530918 C96.334439,39.8549096 95.443119,38.8108958 93.9976779,37.766579 C92.3347087,36.5659328 89.9382638,35.3649836 87.3245936,35.7548983 C88.0877599,35.8712364 88.8609239,36.0618008 89.6213634,36.3390128 C90.6938559,36.7365015 91.7421112,37.3006204 92.7115959,38.0207658 C93.685625,38.7366696 94.5572524,39.6349578 95.308603,40.6447367 C95.4088841,40.7686489 95.4867458,40.8989234 95.5743024,41.0261683 C95.6600412,41.1567458 95.7472948,41.2749017 95.8327307,41.4160829 C95.9178635,41.5599908 96.0032994,41.7045046 96.0890382,41.8493214 C96.1554883,41.9624279 96.2300174,42.1012864 96.3126256,42.2658968 C96.4547157,42.5570452 96.6131658,42.8412254 96.7437433,43.1399479 C96.8694733,43.4404881 96.9955064,43.7422402 97.1221453,44.0452042 C98.0431557,46.5040597 98.3297597,49.2689089 97.8798582,51.958623 C97.4399545,54.6477311 96.284147,57.2477679 94.5830043,59.3918439 C92.887618,61.5419791 90.6468965,63.2203995 88.1922824,64.2126065 C86.9658843,64.7118911 85.6894971,65.0454544 84.4076566,65.2248091 C84.0856059,65.2572262 83.7644641,65.2896434 83.4442312,65.3217575 C83.126119,65.351145 82.8267906,65.3441769 82.520494,65.359931 C82.2360109,65.3811385 81.8673037,65.3584162 81.5237426,65.3478124 C81.3504472,65.3414502 81.1774548,65.3356939 81.0050683,65.3293316 C80.9267016,65.3250901 80.780673,65.3109518 80.5669824,65.2869167 C77.9745197,65.0651471 75.5147553,64.4834563 73.2952413,63.6621209 C73.0195441,63.5548717 72.7459676,63.4479254 72.473906,63.341888 C72.3381781,63.2891723 72.2030562,63.2364566 72.0679343,63.1843468 C71.9331153,63.1328429 71.8052645,63.0640701 71.6743841,63.0049921 C71.414744,62.8832006 71.1566187,62.762318 70.9009171,62.6423442 C70.7730663,62.5826603 70.6458214,62.5232794 70.5188795,62.4642014 L70.1538079,62.2769697 C69.6848197,62.0182385 69.2240115,61.7640517 68.7713834,61.5141064 C68.2890647,61.2050832 67.816138,60.9021192 67.3523002,60.6052145 C67.2084933,60.5133155 67.1163922,60.4512079 67.075997,60.4188917 C66.9726863,60.3452715 66.8696786,60.2719542 66.7672767,60.1989399 C66.5603524,60.0559409 66.3658495,59.9029441 66.1701348,59.7563095 C65.9729052,59.6111898 65.7865824,59.4587989 65.6020773,59.3094377 C65.5093704,59.2349085 65.4172693,59.1606824 65.3260772,59.0873651 C65.2376117,59.0110182 65.1497521,58.9352772 65.0624985,58.8598391 C64.3632577,58.2590616 63.7373341,57.6579811 63.2026027,57.0599302 C62.7763324,56.5942746 62.4333772,56.0710558 62.1667689,55.5102695 C58.9426264,48.72115 58.7317635,41.2094615 58.7317635,41.2094615 L55.2688854,39.9748833 C57.079701,40.2751206 58.4687908,40.1097023 59.5224994,39.7403892 C61.847142,38.9260221 63.1862427,36.4892829 62.737553,34.0676919 C62.4321654,32.418962 61.6123449,31.2313433 61.6123449,31.2313433 C67.269894,25.0081605 61.6123449,11.6871379 61.6123449,11.6871379 C59.0141259,5.48667741 55.5682138,2.39068865 53.1042078,0.878595499 C52.1580514,0.297813578 51.0876797,0.00484742344 50.0160962,0 C48.8890702,0.00484742344 47.8186985,0.600777543 46.8722391,1.18186243 Z M54.9195679,34.1997842 C55.9232875,32.0420749 58.7090412,31.3331392 60.4965286,32.9043103 L60.4965286,32.9043103 C60.5489414,32.9503608 60.6007482,32.9985321 60.6522521,33.0488241 L60.6522521,33.0488241 C60.6522521,33.0488241 60.5849941,33.1148703 60.4565374,33.2257551 L60.4565374,33.2257551 C59.4973534,33.9192396 57.2829898,35.3222657 54.4560331,35.8839609 L54.4560331,35.8839609 C54.4832998,35.597357 54.5802483,34.9293215 54.9195679,34.1997842 L54.9195679,34.1997842 Z M39.2651169,33.1051754 C39.3305571,33.0421589 39.4368975,32.9424838 39.4805243,32.9043103 L39.4805243,32.9043103 C41.2677087,31.3331392 44.0531594,32.0420749 45.057182,34.1997842 L45.057182,34.1997842 C45.4407344,35.0238462 45.5201109,35.8170059 45.5352591,36.0384725 L45.5352591,36.0384725 C42.2426467,35.3501384 39.810755,33.5396258 39.2651169,33.1051754 L39.2651169,33.1051754 Z M55.1422464,37.2885019 C57.2596616,36.8095158 59.0156407,35.9375855 60.2165899,35.2056246 L60.2165899,35.2056246 C60.6634617,34.958709 60.8973499,34.7975321 60.8973499,34.7975321 L60.8973499,34.7975321 C60.7313257,36.9922031 59.2119614,38.363418 59.2119614,38.363418 L59.2119614,38.363418 C56.7488643,38.3361512 55.5333729,37.5890421 55.1422464,37.2885019 L55.1422464,37.2885019 Z M39.0860652,34.857216 C40.1761295,35.6100815 42.1572109,36.774675 44.6790829,37.3987807 L44.6790829,37.3987807 C44.1676798,37.74113 42.9649128,38.3391809 40.7647885,38.363418 L40.7647885,38.363418 C40.7647885,38.363418 39.2754177,37.0161373 39.0860652,34.857216 L39.0860652,34.857216 Z M32.7419998,60.4800904 C32.7380612,60.4825141 32.7389701,60.4819082 32.7419998,60.4800904 L32.7419998,60.4800904 Z" id="Page-1" fill="#2E2E30"></path>
                <g id="Group-8" transform="translate(8.666667, 56.333333)">
                    <rect id="Rectangle" fill="#FFFFFF" x="0" y="0" width="83" height="20"></rect>
                    <path d="M13.5928629,5.19870235 C14.1151663,5.19870235 14.5255474,5.60908354 14.5255474,6.13138686 L14.5255474,16.3909165 L16.3909165,16.3909165 L16.3909165,6.13138686 C16.3909165,4.58313058 15.1411192,3.33333333 13.5928629,3.33333333 L11.7274939,3.33333333 C11,3.33333333 10.3471208,3.61313869 9.8621249,4.04217356 C9.35847526,3.61313869 8.70559611,3.33333333 7.99675588,3.33333333 L6.13138686,3.33333333 C4.58313058,3.33333333 3.33333333,4.58313058 3.33333333,6.13138686 L3.33333333,16.3909165 L5.19870235,16.3909165 L5.19870235,6.13138686 C5.19870235,5.60908354 5.60908354,5.19870235 6.13138686,5.19870235 L7.99675588,5.19870235 C8.48175182,5.19870235 8.92944039,5.60908354 8.92944039,6.13138686 L8.92944039,16.3909165 L10.7948094,16.3909165 L10.7948094,6.13138686 C10.7948094,5.60908354 11.2051906,5.19870235 11.7274939,5.19870235 L13.5928629,5.19870235 Z M22.919708,5.19870235 L21.054339,5.19870235 C20.5320357,5.19870235 20.1216545,5.60908354 20.1216545,6.13138686 L20.1216545,8.92944039 L23.8523925,8.92944039 L23.8523925,6.13138686 C23.8523925,5.60908354 23.4420114,5.19870235 22.919708,5.19870235 Z M21.054339,3.33333333 L22.919708,3.33333333 C24.4679643,3.33333333 25.7177616,4.58313058 25.7177616,6.13138686 L25.7177616,16.3909165 L23.8523925,16.3909165 L23.8523925,10.7948094 L20.1216545,10.7948094 L20.1216545,16.3909165 L18.2562855,16.3909165 L18.2562855,6.13138686 C18.2562855,4.58313058 19.5060827,3.33333333 21.054339,3.33333333 Z M30.1946472,7.06407137 L32.9927007,7.06407137 L32.9927007,3.33333333 L34.8580697,3.33333333 L34.8580697,16.3909165 L30.1946472,16.3909165 C28.6463909,16.3909165 27.3965937,15.1411192 27.3965937,13.5928629 L27.3965937,9.8621249 C27.3965937,8.31386861 28.6463909,7.06407137 30.1946472,7.06407137 Z M29.2619627,9.8621249 L29.2619627,13.5928629 C29.2619627,14.1151663 29.6723439,14.5255474 30.1946472,14.5255474 L32.9927007,14.5255474 L32.9927007,8.92944039 L30.1946472,8.92944039 C29.6723439,8.92944039 29.2619627,9.33982157 29.2619627,9.8621249 Z M43.4387672,16.3909165 L43.9983779,14.5255474 L39.3349554,14.5255474 C38.8126521,14.5255474 38.4022709,14.1151663 38.4022709,13.5928629 L38.4022709,6.13138686 C38.4022709,5.60908354 38.8126521,5.19870235 39.3349554,5.19870235 L43.9983779,5.19870235 L43.4387672,3.33333333 L39.3349554,3.33333333 C37.7866991,3.33333333 36.5369019,4.58313058 36.5369019,6.13138686 L36.5369019,13.5928629 C36.5369019,15.1411192 37.7866991,16.3909165 39.3349554,16.3909165 L43.4387672,16.3909165 Z M49.0348743,10.7948094 L47.1695053,10.7948094 L47.1695053,16.3909165 L45.3041363,16.3909165 L45.3041363,3.33333333 L49.9675588,3.33333333 C51.5158151,3.33333333 52.7656123,4.58313058 52.7656123,6.13138686 L52.7656123,7.99675588 C52.7656123,9.02270884 52.2060016,9.93673966 51.3852393,10.4217356 C51.9261963,11.1119221 52.7656123,12.4922952 52.7656123,14.5255474 L52.7656123,16.3909165 L50.9002433,16.3909165 L50.9002433,14.5255474 C50.9002433,13.0332522 49.7810219,10.7948094 49.0348743,10.7948094 Z M50.9002433,7.99675588 L50.9002433,6.13138686 C50.9002433,5.60908354 50.4898621,5.19870235 49.9675588,5.19870235 L47.1695053,5.19870235 L47.1695053,8.92944039 L49.9675588,8.92944039 C50.4898621,8.92944039 50.9002433,8.51905921 50.9002433,7.99675588 Z M57.242498,14.5255474 C56.7201946,14.5255474 56.3098135,14.1151663 56.3098135,13.5928629 L56.3098135,3.33333333 L54.4444444,3.33333333 L54.4444444,13.5928629 C54.4444444,15.1411192 55.6942417,16.3909165 57.242498,16.3909165 L59.107867,16.3909165 C60.6561233,16.3909165 61.9059205,15.1411192 61.9059205,13.5928629 L61.9059205,3.33333333 L60.0405515,3.33333333 L60.0405515,13.5928629 C60.0405515,14.1151663 59.6301703,14.5255474 59.107867,14.5255474 L57.242498,14.5255474 Z M65.2635848,6.13138686 C65.2635848,5.60908354 65.6739659,5.19870235 66.1962693,5.19870235 L71.0462287,5.19870235 L70.486618,3.33333333 L66.1962693,3.33333333 C64.648013,3.33333333 63.3982157,4.58313058 63.3982157,6.13138686 L63.3982157,7.43714517 C63.3982157,10.6082725 69.1808597,10.701541 69.1808597,12.6601784 L69.1808597,13.5928629 C69.1808597,14.1151663 68.7704785,14.5255474 68.2481752,14.5255474 L63.3982157,14.5255474 L63.9578264,16.3909165 L68.2481752,16.3909165 C69.7964315,16.3909165 71.0462287,15.1411192 71.0462287,13.5928629 L71.0462287,12.2871046 C71.0462287,9.30251419 65.2635848,9.02270884 65.2635848,7.06407137 L65.2635848,6.13138686 Z M72.5385239,16.3909165 L74.4038929,16.3909165 L74.4038929,8.92944039 L77.2019465,8.92944039 C77.7242498,8.92944039 78.134631,9.33982157 78.134631,9.8621249 L78.134631,16.3909165 L80,16.3909165 L80,9.8621249 C80,8.31386861 78.7502028,7.06407137 77.2019465,7.06407137 L74.4038929,7.06407137 L74.4038929,3.33333333 L72.5385239,3.33333333 L72.5385239,16.3909165 Z" id="MAdCRUSh" fill="#2E2E30"></path>
                </g>
            </g>
        </g>
    </g>
</svg>