<svg id="Layer_1" xmlns="http://www.w3.org/2000/svg" viewBox="0 0 200 67.5"><style>.st0{fill:#fff}.st1{font-family:&apos;OpenSans-Bold&apos;}.st2{font-size:32.9083px}.st3{letter-spacing:-2}.st4{font-family:&apos;OpenSans-Light&apos;}</style><path class="st0" d="M198.6 64.3H2.1c-.4 0-.8-.3-.8-.8 0-.4.3-.8.8-.8h196.5c.4 0 .8.3.8.8-.1.5-.4.8-.8.8z"/><path class="st0" d="M199.5 61.3L146.8 5c-.7-.8-2-.8-2.7 0l-18 21.9c-.6.7-1.7.8-2.4.3l-.5-.4c-.8-.6-1.9-.4-2.5.3L93.4 58.9c-.5.6-.1 1.5.7 1.5h54.1c.5 0 .9-.4.9-.9V49c0-1.5 1.6-2.3 2.9-1.5L177.3 64c.3.2.7.3 1 .3h19.8c1.6 0 2.5-1.8 1.4-3z"/><text transform="translate(0 28.2)"><tspan x="0" y="0" class="st0 st1 st2 st3">Digital</tspan><tspan x="0" y="30.5" class="st0 st4 st2 st3">olymp</tspan></text></svg>