<svg width="444" height="342" viewBox="0 0 444 342" fill="none" xmlns="http://www.w3.org/2000/svg"><path d="M397.27 201.785c-1.741 0-3.48.097-5.21.29.58-3.575.658-7.214.23-10.81.115-1.945.18-3.905.18-5.88 0-54.57-44.24-98.81-98.81-98.81-89.245 0-110.785 96.83-111.04 106.715a57.06 57.06 0 0 0-72.331-11.339 57.067 57.067 0 0 0-23.959 69.184v.525A21.693 21.693 0 0 0 69 255.184a21.68 21.68 0 0 0-8.043 24.253A21.688 21.688 0 0 0 81.59 294.51a22.221 22.221 0 0 0 2.46-.14 30.77 30.77 0 0 0 4.765.695h315.5a48.819 48.819 0 0 0 9.5-3.71 46.309 46.309 0 0 0-16.53-89.57h-.015z" fill="#DCEEFF"/><path d="M365.68 339.7s18.775-7 22.11-24.67c-24.935 8.47-33.335 24.67-33.335 24.67h11.225z" fill="#170278"/><path d="M353.841 340.115c21.35-13.585 35.35-40.13 32.685-61.93-59.335 19.465-61.13 61.735-61.13 61.735l28.445.195z" fill="#925AF0"/><path d="M337.565 340.115s26.23-46.36 48.96-61.93" stroke="#fff" stroke-miterlimit="10"/><path d="M125.285 244.29h218.49c8.031 0 14.54-6.51 14.54-14.54V68.395c0-8.03-6.509-14.54-14.54-14.54h-218.49c-8.03 0-14.54 6.51-14.54 14.54V229.75c0 8.03 6.51 14.54 14.54 14.54z" fill="#170278"/><path d="M344.775 48.245h-221.25c-8.03 0-14.54 6.51-14.54 14.54V224.14c0 8.03 6.51 14.54 14.54 14.54h221.25c8.031 0 14.54-6.51 14.54-14.54V62.785c0-8.03-6.509-14.54-14.54-14.54z" fill="#fff"/><path d="M123.5 48.245h24.775c0 174.66 167.85 170.765 211 170.765v5.14a14.556 14.556 0 0 1-14.54 14.525H123.5A14.532 14.532 0 0 1 109 224.14V62.785a14.537 14.537 0 0 1 14.5-14.54z" fill="#F3F9FF"/><path d="M121.14 48.245h226A12.162 12.162 0 0 1 359.3 60.4v9.385H109V60.4a12.156 12.156 0 0 1 12.14-12.155z" fill="#499AF9"/><path d="M346.765 48.245a12.548 12.548 0 0 1 12.55 12.55v25.78h-34a11.901 11.901 0 0 1-11.004-7.352 11.905 11.905 0 0 1-.906-4.558v-26.42h33.36z" fill="#170278"/><path d="M148.42 62.915a3.145 3.145 0 1 0 0-6.29 3.145 3.145 0 0 0 0 6.29zm-13.42 0a3.145 3.145 0 1 0 0-6.29 3.145 3.145 0 0 0 0 6.29zm-13.419 0a3.146 3.146 0 1 0-.001-6.291 3.146 3.146 0 0 0 .001 6.291z" fill="#fff"/><path d="M121.87 190.825H9.455v-66.5a11.998 11.998 0 0 1 12-12H121.87v78.5z" fill="#925AF0"/><path d="M30.265 123.025H134.44a10.714 10.714 0 0 0-3.139-7.587 10.733 10.733 0 0 0-7.586-3.143H20.025a10.244 10.244 0 0 1 10.24 10.245v.485zm329.05 3.4h-8.605a4.289 4.289 0 0 1-3.044-1.258 4.3 4.3 0 0 1-1.261-3.042V104.91a4.31 4.31 0 0 1 2.657-3.979 4.298 4.298 0 0 1 1.648-.326h8.605v25.82z" fill="#170278"/><path d="M372.861 97.205h-17.21a4.305 4.305 0 0 0-4.305 4.305v17.21a4.304 4.304 0 0 0 4.305 4.305h17.21a4.305 4.305 0 0 0 4.305-4.305v-17.21a4.305 4.305 0 0 0-4.305-4.305zm-101.706-71.35h17.21a4.305 4.305 0 0 0 4.305-4.305V4.34a4.305 4.305 0 0 0-4.305-4.305h-17.21a4.305 4.305 0 0 0-4.305 4.305v17.21a4.305 4.305 0 0 0 4.305 4.305z" fill="#FFC0C0"/><path d="M261.626 149.31h17.21a4.305 4.305 0 0 0 4.305-4.305v-17.21a4.305 4.305 0 0 0-4.305-4.305h-17.21a4.304 4.304 0 0 0-4.305 4.305v17.21a4.304 4.304 0 0 0 4.305 4.305zM181.09 169.3h17.21a4.304 4.304 0 0 0 4.305-4.305v-17.21a4.304 4.304 0 0 0-4.305-4.305h-17.21a4.305 4.305 0 0 0-4.305 4.305v17.21a4.305 4.305 0 0 0 4.305 4.305z" fill="#170278"/><path d="M267.26 144.82h17.21a4.304 4.304 0 0 0 4.305-4.305v-17.21A4.304 4.304 0 0 0 284.47 119h-17.21a4.305 4.305 0 0 0-4.305 4.305v17.21a4.305 4.305 0 0 0 4.305 4.305zm-81.295 18.225h17.21a4.304 4.304 0 0 0 4.305-4.305v-17.21a4.304 4.304 0 0 0-4.305-4.305h-17.21a4.305 4.305 0 0 0-4.305 4.305v17.21a4.305 4.305 0 0 0 4.305 4.305z" fill="#FFC0C0"/><path d="M136.445 275.175H12.67a12.249 12.249 0 0 1-8.658-3.583 12.239 12.239 0 0 1-3.587-8.657V189.64a3.8 3.8 0 0 1 3.8-3.8h70.45l14.195-13.135a11.37 11.37 0 0 1 7.725-3.025h48.295a3.799 3.799 0 0 1 3.8 3.8v89.455a12.245 12.245 0 0 1-7.56 11.31 12.243 12.243 0 0 1-4.685.93z" fill="#FFB85A"/><path d="M12.67 275.175h123.775a12.233 12.233 0 0 0 11.313-7.555c.616-1.485.932-3.077.932-4.685v-3.765C97.47 258.065 41.75 233.9 6.245 185.84h-2a3.8 3.8 0 0 0-3.8 3.8v73.295a12.24 12.24 0 0 0 12.225 12.24z" fill="#FFA733"/><path d="M142.29 269.205H15.25a9 9 0 0 1-9-9V185.84H4.205a3.8 3.8 0 0 0-3.8 3.8v73.295a12.237 12.237 0 0 0 7.56 11.31 12.23 12.23 0 0 0 4.685.93h123.795A12.234 12.234 0 0 0 147.59 268a12.199 12.199 0 0 1-5.3 1.205z" fill="#FF802C"/><path d="M51.99 242.51H23.225a3.2 3.2 0 0 0-3.2 3.2v7.725a3.2 3.2 0 0 0 3.2 3.2H51.99a3.2 3.2 0 0 0 3.2-3.2v-7.725a3.2 3.2 0 0 0-3.2-3.2zm56.545-102.25H29.561a2.205 2.205 0 1 0 0 4.41h78.974a2.205 2.205 0 1 0 0-4.41zm0 13H29.561a2.205 2.205 0 1 0 0 4.41h78.974a2.205 2.205 0 1 0 0-4.41zm-42.375 13h-36.6a2.205 2.205 0 1 0 0 4.41h36.6a2.205 2.205 0 1 0 0-4.41z" fill="#fff"/><path d="M148.57 219.87a16.629 16.629 0 0 0-10.293 27.423 16.629 16.629 0 0 0 10.293 5.537v-32.96z" fill="#170278"/><path d="M148.691 248.09c9.184 0 16.63-7.446 16.63-16.63 0-9.185-7.446-16.63-16.63-16.63-9.185 0-16.63 7.445-16.63 16.63 0 9.184 7.445 16.63 16.63 16.63z" fill="#925AF0"/><path d="M155.105 229.08h-4.04v-3.8a2.374 2.374 0 1 0-4.75 0v3.8h-3.565a2.38 2.38 0 0 0 0 4.755h3.565v3.8a2.375 2.375 0 0 0 4.75 0v-3.8h4.04a2.379 2.379 0 0 0 0-4.755z" fill="#fff"/><path d="M35.4 166.26h-5.84a2.205 2.205 0 1 0 0 4.41h5.84a2.205 2.205 0 1 0 0-4.41zm12.4-26H29.56a2.205 2.205 0 1 0 0 4.41H47.8a2.205 2.205 0 1 0 0-4.41zm41.695 13h-18.24a2.205 2.205 0 1 0 0 4.41h18.24a2.205 2.205 0 1 0 0-4.41z" fill="#FFC0C0"/><path d="M194.57 154.34a4.21 4.21 0 1 0 0-8.42 4.21 4.21 0 0 0 0 8.42zm169.685-40.015a4.21 4.21 0 1 0 0-8.42 4.21 4.21 0 0 0 0 8.42zM276.21 136.42a4.21 4.21 0 1 0 0-8.42 4.21 4.21 0 0 0 0 8.42zm3.55-119.26a4.21 4.21 0 1 0 0-8.42 4.21 4.21 0 0 0 0 8.42z" fill="#fff"/><path d="M245.12 208.525L230 185.5a1.246 1.246 0 0 0-1.73-.36 1.253 1.253 0 0 0-.36 1.73l15.85 24.155a1.27 1.27 0 0 0 1.045.565h29.875a1.25 1.25 0 1 0 0-2.5h-28.5a1.262 1.262 0 0 1-1.06-.565z" fill="#2300B4"/><path d="M239.261 340.115s-6.501-5.735-6.306-12.36c10.336 4 11.741 12.36 11.741 12.36h-5.435z" fill="#170278"/><path d="M244.166 340.07c-8.085-6.135-8.74-17.315-7.43-23.645 10.975 6 13.44 23.465 13.44 23.465l-6.01.18z" fill="#925AF0"/><path opacity=".3" d="M316.396 340.05h91.91M211 340h74.14" stroke="#925AF0" stroke-width="2" stroke-miterlimit="10" stroke-linecap="round"/><path d="M301.5 234.34c-.94 5.525-.775 8.58 2.14 14.16 2.59 4.965 35.955 59.14 43.295 71.05a2.509 2.509 0 0 0 2.682 1.146 2.49 2.49 0 0 0 .938-.426l16.39-11.825a2.498 2.498 0 0 0 .365-3.77c-2.425-2.585-6.385-6.83-7.61-8.34-3.055-3.76-1.795-6.06-5.32-10.17-2.39-2.79-7.285-4.115-10.695-8.58-2.75-3.605-2.23-6.345-5.08-9.695-2.535-2.975-5.375-4.64-7.14-7.7-1.265-2.19-15.5-25.85-15.5-25.85H301.5z" fill="#2300B4"/><path d="M351.615 319.655l6.27 10a3.658 3.658 0 0 1-.105 4.045s-2.17 2.95-2.465 3.11c-.4.215-.97.555-1.56.91a.842.842 0 0 0 .44 1.555H358c2.26 0 4.715-2.29 6.5-3.645 1.195-.9 3.66-1.935 5.09-3.13 2.115-1.77 1.84-4.675.35-7l-8.42-13-9.905 7.155z" fill="#FFB85A"/><path d="M318.215 264.92c1.265 3.85 7.845 13.84 10.9 16.305 3.055 2.465 11.75 10.225 14 15.395s4.455 18.94 8.15 23.035m-28.3-60.44c1.34 6 11.555 21.775 16.61 25.77 5.055 3.995 7.415 3.645 10.525 9.17 3.11 5.525 5.175 17.205 7.84 20.5m-32.544-58.965c1.045 3.775 6.895 9.205 10.535 13.08 3.64 3.875 4.35 10 7.17 13.045 2.82 3.045 8.46 3.405 10.34 7.285 1.88 3.88 5.055 14 6.23 15.865 1.175 1.865 4.585 5.415 4.585 5.415" stroke="#5B3ED1" stroke-miterlimit="10"/><path d="M275.541 315.165l34.069-80.825h12.456s5.405 8.225 5.405 16.45-10.1 13-11.045 16.925c-1.41 5.875 1.41 17.625-.235 22.56-1.645 4.935-4.7 6.345-5.875 8.93-1.175 2.585 0 4.23-1.175 6.11s-3.53 3.29-4.235 5.645c-.44 1.47-.79 4.045-1.16 6.05a3.231 3.231 0 0 1-3.18 2.645H278.5a3.235 3.235 0 0 1-2.959-4.49z" fill="#2300B4"/><path d="M279.761 320.175c7.365-5.3 5.945-18.95 9.115-26.82 3.17-7.87 12.125-18.855 14.27-24.82 3.525-9.87 8.9-34.46 8.9-34.46M292 319.5c-.585-4.58-.96-9.365 2.215-14.535s9.635-6.345 10.81-14.57c1.175-8.225-.39-10.58 1.645-18.685 1.765-7.045 7.05-16.925 7.875-21.155.825-4.23 3.155-16.555 3.155-16.555" stroke="#5B3ED1" stroke-miterlimit="10"/><path d="M298 319.5c1.645-2.465 4.555-15.71 7.73-20.88 3.175-5.17 6.345-5.29 7.05-12.81.705-7.52-.735-14.58-.82-19.035-.085-4.455 5.04-10.46 7.04-13.275 2-2.815 5.25-8.58 5.25-8.58" stroke="#5B3ED1" stroke-miterlimit="10"/><path d="M322.065 231.285H301.5v3.055h20.565v-3.055z" fill="#FFB85A"/><path d="M323.241 199.675l-23.87.21a7.737 7.737 0 0 0-5.665 2.295l-15.375 15.615-9.93-6.345-3.965 5.33a2.802 2.802 0 0 0 .5 3.875l9.31 7.27a7.151 7.151 0 0 0 9.255-.375l11.82-10.93 2.965 10.75a6.063 6.063 0 0 0 1.685 2.795l1.535 1.12h20.565l2.23-15.745 6.755 10.265L320.246 238a2.565 2.565 0 0 0-.28 3l2.065 3.435a3.394 3.394 0 0 0 2.533 1.617 3.396 3.396 0 0 0 2.822-1.037l12.93-13.67a8.121 8.121 0 0 0 1.28-9.345c-2.555-4.82-6.5-11.93-9.895-16.545-4.23-5.78-8.46-5.78-8.46-5.78z" fill="#499AF9"/><path d="M278.946 319.655l-6.445 13.09a12.337 12.337 0 0 1-2.8 3.71l-1.955 1.77a.603.603 0 0 0 .405 1.055h4.895c3.5 0 5.12-2.755 7-4.045s4.165-.655 6.63-4.535c1-1.57 5.29-11.045 5.29-11.045h-13.02z" fill="#FFB85A"/><path d="M316.15 269.335c0-2.36 1.215-3.935 3.945-6.275a24.729 24.729 0 0 0 3.535-3.845s-2.095 6.97-2.74 9.675c-.645 2.705-.05 8.105-.05 8.105l-4.69-7.66z" fill="#170278"/><path d="M268.725 211.545H253.15a1.414 1.414 0 0 0-1 .418 1.416 1.416 0 0 0 0 2.004c.265.266.625.417 1 .418h8.04l3.19 2.53 4.345-5.37z" fill="#FFB85A"/><path opacity=".3" d="M291.516 340.05h16.68" stroke="#925AF0" stroke-width="2" stroke-miterlimit="10" stroke-linecap="round"/><path d="M314.78 190.525l2.465-10.24-5.935-6.11c-1 .285-3.155 2.055-5.09 4.305-.68-.5-1.545-.465-1.94.07s-.18 1.32.45 1.835c-1.355 1.93-2.335 4-2.23 5.655.175 2.935 3 4.5 3 4.5l-1.185 9.315a5.343 5.343 0 0 0 4.7 5.24c2.47.235 5.875-2.605 5.76-5.24-.095-2.095-.04-7.285 0-9.315l.005-.015z" fill="#FFB85A"/><path d="M319.45 174.175c-5.205-3.805-11 0-11 0 .23 1.63 6.675 5.3 5.195 6.63a8.654 8.654 0 0 0-3.473 7.698 8.658 8.658 0 0 0 13.169 6.634 8.652 8.652 0 0 0 4.119-7.372c.025-4.715-1.635-2.045-3.185-5.715-1.155-2.685-.985-5.05-4.825-7.875zm-40.929 145.48l12.17 2.795 1.28-2.795h-13.45zm83.004-7.155l-7.735 10.625-2.175-3.47 9.91-7.155zM305.5 190.525a6.559 6.559 0 0 0 3.38.295l-3.685 2.11.305-2.405zm-16.95 32.355l8-12.955s-1.5 5.765-1.26 6.695l-6.74 6.26z" fill="#170278"/><path opacity=".36" d="M206.46 138.745L323.195 74.87m31.005 5.58l5.115 16.755M291.75 24.21l27.455 12.845M287.58 120.33l35.615-41.89" stroke="#6174FF" stroke-miterlimit="10"/><path d="M331.05 225.805a8.223 8.223 0 0 0 3.68 0" stroke="#DCEEFF" stroke-miterlimit="10"/><path d="M329.2 80.45h46.16c5.523 0 10-4.477 10-10V24.29c0-5.523-4.477-10-10-10H329.2c-5.522 0-10 4.477-10 10v46.16c0 5.523 4.478 10 10 10z" fill="#925AF0"/><path d="M357.77 47.225a8.31 8.31 0 0 0 1.95-5.365v-1.07a8.373 8.373 0 0 0-8.375-8.375h-6.155a3.296 3.296 0 0 0-3.29 3.29v24.42a3.293 3.293 0 0 0 3.29 3.29h7.63a8.372 8.372 0 0 0 8.375-8.37V53.97a8.359 8.359 0 0 0-3.425-6.745zm-11.23-10.17h4.805a3.746 3.746 0 0 1 3.74 3.735v1.07a3.743 3.743 0 0 1-3.74 3.74h-4.805v-8.545zm10 18a3.739 3.739 0 0 1-3.735 3.735h-6.265v-8.555h6.28a3.739 3.739 0 0 1 3.735 3.735l-.015 1.085z" fill="#fff"/></svg>