<svg width="500" height="380" viewBox="0 0 500 380" fill="none" xmlns="http://www.w3.org/2000/svg"><path opacity=".5" d="M460.381 250.648c6.056-15.588 11.309-96.281-77.166-91.674-6.312-52.94-63.527-88.054-126.599-53.575v168.609h204.533c11.191.471 16.94-19.914-.768-23.36zM141.884 139.607a46.225 46.225 0 0 0-38.347 20.452 46.215 46.215 0 0 0-4.416 43.234c-21.886 6.41-40.991 25.219-40.991 49.91-21.569 0-19.04 20.826-19.04 20.826h136.204s12.798-62.719 12.798-88.229a46.18 46.18 0 0 0-13.533-32.67 46.182 46.182 0 0 0-32.675-13.523z" fill="#6174FF"/><path d="M275.061 88.377H170.619c-6.031 0-10.92 4.89-10.92 10.92v186.471c0 6.031 4.889 10.92 10.92 10.92h104.442c6.031 0 10.92-4.889 10.92-10.92V99.297c0-6.03-4.889-10.92-10.92-10.92z" fill="#fff"/><path d="M275.086 88.377h-104.84a10.926 10.926 0 0 0-10.925 10.92v11.094h126.68V99.297a10.92 10.92 0 0 0-10.915-10.92z" fill="#915AEF"/><path d="M422.446 247.059H308.103a7.464 7.464 0 0 0-7.464 7.465v84.906a7.464 7.464 0 0 0 7.464 7.464h114.343a7.464 7.464 0 0 0 7.464-7.464v-84.906a7.465 7.465 0 0 0-7.464-7.465z" fill="#FF802C"/><path d="M435.101 247.059H320.758a7.465 7.465 0 0 0-7.464 7.465v84.906a7.464 7.464 0 0 0 7.464 7.464h114.343a7.464 7.464 0 0 0 7.464-7.464v-84.906a7.464 7.464 0 0 0-7.464-7.465z" fill="#FFB75A"/><path d="M267.549 129.852h-44.43a5.774 5.774 0 0 0-5.774 5.774v9.431a5.774 5.774 0 0 0 5.774 5.774h44.43a5.774 5.774 0 0 0 5.775-5.774v-9.431a5.774 5.774 0 0 0-5.775-5.774z" fill="#E9F4FF"/><path d="M368.563 330.22c-36.348-14.027-38.651-44.632-38.841-83.161h-8.57a7.86 7.86 0 0 0-7.26 4.847 7.854 7.854 0 0 0-.598 3.007v84.112a7.859 7.859 0 0 0 7.858 7.859h113.56a7.859 7.859 0 0 0 7.858-7.859v-7.628c-20.252 4.843-52.413 7.157-74.007-1.177z" fill="#FFA633"/><path d="M450.674 342.675a56.185 56.185 0 0 0 7.833-10.239c-18.174 2.816-19.347 14.463-19.347 14.463h1.597a13.73 13.73 0 0 0 9.917-4.224z" fill="#3623AB"/><path d="M439.181 346.884c9.44-9.436 9.675-18.43 12.946-28.285-19.965 8.063-22.648 27.942-22.648 27.942l9.702.343z" fill="#6174FF"/><path d="M170.764 296.688H275.2a10.923 10.923 0 0 0 10.91-10.905v-11.109H159.839v11.109a10.924 10.924 0 0 0 3.205 7.714 10.925 10.925 0 0 0 7.72 3.191z" fill="#915AEF"/><path d="M104.783 186.542h-59.8a9.976 9.976 0 0 0-9.967 9.973v26.299a9.97 9.97 0 0 0 9.967 9.962h13.31l7.951 11.995.108-4.915a8.559 8.559 0 0 1 4.06-7.09c14.38 0 35.595-.051 35.923-.102a9.973 9.973 0 0 0 8.421-9.85v-26.299a9.977 9.977 0 0 0-6.156-9.213 9.96 9.96 0 0 0-3.817-.76z" fill="#FFB75A"/><path d="M44.983 186.542h6.937a9.976 9.976 0 0 0-9.968 9.973v26.299a9.968 9.968 0 0 0 9.968 9.967h-6.937A9.968 9.968 0 0 1 35 222.814v-26.299a9.978 9.978 0 0 1 2.925-7.055 9.966 9.966 0 0 1 7.058-2.918z" fill="#FF802C"/><path d="M170.598 88.377h10.239a10.922 10.922 0 0 0-10.94 10.92v186.486a10.92 10.92 0 0 0 10.92 10.92h-10.239a10.917 10.917 0 0 1-7.721-3.199 10.917 10.917 0 0 1-3.199-7.721V99.297a10.921 10.921 0 0 1 10.94-10.92z" fill="#6634B9"/><path d="M266.549 163.852h-43.43a5.774 5.774 0 0 0-5.774 5.774v9.43a5.774 5.774 0 0 0 5.774 5.775h43.43a5.774 5.774 0 0 0 5.775-5.775v-9.43a5.774 5.774 0 0 0-5.775-5.774z" fill="#E9F4FF"/><path d="M351.761 139.853h-90.426a9.471 9.471 0 0 0-9.471 9.471v62.503a9.471 9.471 0 0 0 9.471 9.471h90.426a9.47 9.47 0 0 0 9.471-9.471v-62.503a9.47 9.47 0 0 0-9.471-9.471z" fill="#6174FF"/><path d="M348.526 146.13h-83.954a6.281 6.281 0 0 0-6.282 6.281v56.329a6.281 6.281 0 0 0 6.282 6.282h83.954a6.281 6.281 0 0 0 6.281-6.282v-56.329a6.28 6.28 0 0 0-6.281-6.281z" fill="#2635C4"/><path d="M275.348 200.647h62.401l-21.804-32.33-17.667 22.183-9.4-12.783-13.53 22.93zm5.525-31.163a4.49 4.49 0 1 0 0-8.979 4.49 4.49 0 0 0 0 8.979z" fill="#fff"/><path d="M200.388 130.321h-9.43a5.774 5.774 0 0 0-5.774 5.774v9.431a5.774 5.774 0 0 0 5.774 5.774h9.43a5.774 5.774 0 0 0 5.775-5.774v-9.431a5.774 5.774 0 0 0-5.775-5.774zm51.451 127.167h-46.3a2.96 2.96 0 0 0-2.959 2.959v.005a2.959 2.959 0 0 0 2.959 2.959h46.3a2.958 2.958 0 0 0 2.959-2.959v-.005a2.959 2.959 0 0 0-2.959-2.959z" fill="#FFBFBF"/><path d="M232.667 281.073h-7.95a3.925 3.925 0 0 0-3.927 3.924 3.925 3.925 0 0 0 3.927 3.924h7.95a3.925 3.925 0 0 0 3.927-3.924 3.925 3.925 0 0 0-3.927-3.924zM382.304 63.845h-34.296a7.388 7.388 0 0 0-7.387 7.387v34.295a7.388 7.388 0 0 0 7.387 7.388h34.296a7.388 7.388 0 0 0 7.387-7.388V71.232a7.387 7.387 0 0 0-7.387-7.387z" fill="#6D39C4"/><path d="M389.742 63.845h-34.295a7.387 7.387 0 0 0-7.387 7.387v34.295a7.388 7.388 0 0 0 7.387 7.388h34.295a7.388 7.388 0 0 0 7.388-7.388V71.232a7.388 7.388 0 0 0-7.388-7.387z" fill="#925AF0"/><path d="M416.936 137.99a1.718 1.718 0 0 1 1.715 1.453c.026.159.051.323.082.482a10.702 10.702 0 0 0 2.401 4.822c.717.855 1.536 1.633 2.294 2.437a10.237 10.237 0 0 1 2.508 10.387c-.138.486-.309.961-.512 1.424a1.657 1.657 0 0 1-1.757.961 1.658 1.658 0 0 1-1.342-1.169 1.632 1.632 0 0 1 .084-1.134 6.37 6.37 0 0 0 .297-.732c1.024-3.071.317-5.769-2.212-8.053a22.281 22.281 0 0 1-1.802-1.935 1.002 1.002 0 0 0-.164-.148v14.861a7.644 7.644 0 0 1-1.817 5.12c-1.577 1.868-3.584 2.964-6.061 2.923a5.35 5.35 0 0 1-5.304-5.237 7.48 7.48 0 0 1 2.411-5.632 7.625 7.625 0 0 1 4.213-2.17 7.85 7.85 0 0 1 3.159.292l.097.03V139.73a1.743 1.743 0 0 1 .505-1.227 1.734 1.734 0 0 1 1.226-.508l-.021-.005z" fill="#915AEF"/><path d="M431.892 246.972a24.386 24.386 0 0 0-40.678-15.727 24.386 24.386 0 0 0-7.87 15.727h48.548z" fill="#4B37C6"/><path d="M398.19 281.175h43.516a4.395 4.395 0 0 1 4.063 2.715c.221.534.335 1.105.335 1.683v22.444a4.402 4.402 0 0 1-2.715 4.063 4.394 4.394 0 0 1-1.683.334H398.19a14.85 14.85 0 0 1-14.846-14.846v-1.536a14.846 14.846 0 0 1 14.846-14.846v-.011z" fill="#FF802C"/><path d="M366.219 95.196V81.558a1.873 1.873 0 0 1 2.8-1.633l12.036 6.819a1.884 1.884 0 0 1 .95 1.633 1.878 1.878 0 0 1-.95 1.633l-12.01 6.82a1.874 1.874 0 0 1-2.826-1.634z" fill="#fff"/><path d="M109.34 60.374h105.338v48.123a10.754 10.754 0 0 1-10.751 10.75h-83.836a10.75 10.75 0 0 1-10.751-10.75V60.374z" fill="#FFB75A"/><path d="M109.34 60.374l52.669-24.835 52.669 24.835-52.669 30.998-52.669-30.998z" fill="#170278"/><path d="M162.008 91.372l-36.204-21.307v-45.02A4.045 4.045 0 0 1 129.843 21h64.331a4.042 4.042 0 0 1 4.039 4.044v45.02l-36.205 21.308z" fill="#4999F8"/><path d="M165.572 35.54h-28.249a2.723 2.723 0 0 0-2.723 2.723v2.693a2.723 2.723 0 0 0 2.723 2.723h28.249a2.723 2.723 0 0 0 2.724-2.723v-2.693a2.723 2.723 0 0 0-2.724-2.724z" fill="#fff"/><path d="M178.228 55.372h-41.611a2.017 2.017 0 0 0 0 4.034h41.611a2.017 2.017 0 0 0 0-4.034zm-9.297 9.364h-32.314a2.017 2.017 0 1 0 0 4.033h32.314a2.017 2.017 0 1 0 0-4.034z" fill="#257ADE"/><path d="M186.694 35.54h-8.657a2.724 2.724 0 0 0-2.724 2.723v2.693a2.724 2.724 0 0 0 2.724 2.723h8.657a2.724 2.724 0 0 0 2.724-2.723v-2.693a2.724 2.724 0 0 0-2.724-2.724z" fill="#2635C4"/><path d="M40.155 187.745l.44-.22-.44.22zM35 222.814v-26.299 26.299zm39.445-.768c-12.143-5.58-19.1-14.335-20.529-35.504h-2.012a9.966 9.966 0 0 0-9.968 9.973v26.299a9.968 9.968 0 0 0 9.968 9.967h6.353l7.95 11.995.108-4.915a8.558 8.558 0 0 1 4.06-7.09c14.38 0 35.596-.051 35.923-.102a9.97 9.97 0 0 0 8.458-9.855v-1.536c-9.804 2.703-30.692 5.186-40.311.768z" fill="#FFA633"/><path d="M397.404 301.903a5.924 5.924 0 0 0 7.484-.738 5.932 5.932 0 0 0 1.738-4.191 5.931 5.931 0 0 0-7.085-5.814 5.929 5.929 0 0 0-2.137 10.743zM57.59 213.687a4.848 4.848 0 1 0 5.39-8.06 4.848 4.848 0 0 0-5.39 8.06zm18.832.428a4.848 4.848 0 1 0 5.39-8.06 4.848 4.848 0 0 0-5.39 8.06zm18.462 0a4.848 4.848 0 1 0 5.39-8.06 4.848 4.848 0 0 0-5.39 8.06z" fill="#fff"/><path d="M53.333 146.494A2.998 2.998 0 0 0 58 144.003a2.997 2.997 0 0 0-1.85-2.774 3.001 3.001 0 0 0-2.817 5.265zm191.345 179.852a2.996 2.996 0 0 0 3.787-.372 3.003 3.003 0 0 0 .376-3.787 3 3 0 1 0-4.163 4.159zm247.655-138.852a2.998 2.998 0 0 0 4.163-4.158 3.003 3.003 0 0 0-3.079-1.279 3.003 3.003 0 0 0-2.189 4.09 3.001 3.001 0 0 0 1.105 1.347z" fill="#5655E2"/><path d="M167.282 94.75l-5.273-3.127-5.273 3.128-40.72 24.164 9.788.343 36.205-21.39 36.204 21.39 9.789-.343-40.72-24.164z" fill="#FFA633"/><path opacity=".9" d="M153.249 347.406H92.59a.512.512 0 0 1 0-1.024h60.659a.513.513 0 0 1 .362.874.513.513 0 0 1-.362.15zm70.965 0H162.41a.513.513 0 0 1-.362-.874.513.513 0 0 1 .362-.15h61.804a.512.512 0 1 1 0 1.024zm176.552 0h-62.751a.512.512 0 1 1 0-1.024h62.751a.512.512 0 1 1 0 1.024zm-72-.001h-4.751a.512.512 0 1 1 0-1.024h4.751a.512.512 0 1 1 0 1.024zm-8 0h-43.751a.512.512 0 1 1 0-1.024h43.751a.512.512 0 1 1 0 1.024zm155.992.001h-65.632a.512.512 0 1 1 0-1.024h65.632a.512.512 0 1 1 0 1.024z" fill="#20136B"/><path d="M396.459 247.06a18.749 18.749 0 0 0-17.122-11.12 18.746 18.746 0 0 0-17.122 11.12h34.244z" fill="#4B37C6"/><path d="M200.388 164.191h-9.43a5.774 5.774 0 0 0-5.774 5.775v9.43a5.774 5.774 0 0 0 5.774 5.774h9.43a5.774 5.774 0 0 0 5.775-5.774v-9.43a5.774 5.774 0 0 0-5.775-5.775z" fill="#FFBFBF"/><path d="M416.702 166.797c.077-.092.143-.185.215-.277-2.355.343-5.079.553-6.656-.358-2.355-1.362-2.611-4.608-2.007-7.807a9.933 9.933 0 0 0-.511.461 7.482 7.482 0 0 0-2.412 5.631 5.347 5.347 0 0 0 5.294 5.283c2.508.031 4.495-1.065 6.077-2.933z" fill="#6D39C5"/><path d="M112.662 340.366c-2.637-6.788-7.004-17.273-10.239-21.246 19.505 8.924 25.085 27.395 25.085 27.395h-5.861a9.633 9.633 0 0 1-8.985-6.149z" fill="#3623AB"/><path d="M126.055 346.515c-15.251-13.777-10.684-35.176-13.147-50.171 20.411 10.06 28.669 50.171 28.669 50.171h-15.522z" fill="#6174FF"/><path d="M140.041 345.551c-4.5-3.666-13.004-14.97-14.657-18.564-2.145-4.653-3.696-9.573-5.202-14.334-2.129-6.758-4.146-13.142-7.474-17.171l.394-.327c3.394 4.095 5.422 10.536 7.572 17.344 1.495 4.746 3.041 9.651 5.171 14.279 1.597 3.465 10.162 14.846 14.523 18.373l-.327.4z" fill="#fff"/><path d="M184.164 242.534l2.099 84.947h-15.174l-3.681-83.749 16.756-1.198z" fill="#170278"/><path d="M156.284 243.123c-8.237 13.453-6.118 29.549-9.159 47.134l-14.037 29.227 12.45 7.997 15.773-29.775a19.66 19.66 0 0 0 1.731-4.561l12.885-50.038-19.643.016z" fill="#170278"/><path d="M144.524 326.831l-4.561 9.957a2.954 2.954 0 0 0 .558 3.287c1.402 1.459 3.394 3.501 3.583 3.619.451.246 1.101.625 1.767 1.024a.954.954 0 0 1 .076 1.588.947.947 0 0 1-.588.183h-4.27c-2.56 0-5.375-2.606-7.433-4.152-.681-.512-2.908-2.047-4.966-3.455a5.48 5.48 0 0 1-1.813-6.973l6.21-12.435 11.437 7.357zm76.689-144.553c2.074-3.584 6.143-8.657 6.916-11.775.512-2.048-.767-2.304-1.264-1.848.875-1.597-1.536-3.348-2.119-2.13.302-.982-1.664-2.59-2.417-1.469.067-.512 1.853-4.433 1.843-4.786-.051-1.398-.676-1.598-1.356-1.357-1.26.834-4.961 9.691-4.961 9.691s-.415-2.908-1.428-3.988a2.213 2.213 0 0 0-.957-.675 2.21 2.21 0 0 0-1.168-.088s1.408 5.329.512 8.15c-.512 1.644.558 4.06.558 4.06l-1.31 2.36 7.151 3.855zm-49.305 145.203v14.452a4.567 4.567 0 0 0 4.572 4.567h17.094a1.797 1.797 0 0 0 1.263-.524 1.778 1.778 0 0 0 .523-1.263 1.775 1.775 0 0 0-1.535-1.761c-1.731-.271-4.531-.881-6.052-2.125-1.438-1.172-2.692-4.633-2.692-4.633l-.43-8.703-12.743-.01z" fill="#FFB75A"/><path d="M214.809 176.831l-14.81 24.01-11.396-4.049a27.674 27.674 0 0 0-4.879-1.326l-16.06-3.072-17.119 4.459a14.071 14.071 0 0 0-7.244 4.577l-9.548 13.587a10.852 10.852 0 0 0-1.198 12.199l10.792 23.591 7.848-4.3-7.167-23.202 6.179-7.556 6.097 27.374s8.437.512 15.328.645a61.82 61.82 0 0 0 12.553-1.234l1.351-30.568 14.591 2.221a10.754 10.754 0 0 0 11.534-6.583l10.894-27.266-7.746-3.507z" fill="#4999F8"/><path d="M174.218 186.358c3.184-2.268 1.735-11.375.629-15.297-10.387 2.217-11.841 2.452-11.841 2.452l-.251 9.973s.85-.512.865-.512l-.384 10.71s.727 1.536 4.92 1.705c4.505.179 6.077-1.766 6.077-1.766l-.87-6.866c.306-.081.595-.216.855-.399z" fill="#FFB75A"/><path d="M144.55 225.056c.03.102-6.108-2.391-6.108-2.391l5.565.64.543 1.751zm16.596-45.609c-1.955-6.415 0-7.342 1.244-8.908 1.244-1.567 13.593-7.495 15.18-6.845 1.587.65-2.253 8.667-2.253 8.667s-5.534-.235-9.107 1.777c-1.337.752-1.024 3.42-1.024 3.42s-2.422-1.024-2.391.983c.031 2.006 1.986 4.3 1.986 4.3l-1.239 2.114-2.396-5.508zm38.853 21.394l1.074 3.86-2.549-4.387 1.475.527zm-31.716-15.312c1.848 1.059 5.079 1.228 5.079 1.228l.23 1.813s-2.478-.297-3.583-1.536a7.033 7.033 0 0 0-1.726-1.505z" fill="#170278"/><path d="M136.563 321.675l-.46-.22c.573-1.193 14.047-29.283 14.846-30.205.223-.247.478-.464.758-.645.512-.353.757-.512.43-1.459-.594-1.689 3.317-38.908 6.363-43.111l.415.297c-3.015 4.178-6.881 40.956-6.292 42.645.451 1.296-.072 1.659-.624 2.048a3.245 3.245 0 0 0-.661.558c-.573.655-9.148 18.353-14.775 30.092z" fill="#fff"/><path d="M143.895 250.51c1.756 3.42 4.402 10.428 6.071 11.498 1.669 1.07 1.188-1.536 1.091-2.165a12.824 12.824 0 0 0 1.72 2.616c1.054 1.023 1.536.512 1.464-.681a7.89 7.89 0 0 0-.691-2.463c2.411 3.927 3.583 3.338 3.522 2.017-.031-.634-1.024-2.513-1.628-3.583.681.583 1.608 1.536 2.002 1.648a.782.782 0 0 0 1.116-.63c0-1.387-3.215-5.631-3.215-5.631s2.462 1.172 3.814.957a1.99 1.99 0 0 0 1.664-1.228s-4.849-1.654-6.589-3.778c-1.024-1.239-3.435-1.654-3.435-1.654l-.123-.681-6.783 3.758z" fill="#FFB75A"/><path d="M296.333 39.494a3 3 0 1 0 3.334-4.988 3 3 0 0 0-3.334 4.988z" fill="#5655E2"/><path d="M451 6l-16 8v11l16-8V6zM35 356l-16 8v11l16-8v-11z" fill="#fff"/></svg>