<svg width="64" height="64" viewBox="0 0 64 64" fill="none" xmlns="http://www.w3.org/2000/svg"><path d="M26.994 26.359a3.211 3.211 0 0 1 1.813-.912.703.703 0 0 0-.206-1.391c-.992.147-1.892.6-2.6 1.309l-4.055 4.054a4.654 4.654 0 0 0 0 6.573 4.633 4.633 0 0 0 3.287 1.36c1.19 0 2.38-.453 3.287-1.36l4.053-4.054a4.613 4.613 0 0 0 1.295-2.506.703.703 0 0 0-1.387-.234 3.214 3.214 0 0 1-.902 1.746l-4.054 4.054a3.245 3.245 0 0 1-4.585 0 3.246 3.246 0 0 1 0-4.585l4.054-4.054z" fill="#499AF9"/><path d="M36.244 27.174a.703.703 0 1 0-1.376.29 5.698 5.698 0 0 1-1.545 5.224l-4.054 4.054a5.67 5.67 0 0 1-4.036 1.669 5.669 5.669 0 0 1-4.036-1.67 5.714 5.714 0 0 1 0-8.072l4.054-4.053a5.738 5.738 0 0 1 5.478-1.486.702.702 0 1 0 .353-1.36 7.15 7.15 0 0 0-6.825 1.851l-4.054 4.054a7.065 7.065 0 0 0-2.08 5.03c0 1.903.738 3.69 2.08 5.031a7.066 7.066 0 0 0 5.03 2.08 7.065 7.065 0 0 0 5.03-2.08l4.055-4.053a7.099 7.099 0 0 0 1.926-6.509z" fill="#499AF9"/><path d="M37.006 32.872a3.22 3.22 0 0 1-1.676.889.703.703 0 1 0 .266 1.38A4.619 4.619 0 0 0 38 33.867l4.053-4.054a4.654 4.654 0 0 0 0-6.574 4.654 4.654 0 0 0-6.573 0l-4.054 4.054a4.643 4.643 0 0 0-1.2 2.078.704.704 0 0 0 1.358.364 3.232 3.232 0 0 1 .836-1.447l4.054-4.054a3.247 3.247 0 0 1 4.585 0 3.246 3.246 0 0 1 0 4.585l-4.054 4.054z" fill="#499AF9"/><path d="M43.799 21.495c-2.774-2.774-7.288-2.774-10.061 0l-4.054 4.053a7.087 7.087 0 0 0-1.905 6.607.703.703 0 0 0 1.371-.31 5.688 5.688 0 0 1 1.528-5.302l4.054-4.054a5.715 5.715 0 0 1 8.072 0 5.714 5.714 0 0 1 0 8.072l-4.053 4.054a5.684 5.684 0 0 1-5.358 1.515.703.703 0 1 0-.324 1.369 7.224 7.224 0 0 0 1.664.195c1.863 0 3.658-.73 5.012-2.085l4.053-4.053a7.12 7.12 0 0 0 0-10.061z" fill="#499AF9"/><path d="M5.844 44.75a.703.703 0 0 0 .703-.703V14.234c0-.387.315-.703.703-.703h49.5c.388 0 .703.316.703.703v29.813a.703.703 0 1 0 1.406 0V14.234a2.111 2.111 0 0 0-2.109-2.109H7.25c-1.163 0-2.11.946-2.11 2.11v29.812c0 .388.315.703.704.703z" fill="#293659"/><path d="M9.594 15.64a.703.703 0 0 0-.703.704v26.718c0 .389.314.704.703.704h44.812a.703.703 0 0 0 .703-.703v-26.72a.703.703 0 0 0-.703-.702H9.594zm44.11 26.72H10.296V17.046h43.406v25.312z" fill="#B8C0D4"/><path d="M60.36 45.875H3.64c-1.653 0-3 1.346-3 3s1.346 3 3 3h56.72c1.654 0 3-1.346 3-3s-1.346-3-3-3zm0 4.594H3.64a1.596 1.596 0 0 1-1.593-1.594c0-.879.715-1.594 1.594-1.594H60.36a1.595 1.595 0 0 1-.001 3.188z" fill="#293659"/></svg>