<svg width="64" height="64" viewBox="0 0 64 64" fill="none" xmlns="http://www.w3.org/2000/svg"><path d="M32 59.757a.703.703 0 0 1-.703-.703v-4.219a.703.703 0 0 1 1.406 0v4.219a.703.703 0 0 1-.703.703z" fill="#B8C0D4"/><path d="M53.059 55.538H10.94a.703.703 0 0 1 0-1.406h42.12a.703.703 0 0 1 0 1.406z" fill="#B8C0D4"/><path d="M60.618 62.007H3.383a.704.704 0 0 1-.645-.984l5.625-12.938a.703.703 0 0 1 .645-.422h12.493a.703.703 0 0 1 0 1.407H9.469L4.456 60.6h55.09l-5.014-11.53H42.5a.703.703 0 0 1 0-1.407h12.493a.703.703 0 0 1 .645.422l5.625 12.938a.703.703 0 0 1-.645.984z" fill="#B8C0D4"/><path d="M32 55.914a.7.7 0 0 1-.478-.187c-.178-.165-4.407-4.104-8.7-10.502-3.973-5.923-8.71-15.129-8.71-25.344a17.888 17.888 0 0 1 35.778 0c0 10.215-4.738 19.42-8.712 25.344-4.293 6.398-8.522 10.337-8.7 10.502a.7.7 0 0 1-.478.187zm0-52.515A16.501 16.501 0 0 0 15.519 19.88c0 17.08 13.725 31.604 16.48 34.349 2.757-2.745 16.482-17.269 16.482-34.349A16.5 16.5 0 0 0 32 3.4z" fill="#293659"/><path d="M27 17l10 10m0-10L27 27" stroke="#EE665E" stroke-width="1.5"/></svg>