<svg width="64" height="64" viewBox="0 0 64 64" fill="none" xmlns="http://www.w3.org/2000/svg"><path d="M48.11 29.923c0-8.673-7.244-15.73-16.148-15.73s-16.149 7.057-16.149 15.73a.703.703 0 0 0 .83.692c3.595-.653 7.425-1.983 9.11-6.716 3.784 4.25 11.058 7.066 17.813 7.066 1.355 0 2.689-.113 3.97-.35a.703.703 0 0 0 .574-.692zm-22.075-7.92a.703.703 0 0 0-1.256.242c-.935 3.872-3.075 5.835-7.533 6.815.461-7.498 6.885-13.461 14.716-13.461 7.925 0 14.41 6.107 14.73 13.732-7.619 1.164-16.954-2.114-20.657-7.328z" fill="#454545"/><path d="M46.445 34.624a19.524 19.524 0 0 1-.993 3.75.703.703 0 1 0 1.316.496c.484-1.287.842-2.64 1.065-4.022a.703.703 0 1 0-1.388-.224z" fill="#293659"/><path d="M35.836 48.107c-1.256.401-2.56.605-3.873.605-7.075 0-13.166-5.925-14.483-14.088a.704.704 0 0 0-1.389.224c1.428 8.848 8.103 15.27 15.872 15.27a14.1 14.1 0 0 0 4.301-.672.703.703 0 0 0-.428-1.34z" fill="#454545"/><path d="M33.246 51.49h-2.567a3.22 3.22 0 0 0-3.122 2.454 16.363 16.363 0 0 1-15.021-15.937h1.988a.703.703 0 0 0 .703-.703v-9.875a.703.703 0 0 0-.704-.703h-1.98c.37-8.723 7.58-15.705 16.392-15.705h6.055c8.812 0 16.021 6.982 16.391 15.705h-1.98a.703.703 0 0 0-.703.703v9.875c0 .388.315.703.703.703h5.402a.703.703 0 0 0 .703-.703v-9.875a.703.703 0 0 0-.703-.703h-2.016c-.37-9.498-8.21-17.112-17.797-17.112h-6.055c-9.588 0-17.427 7.614-17.797 17.112H9.121a.703.703 0 0 0-.703.703v9.875c0 .388.315.703.703.703h2.008c.207 9.166 7.285 16.635 16.396 17.344a3.223 3.223 0 0 0 3.153 2.574h2.567a3.22 3.22 0 0 0 3.218-3.217 3.222 3.222 0 0 0-3.218-3.218zM54.099 36.6h-3.995v-8.468H54.1V36.6zM9.825 28.132h3.995v8.469H9.825v-8.469zm23.42 28.387H30.68a1.813 1.813 0 0 1-1.811-1.811c0-1 .812-1.812 1.81-1.812h2.568c.998 0 1.811.813 1.811 1.812 0 .998-.813 1.81-1.811 1.81z" fill="#B8C0D4"/><path d="M47.407 40.213c-5.074 0-9.202 4.128-9.202 9.202s4.128 9.202 9.202 9.202 9.201-4.128 9.201-9.202-4.127-9.202-9.201-9.202zm0 16.997c-4.299 0-7.796-3.497-7.796-7.795s3.497-7.795 7.796-7.795c4.298 0 7.795 3.497 7.795 7.795s-3.497 7.795-7.795 7.795z" fill="#4B37C6"/><path d="M47.852 53.26l-4.29-4.29a2.378 2.378 0 0 1 0-3.362l.504-.504c.18-.18.473-.18.654 0l1.858 1.858c.18.181.18.474 0 .654l-.49.49a.462.462 0 0 0 0 .655l1.974 1.974c.18.18.473.18.654 0l.49-.49a.462.462 0 0 1 .654 0l1.859 1.858c.18.18.18.473 0 .654l-.504.504a2.378 2.378 0 0 1-3.363 0z" fill="#4B37C6"/></svg>