<svg width="64" height="64" viewBox="0 0 64 64" fill="none" xmlns="http://www.w3.org/2000/svg"><circle cx="32" cy="32" r="32" fill="#F0F3FD"/><path d="M18.575 17.262a3.222 3.222 0 1 1 0-6.444 3.222 3.222 0 0 1 0 6.444zm0-5.038a1.817 1.817 0 1 0 .001 3.634 1.817 1.817 0 0 0-.001-3.635zm19.213 5.038H35.29a.703.703 0 0 1-.703-.703V11.52a.703.703 0 0 1 .703-.703h2.499a.703.703 0 0 1 .703.703v5.04a.702.702 0 0 1-.704.703zm-1.795-1.406h1.092v-3.633h-1.092v3.633zm6.53 1.406h-2.499a.703.703 0 0 1-.703-.703V11.52a.703.703 0 0 1 .703-.703h2.5a.703.703 0 0 1 .702.703v5.04a.703.703 0 0 1-.703.703zm-1.796-1.406h1.093v-3.633h-1.093v3.633zm6.53 1.406H44.76a.703.703 0 0 1-.703-.703V11.52a.703.703 0 0 1 .703-.703h2.498a.703.703 0 0 1 .704.703v5.04a.703.703 0 0 1-.704.703zm-1.795-1.406h1.092v-3.633h-1.092v3.633zM18.575 35.222a3.223 3.223 0 1 1 0-6.445 3.223 3.223 0 0 1 0 6.445zm0-5.038a1.816 1.816 0 1 0 0 3.632 1.816 1.816 0 0 0 0-3.632zm19.213 5.038H35.29a.703.703 0 0 1-.703-.703v-5.038a.703.703 0 0 1 .703-.704h2.499a.703.703 0 0 1 .703.703v5.04a.703.703 0 0 1-.704.702zm-1.795-1.406h1.092v-3.632h-1.092v3.632zm6.53 1.406h-2.499a.703.703 0 0 1-.703-.703v-5.038a.703.703 0 0 1 .703-.704h2.5a.703.703 0 0 1 .702.703v5.04a.703.703 0 0 1-.703.702zm-1.796-1.406h1.093v-3.632h-1.093v3.632zm6.53 1.406H44.76a.703.703 0 0 1-.703-.703v-5.038a.703.703 0 0 1 .703-.704h2.498a.703.703 0 0 1 .704.703v5.04a.703.703 0 0 1-.704.702zm-1.795-1.406h1.092v-3.632h-1.092v3.632zM18.575 53.183a3.223 3.223 0 1 1 0-6.445 3.223 3.223 0 0 1 0 6.445zm0-5.039a1.817 1.817 0 1 0 .001 3.634 1.817 1.817 0 0 0-.001-3.634z" fill="#B8C0D4"/><path fill-rule="evenodd" clip-rule="evenodd" d="M54.255 45.727c-.178-1.555-1.532-2.053-3.232-2.172l-.037-2.16-1.316.022.037 2.104c-.346.006-.699.019-1.05.032l-.036-2.117-1.315.023.037 2.16c-.285.01-.564.02-.837.025v-.006l-1.814.03.025 1.405s.97-.035.955-.017c.533-.01.712.297.767.563l.042 2.461c.037 0 .085 0 .14.007l-.139.002.06 3.448c-.02.168-.115.437-.487.444.017.015-.956.017-.956.017l-.234 1.575 1.712-.03c.193-.003.385-.004.574-.005l.365-.003.039 2.185 1.314-.023-.038-2.162c.36.001.71-.002 1.05-.008l.038 2.152 1.315-.023-.038-2.181c2.21-.166 3.747-.75 3.903-2.829.126-1.674-.673-2.407-1.934-2.686.756-.403 1.22-1.095 1.09-2.233zm-1.756 4.702c.027 1.499-2.329 1.507-3.406 1.51-.096.001-.183.001-.256.003l-.05-2.895c.09-.002.199-.006.322-.011 1.103-.046 3.363-.139 3.39 1.393zm-3.513-2.708c.9 0 2.86-.003 2.836-1.364-.024-1.393-1.908-1.31-2.828-1.27a10.7 10.7 0 0 1-.27.01l.046 2.626.216-.002z" fill="#4B37C6"/><path d="M38.844 56.328H13.322a.612.612 0 0 1-.612-.612v-11.51a.612.612 0 0 1 .612-.612h23.787a.703.703 0 0 0 0-1.406H18.634v-2.413h21.39a.703.703 0 0 0 0-1.406H13.323a.612.612 0 0 1-.612-.612V26.245a.612.612 0 0 1 .612-.612h37.356a.612.612 0 0 1 .612.612v8.663a.703.703 0 1 0 1.406 0v-8.663a2.02 2.02 0 0 0-2.018-2.018h-3.906v-2.414h3.906a2.02 2.02 0 0 0 2.018-2.018V8.284a2.02 2.02 0 0 0-2.018-2.018H13.322a2.02 2.02 0 0 0-2.018 2.018v11.51a2.02 2.02 0 0 0 2.018 2.018h3.906v2.413h-3.906a2.02 2.02 0 0 0-2.018 2.018v11.512a2.02 2.02 0 0 0 2.018 2.018h3.906v2.412h-3.906a2.02 2.02 0 0 0-2.018 2.019v11.511a2.02 2.02 0 0 0 2.018 2.018h25.522a.703.703 0 1 0 0-1.406v.001zM12.71 19.794V8.284a.612.612 0 0 1 .612-.612h37.356a.612.612 0 0 1 .612.612v11.51a.612.612 0 0 1-.612.612H13.322a.612.612 0 0 1-.612-.612zm5.924 2.018h26.732v2.413H18.634v-2.413z" fill="#293659"/><path d="M49.944 36.36a12.45 12.45 0 1 0 12.45 12.45 12.464 12.464 0 0 0-12.45-12.45zm0 23.494A11.044 11.044 0 1 1 60.987 48.81a11.056 11.056 0 0 1-11.044 11.044z" fill="#4B37C6"/></svg>