<svg width="64" height="64" viewBox="0 0 64 64" fill="none" xmlns="http://www.w3.org/2000/svg"><path d="M32 26.85a.703.703 0 0 1-.703-.703V18.64a.703.703 0 0 1 1.406 0v7.506a.703.703 0 0 1-.703.703zm-15.272 1.738a.703.703 0 0 1-.546-1.145L23.65 18.2a.704.704 0 0 1 1.094.883l-7.468 9.245a.701.701 0 0 1-.548.261zm30.383-.198a.701.701 0 0 1-.547-.26l-7.308-9.047a.703.703 0 1 1 1.094-.884l7.308 9.048a.704.704 0 0 1-.547 1.145v-.001z" fill="#B8C0D4"/><path d="M26.769 19.344a.703.703 0 0 1-.681-.878l1.604-6.27a.703.703 0 0 1 1.363.348l-1.605 6.271a.703.703 0 0 1-.681.529zm10.463 0a.703.703 0 0 1-.68-.53l-1.606-6.27a.703.703 0 1 1 1.362-.348l1.605 6.27a.704.704 0 0 1-.681.878z" fill="#F2AF60"/><path d="M45.66 47.4a.703.703 0 0 1-.625-1.025l2.957-5.769a.703.703 0 1 1 1.25.642l-2.955 5.77a.703.703 0 0 1-.627.382zm-27.32 0a.703.703 0 0 1-.626-.383l-2.957-5.767a.702.702 0 0 1 1.081-.857.71.71 0 0 1 .17.215l2.957 5.768a.703.703 0 0 1-.625 1.024zm20.185 0a.703.703 0 0 1-.626-.383l-2.956-5.765a.703.703 0 1 1 1.251-.642l2.956 5.766a.703.703 0 0 1-.625 1.024zm-13.05 0a.703.703 0 0 1-.625-1.024l2.94-5.734a.702.702 0 0 1 1.329.377.704.704 0 0 1-.078.265l-2.94 5.735a.704.704 0 0 1-.626.381z" fill="#B8C0D4"/><path d="M24.197 19.344h15.607a.702.702 0 0 0 .681-.878l-2.182-8.525a2.467 2.467 0 0 0-2.391-1.856h-.429a4.173 4.173 0 1 0-6.965 0h-.429A2.467 2.467 0 0 0 25.7 9.94l-2.183 8.525a.703.703 0 0 0 .681.878zm2.864-9.054a1.06 1.06 0 0 1 1.028-.799h2.165a.703.703 0 0 0 .354-1.31 2.767 2.767 0 1 1 2.784 0 .703.703 0 0 0 .355 1.31h2.165a1.061 1.061 0 0 1 1.029.799l1.957 7.647H25.103l1.958-7.647z" fill="#F2AF60"/><path d="M20.34 33.969a8.525 8.525 0 1 0-8.525 8.525 8.534 8.534 0 0 0 8.525-8.525zm-8.525 7.118a7.119 7.119 0 1 1 7.119-7.118 7.127 7.127 0 0 1-7.119 7.118zm28.711-7.118A8.524 8.524 0 1 0 32 42.494a8.534 8.534 0 0 0 8.525-8.525zM32 41.087a7.119 7.119 0 1 1 7.118-7.118A7.127 7.127 0 0 1 32 41.087zm20.185-15.643a8.526 8.526 0 1 0 8.525 8.525 8.535 8.535 0 0 0-8.525-8.525zm0 15.643a7.119 7.119 0 1 1 7.119-7.118 7.126 7.126 0 0 1-7.119 7.118zm-30.277 4.044a8.524 8.524 0 1 0 8.525 8.525 8.535 8.535 0 0 0-8.525-8.525zm0 15.644a7.119 7.119 0 1 1 7.118-7.119 7.127 7.127 0 0 1-7.118 7.119zm20.185-15.644a8.525 8.525 0 1 0 8.526 8.525 8.535 8.535 0 0 0-8.526-8.525zm0 15.644a7.12 7.12 0 1 1 7.12-7.119 7.127 7.127 0 0 1-7.12 7.119z" fill="#293659"/><path d="M23.596 52.251l-2.268 2.269-1.11-1.11a.702.702 0 1 0-.994.995l1.607 1.606a.703.703 0 0 0 .994 0l2.766-2.766a.703.703 0 1 0-.995-.994zm20.186 0l-2.269 2.269-1.109-1.11a.704.704 0 0 0-1.209.495.704.704 0 0 0 .215.5l1.606 1.606a.703.703 0 0 0 .994 0l2.766-2.766a.703.703 0 1 0-.994-.994zM8.88 33.153h4.36a.703.703 0 0 0 0-1.406H8.88a.703.703 0 0 0 0 1.406zm5.871 1.631H8.88a.703.703 0 0 0 0 1.406h5.871a.703.703 0 1 0 0-1.406zm14.313-1.631h4.36a.703.703 0 1 0 0-1.406h-4.36a.703.703 0 1 0 0 1.406zm5.872 1.631h-5.872a.703.703 0 1 0 0 1.406h5.872a.703.703 0 1 0 0-1.406zm14.314-1.631h4.36a.703.703 0 0 0 0-1.406h-4.36a.703.703 0 0 0 0 1.406zm5.871 1.631H49.25a.703.703 0 0 0 0 1.406h5.871a.703.703 0 1 0 0-1.406z" fill="#B8C0D4"/></svg>