<svg width="64" height="64" viewBox="0 0 64 64" fill="none" xmlns="http://www.w3.org/2000/svg"><path d="M46.766 25.097c-.26 0-.52-.08-.742-.242l-2.17-1.576-2.171 1.576a1.26 1.26 0 0 1-1.484 0 1.259 1.259 0 0 1-.459-1.411l.83-2.552-2.171-1.577a1.26 1.26 0 0 1-.459-1.411 1.26 1.26 0 0 1 1.201-.873h2.683l.83-2.552a1.26 1.26 0 0 1 1.2-.872c.549 0 1.031.35 1.2.872l.83 2.552h2.683c.549 0 1.031.35 1.2.873a1.26 1.26 0 0 1-.458 1.411l-2.17 1.577.828 2.552a1.26 1.26 0 0 1-.458 1.412 1.26 1.26 0 0 1-.743.241zm-2.912-3.26c.26 0 .52.081.742.243l1.897 1.378-.724-2.23a1.259 1.259 0 0 1 .458-1.412l1.898-1.378h-2.346a1.26 1.26 0 0 1-1.2-.872l-.725-2.231-.725 2.23a1.26 1.26 0 0 1-1.2.873h-2.346l1.898 1.378c.443.322.627.89.458 1.412l-.725 2.23 1.898-1.378a1.26 1.26 0 0 1 .742-.242zm4.713-3.4h.002-.002zm-4.85-3.523z" fill="#499AF9"/><path d="M30.327 52.228a.703.703 0 1 1 0-1.407c12.468 0 22.611-10.143 22.611-22.61a.703.703 0 1 1 1.406 0c0 13.243-10.774 24.017-24.017 24.017z" fill="#B8C0D4"/><path d="M29.1 26c1.725-1.75 2.319-4.534 2.512-6.562a.885.885 0 0 1 .58-.763c.315-.12.65-.07.914.133.328.589 2.102 4.039.598 7.44a.703.703 0 1 0 1.286.568c1.948-4.404-.627-8.655-.738-8.834a.703.703 0 0 0-.12-.146 2.343 2.343 0 0 0-2.441-.475 2.301 2.301 0 0 0-1.479 1.942c-.172 1.801-.678 4.253-2.114 5.708-1.5 1.52-4.342 4.049-5.939 5.452v-.48a.703.703 0 0 0-.703-.703h-6.583a.703.703 0 0 0-.703.703V42.98c0 .388.315.703.703.703h6.583a.703.703 0 0 0 .704-.703V32.332c1.032-.897 5.005-4.373 6.94-6.333zm-8.347 16.277h-5.177v-11.59h5.177v11.59z" fill="#293659"/><path d="M40.416 28.074h-7.038a2.195 2.195 0 0 0-2.192 2.192v9.029a.703.703 0 1 0 1.406 0v-9.03c0-.433.353-.785.786-.785h7.038c.433 0 .786.352.786.786V41.49a.787.787 0 0 1-.786.786h-8.457l-7.727-1.55a.704.704 0 0 0-.277 1.379l7.796 1.564a.714.714 0 0 0 .138.014h8.527a2.195 2.195 0 0 0 2.192-2.193V30.266a2.194 2.194 0 0 0-2.192-2.192z" fill="#293659"/><path d="M32 3.586c-14.5 0-26.297 11.797-26.297 26.297 0 7.95 3.522 15.349 9.68 20.373l-2.616 9.264a.703.703 0 0 0 .957.835l11.588-5.04c2.187.574 4.435.865 6.688.865 14.5 0 26.297-11.797 26.297-26.297S46.5 3.586 32 3.586zm0 51.188c-2.21 0-4.417-.296-6.559-.88a.702.702 0 0 0-.465.034l-10.453 4.546 2.34-8.284a.703.703 0 0 0-.242-.744c-6.045-4.758-9.512-11.89-9.512-19.563C7.11 16.16 18.275 4.993 32 4.993c13.725 0 24.89 11.166 24.89 24.89 0 13.725-11.165 24.89-24.89 24.89z" fill="#B8C0D4"/></svg>