<svg width="64" height="64" viewBox="0 0 64 64" fill="none" xmlns="http://www.w3.org/2000/svg"><path d="M32 17.64a.703.703 0 0 0-.703.703v27.314a.703.703 0 0 0 1.406 0V18.343A.703.703 0 0 0 32 17.64zm-5.93-6.846H11.497a.703.703 0 0 0-.703.703v13.657a.703.703 0 0 0 1.406 0V12.2h13.871a.703.703 0 1 0 0-1.406zm26.433 0H37.93a.703.703 0 0 0 0 1.406H51.8v12.954a.703.703 0 1 0 1.406 0V11.497a.703.703 0 0 0-.703-.703z" fill="#293659"/><path d="M52.504 38.144a.703.703 0 0 0-.703.703v1.688a.703.703 0 0 0 1.406 0v-1.688a.703.703 0 0 0-.703-.703zm0 5.115a.703.703 0 0 0-.703.703v3.427a.703.703 0 0 0 1.406 0v-3.427a.703.703 0 0 0-.703-.703zm0 6.853a.703.703 0 0 0-.703.704v.984h-.985a.703.703 0 0 0 0 1.406h1.688a.703.703 0 0 0 .703-.703v-1.687a.703.703 0 0 0-.703-.704zm-5.42 1.688H43.35a.703.703 0 0 0 0 1.406h3.733a.703.703 0 0 0 0-1.406zm-7.466 0h-1.687a.703.703 0 1 0 0 1.406h1.687a.703.703 0 0 0 0-1.406zM11.497 41.238a.703.703 0 0 0 .703-.703v-1.688a.703.703 0 0 0-1.406 0v1.688a.703.703 0 0 0 .703.703zm0 6.855a.703.703 0 0 0 .703-.704v-3.427a.703.703 0 1 0-1.406 0v3.427a.703.703 0 0 0 .703.704zm1.688 3.707H12.2v-.984a.703.703 0 0 0-1.406 0v1.687a.703.703 0 0 0 .703.703h1.688a.703.703 0 0 0 0-1.406zm7.465 0h-3.734a.703.703 0 0 0 0 1.406h3.733a.703.703 0 0 0 0-1.406zm5.42 0h-1.687a.703.703 0 0 0 0 1.406h1.687a.703.703 0 0 0 0-1.406z" fill="#B8C0D4"/><path d="M38.282 7.463l-5.93-3.423a.703.703 0 0 0-.703 0l-5.93 3.423a.704.704 0 0 0-.352.61v6.846a.703.703 0 0 0 .352.609l5.93 3.424a.703.703 0 0 0 .703 0l5.93-3.424a.703.703 0 0 0 .351-.609V8.072a.703.703 0 0 0-.351-.609zM32 5.46l4.524 2.612L32 10.684l-4.523-2.612L32 5.46zm0 12.07l-5.227-3.017V9.29l4.876 2.815a.702.702 0 0 0 .703 0l4.875-2.815v5.223L32 17.531zm6.282 30.942l-5.93-3.424a.703.703 0 0 0-.703 0l-5.93 3.424a.703.703 0 0 0-.352.609v6.847a.703.703 0 0 0 .352.609l5.93 3.424a.703.703 0 0 0 .703 0l5.93-3.424a.703.703 0 0 0 .351-.61v-6.846a.703.703 0 0 0-.351-.609zM32 46.469l4.524 2.612L32 51.693l-4.523-2.612L32 46.469zm0 12.07l-5.227-3.017V50.3l4.876 2.814a.702.702 0 0 0 .703 0l4.875-2.814v5.223L32 58.54zm26.785-30.571l-5.93-3.424a.703.703 0 0 0-.702 0l-5.93 3.424a.703.703 0 0 0-.352.608v6.848a.703.703 0 0 0 .352.609l5.93 3.423a.703.703 0 0 0 .703 0l5.93-3.423a.703.703 0 0 0 .351-.61v-6.847a.703.703 0 0 0-.352-.608zm-6.282-2.003l4.524 2.611-4.524 2.612-4.524-2.611 4.524-2.612zm0 12.07l-5.226-3.017v-5.224l4.876 2.815a.703.703 0 0 0 .703 0l4.875-2.815v5.224l-5.228 3.017zM17.777 27.968l-5.93-3.424a.703.703 0 0 0-.703 0l-5.93 3.424a.703.703 0 0 0-.352.608v6.848a.703.703 0 0 0 .352.609l5.93 3.423a.703.703 0 0 0 .703 0l5.93-3.423a.703.703 0 0 0 .351-.61v-6.847a.703.703 0 0 0-.351-.608zm-6.28-2.003l4.523 2.611-4.524 2.612-4.523-2.611 4.523-2.612zm0 12.07l-5.228-3.017v-5.224l4.875 2.815a.703.703 0 0 0 .703 0l4.875-2.815v5.224l-5.226 3.017z" fill="#EE665E"/></svg>