<svg width="64" height="64" viewBox="0 0 64 64" fill="none" xmlns="http://www.w3.org/2000/svg"><circle cx="32" cy="32" r="32" fill="#F0F3FD"/><path d="M14.167 23.92a.704.704 0 0 1-.65-.973l2.818-6.77a.705.705 0 0 1 1.303 0 .703.703 0 0 1-.005.541l-2.817 6.77a.704.704 0 0 1-.65.432zm7.019-.023a.703.703 0 0 1-.498-1.2l2.865-2.865-2.865-2.864a.703.703 0 0 1 .995-.995l3.362 3.362a.703.703 0 0 1 0 .994l-3.362 3.362a.699.699 0 0 1-.497.206zm-11.222 0a.7.7 0 0 1-.497-.206L6.105 20.33a.703.703 0 0 1 0-.995l3.362-3.362a.703.703 0 0 1 .994.995l-2.864 2.864 2.864 2.865a.704.704 0 0 1-.497 1.2zm-.401 6.22h-2.96a.703.703 0 1 1 0-1.406h2.96a.703.703 0 0 1 0 1.406zm0 12.406h-2.96a.703.703 0 1 1 0-1.406h2.96a.703.703 0 0 1 0 1.406z" fill="#F2AF60"/><path d="M12.376 30.117h10.5a.703.703 0 1 0 0-1.406h-10.5a.703.703 0 0 0 0 1.406zm0 12.406h2.437a.703.703 0 1 0 0-1.406h-2.437a.703.703 0 0 0 0 1.406zm11.694-1.406h-6.444a.703.703 0 0 0 0 1.406h6.444a.703.703 0 1 0 0-1.406zm-2.154 5.541a.703.703 0 0 0 0-1.406h-9.54a.703.703 0 1 0 0 1.406h9.54zm-9.54-12.406h5.86a.703.703 0 0 0 0-1.406h-5.86a.703.703 0 0 0 0 1.406zm7.969-.702a.703.703 0 0 0 .703.702h7.362a.703.703 0 0 0 0-1.406h-7.362a.703.703 0 0 0-.703.703zm-7.969 4.838h5.86a.703.703 0 0 0 0-1.407h-5.86a.703.703 0 0 0 0 1.407zm13.864-1.407h-5.192a.703.703 0 1 0 0 1.407h5.192a.703.703 0 0 0 0-1.407z" fill="#B8C0D4"/><path d="M62.688 8.516H1.312a.703.703 0 0 0-.703.703V54.78a.703.703 0 0 0 .704.703h61.375a.703.703 0 0 0 .703-.703V9.22a.703.703 0 0 0-.703-.703zM2.016 9.922h40.81l-23.17 44.156H2.017V9.922zm59.969 44.156h-40.74L44.413 9.922h17.572v44.156z" fill="#293659"/><path d="M51.078 36.023V34.83a4.135 4.135 0 0 0-8.266 0v1.192a1.767 1.767 0 0 0-1.15 1.653v7.031a1.768 1.768 0 0 0 1.767 1.767h7.03a1.768 1.768 0 0 0 1.768-1.767v-7.031a1.768 1.768 0 0 0-1.149-1.653zm-6.86-1.192a2.728 2.728 0 0 1 5.454 0v1.078h-5.454v-1.078zm6.604 9.877a.36.36 0 0 1-.361.36H43.43a.361.361 0 0 1-.36-.36v-7.03a.36.36 0 0 1 .36-.361h7.031a.36.36 0 0 1 .36.36v7.031z" fill="#F2AF60"/><path d="M46.944 38.568a1.749 1.749 0 0 0-.703 3.35v1.288a.703.703 0 1 0 1.406 0v-1.289a1.748 1.748 0 0 0-.703-3.35v.001zm0 1.406a.343.343 0 1 1 0 .687.343.343 0 0 1 0-.687z" fill="#F2AF60"/><path d="M46.944 26.36a12.45 12.45 0 1 0 12.45 12.45 12.464 12.464 0 0 0-12.45-12.45zm0 23.494A11.044 11.044 0 1 1 57.987 38.81a11.056 11.056 0 0 1-11.044 11.044z" fill="#F2AF60"/></svg>