<svg width="58" height="40" viewBox="0 0 58 40" fill="none" xmlns="http://www.w3.org/2000/svg"><g clip-path="url(#a)"><path fill-rule="evenodd" clip-rule="evenodd" d="M40.338 6.798a.954.954 0 0 0-.505-.851L29.559.01a.937.937 0 0 0-.985 0L18.3 5.947a.985.985 0 0 0-.505.851v10.915l-10.833.024a.954.954 0 0 0-.852.506L.201 28.517c-.16.293-.186.639-.026.958l.026.027c0 .013.007.02.014.026.006.007.013.014.013.027L6.19 39.829c.186.293.506.479.852.479l11.87-.027a.954.954 0 0 0 .852-.505l4.259-7.453a.998.998 0 0 0-.373-1.357.998.998 0 0 0-1.357.372L18.886 37.3l-4.818-8.304 4.764-8.33 2.476 4.258a.967.967 0 0 0 1.357.346.967.967 0 0 0 .346-1.357l-1.471-2.52 2.563 1.481a.998.998 0 0 0 1.357-.372.998.998 0 0 0-.373-1.358l-4.338-2.502 8.304-4.79 8.304 4.817-4.312 2.475a.997.997 0 0 0-.372 1.358c.186.32.506.506.852.506.16 0 .346-.054.505-.134l2.709-1.553-1.564 2.698c-.267.479-.107 1.091.346 1.357.479.266 1.09.107 1.357-.346l2.529-4.338 4.764 8.33-4.818 8.278-3.46-6.015a.997.997 0 0 0-1.357-.372.997.997 0 0 0-.373 1.357l4.312 7.506a.985.985 0 0 0 .852.505l11.87.027c.346 0 .666-.186.852-.48l5.962-10.246s0-.027.027-.027c.16-.32.16-.692.026-.985 0-.013-.006-.02-.013-.026-.007-.007-.013-.014-.013-.027l-5.909-10.3a.985.985 0 0 0-.852-.506l-10.939-.025V6.798zm-1.97 10.168l-8.304-4.791V2.593l8.305 4.79v9.583zM19.792 7.384l8.304-4.79v9.58l-8.304 4.792V7.384zM7.52 19.707l9.581-.027-4.764 8.305-9.582.026 4.765-8.304zM2.756 30.034l9.582-.026 4.818 8.277-9.582.027-4.818-8.278zm52.727-2.023l-4.791-8.304-9.582-.027 4.79 8.305 9.583.026zM41.03 38.285l9.582.027 4.817-8.278-9.581-.026-4.818 8.277z" fill="url(#b)"/><path d="M25.302 28.97c0-1.15-.903-2.143-2.107-2.184l5.858-6.348 5.858 6.348a2.182 2.182 0 0 0-2.108 2.183v8.142h-7.5V28.97zm-7.055 2.184h2.712v8.142c0 1.174.942 2.185 2.185 2.185h11.844a2.166 2.166 0 0 0 2.185-2.185v-8.142h2.739c.846 0 1.639-.468 2.002-1.298.37-.82.16-1.748-.395-2.36l-.006-.005L30.69 15.736a2.151 2.151 0 0 0-1.61-.716c-.575 0-1.176.229-1.61.716L16.646 27.49l-.005.006a2.18 2.18 0 0 0-.401 2.344l.006.015.007.015a2.2 2.2 0 0 0 1.995 1.283z" fill="url(#c)" stroke="#fff" stroke-width="2.4"/></g><defs><linearGradient id="b" x1="4.835" y1="40.448" x2="50.948" y2="8.292" gradientUnits="userSpaceOnUse"><stop stop-color="#40B8FF"/><stop offset=".258" stop-color="#7F3FDA"/><stop offset=".464" stop-color="#EB505C"/><stop offset=".74" stop-color="#F29160"/><stop offset="1" stop-color="#FAD464"/></linearGradient><linearGradient id="c" x1="29.079" y1="40.293" x2="29.079" y2="16.226" gradientUnits="userSpaceOnUse"><stop stop-color="#8535D6"/><stop offset=".552" stop-color="#4F84F5"/><stop offset=".995" stop-color="#3FBAFF"/></linearGradient><clipPath id="a"><path fill="#fff" d="M0 0h58v40H0z"/></clipPath></defs></svg>