<svg width="700" height="285" viewBox="0 0 700 285" fill="none" xmlns="http://www.w3.org/2000/svg"><path d="M200.68 171.787h-91.958c-16.922 0-30.64 13.718-30.64 30.64s13.718 30.639 30.64 30.639h91.958c16.922 0 30.639-13.717 30.639-30.639 0-16.922-13.717-30.64-30.639-30.64z" fill="#DBEDFF"/><path d="M254.918 197.344h-58.53a6.83 6.83 0 0 0-6.831 6.831v22.431a6.831 6.831 0 0 0 6.831 6.832h58.53a6.831 6.831 0 0 0 6.831-6.832v-22.431a6.83 6.83 0 0 0-6.831-6.831z" fill="#DBEDFF"/><path d="M405.963 19.248h98.057a11.718 11.718 0 0 1 11.718 11.719v140.307H405.963V19.248z" fill="#4FA3F8" stroke="#4FA3F8" stroke-miterlimit="10"/><path d="M412.901 209.136v14.795a9.541 9.541 0 0 0 9.537 9.541h37.802a18.066 18.066 0 0 1 18.067 18.066 7.874 7.874 0 0 0 7.876 7.871h92.387V157.031H412.901v52.105z" fill="#DBEDFF"/><path d="M197.965 63.379h247.7a8.41 8.41 0 0 1 8.408 8.408V203.76a8.298 8.298 0 0 1-8.3 8.301H197.965a8.42 8.42 0 0 1-5.946-2.463 8.414 8.414 0 0 1-2.462-5.946V71.787a8.4 8.4 0 0 1 2.462-5.945 8.411 8.411 0 0 1 5.946-2.463z" fill="#170278"/><path d="M115.689 51.01h85.147v37.345a10.254 10.254 0 0 1-10.254 10.253h-64.639a10.253 10.253 0 0 1-10.254-10.254V51.011z" fill="#4999F8"/><path d="M115.689 51.01l42.574-20.077 42.573 20.078-42.573 25.053-42.574-25.053z" fill="#170278"/><path d="M158.277 76.064l-29.297-17.24V22.445a3.27 3.27 0 0 1 3.267-3.266h52.017a3.27 3.27 0 0 1 3.266 3.266v36.377l-29.253 17.241z" fill="#FFBFBF"/><path d="M160.748 30.933h-22.041a2.598 2.598 0 0 0-2.598 2.597v1.387a2.598 2.598 0 0 0 2.598 2.598h22.041a2.598 2.598 0 0 0 2.598-2.598V33.53a2.598 2.598 0 0 0-2.598-2.597z" fill="#fff"/><path d="M171.373 46.963H137.74a1.631 1.631 0 0 0 0 3.262h33.633a1.63 1.63 0 1 0 0-3.262zm-7.515 7.568H137.74a1.631 1.631 0 0 0 0 3.262h26.118a1.63 1.63 0 1 0 0-3.262zm13.965-23.598h-6.206a2.598 2.598 0 0 0-2.597 2.597v1.387a2.597 2.597 0 0 0 2.597 2.598h6.206a2.598 2.598 0 0 0 2.598-2.598V33.53a2.598 2.598 0 0 0-2.598-2.597z" fill="#2635C4"/><path d="M162.525 78.799l-4.262-2.53L154 78.8l-32.036 19.004 2.744.654 4.292.151 29.263-17.294 29.267 17.294 7.915-.283-32.92-19.526z" fill="#2D84EC"/><path d="M495.416 29.722H393.683a10.47 10.47 0 0 1 10.478-10.45h101.284a10 10 0 0 0-10.005 10l-.024.45z" fill="#170278"/><path d="M496.104 42.407h-28.095a2.154 2.154 0 0 0-2.154 2.154v1.05c0 1.189.965 2.153 2.154 2.153h28.095c1.19 0 2.154-.964 2.154-2.154v-1.05a2.153 2.153 0 0 0-2.154-2.153zm0 15.396h-28.095a2.154 2.154 0 0 0-2.154 2.153v1.05c0 1.19.965 2.153 2.154 2.153h28.095c1.19 0 2.154-.964 2.154-2.153v-1.05c0-1.19-.964-2.153-2.154-2.153zm0 15.395h-16.095a2.154 2.154 0 0 0-2.154 2.154v1.05c0 1.189.965 2.153 2.154 2.153h16.095c1.19 0 2.154-.964 2.154-2.154v-1.05a2.153 2.153 0 0 0-2.154-2.153z" fill="#fff"/><path d="M628.37 96.216H506.754a6.572 6.572 0 0 0-6.572 6.572v78.857a6.572 6.572 0 0 0 6.572 6.573H628.37a6.572 6.572 0 0 0 6.572-6.573v-78.857a6.572 6.572 0 0 0-6.572-6.572z" fill="#FFBFBF"/><path d="M623.307 103.921H511.813a4.034 4.034 0 0 0-4.034 4.033v68.526a4.034 4.034 0 0 0 4.034 4.033h111.494a4.033 4.033 0 0 0 4.033-4.033v-68.526a4.033 4.033 0 0 0-4.033-4.033z" fill="#fff"/><path d="M607.652 165.732h-80.18l28.012-41.538 17.774 22.754 13.433-16.128 20.961 34.912zm0-36.962a5.568 5.568 0 0 0 0-11.133 5.566 5.566 0 0 0 0 11.133z" fill="#FFBFBF"/><path d="M631.559 174.73h-19.15a3.907 3.907 0 0 0-3.906 3.907v19.15a3.906 3.906 0 0 0 3.906 3.906h19.15a3.907 3.907 0 0 0 3.907-3.906v-19.15a3.907 3.907 0 0 0-3.907-3.907z" fill="#915AEF"/><path d="M446.412 207.51H197.34a8.41 8.41 0 0 1-8.408-8.408V67.236a8.406 8.406 0 0 1 8.408-8.413h248.979a8.41 8.41 0 0 1 8.409 8.408V199.21a8.304 8.304 0 0 1-8.316 8.301z" fill="#fff"/><path d="M197.34 207.51h249.072a8.304 8.304 0 0 0 8.301-8.301v-21.108c-23.438.454-83.247.708-112.632-7.539-48.228-13.531-93.291-66.529-95.493-111.739H197.34a8.41 8.41 0 0 0-8.408 8.408v131.871a8.406 8.406 0 0 0 8.408 8.408z" fill="#F2F8FF"/><path d="M196.852 58.892h249.56a8.301 8.301 0 0 1 8.301 8.3v11.954H188.917V66.81a7.918 7.918 0 0 1 7.935-7.92z" fill="#FFB75A"/><path d="M327.438 79.145h-46.299a9.768 9.768 0 0 1-9.766-9.765V58.892h65.83V69.38a9.767 9.767 0 0 1-9.765 9.766z" fill="#170278"/><path d="M321.92 0h-49.219c-5.393 0-9.765 4.372-9.765 9.766v49.218c0 5.394 4.372 9.766 9.765 9.766h49.219c5.393 0 9.766-4.372 9.766-9.766V9.766c0-5.394-4.373-9.766-9.766-9.766z" fill="#915AEF"/><path d="M385.65 105.146h-19.253a3.907 3.907 0 0 0-3.906 3.907v19.253a3.906 3.906 0 0 0 3.906 3.906h19.253a3.907 3.907 0 0 0 3.907-3.906v-19.253a3.907 3.907 0 0 0-3.907-3.907zm59.248 65.416h9.82v7.285h-6.177a3.646 3.646 0 0 1-3.643-3.643v-3.642z" fill="#170278"/><path d="M380.848 123.283l-.423.88 56.768 27.26.422-.881-56.767-27.259zm57.563 46.059l-51.76 61.402.747.63 51.76-61.402-.747-.63z" fill="#6174FF" opacity=".36"/><path d="M460.562 143.496H441.31a3.907 3.907 0 0 0-3.907 3.906v19.253a3.907 3.907 0 0 0 3.907 3.907h19.252a3.907 3.907 0 0 0 3.907-3.907v-19.253a3.907 3.907 0 0 0-3.907-3.906zm-83.115-45.181h-19.253a3.906 3.906 0 0 0-3.906 3.907v19.253a3.906 3.906 0 0 0 3.906 3.906h19.253a3.907 3.907 0 0 0 3.907-3.906v-19.253a3.906 3.906 0 0 0-3.907-3.907z" fill="#FFBFBF"/><path d="M155.836 211.03H49.518A10.519 10.519 0 0 1 39 200.513v-62.94a3.27 3.27 0 0 1 3.267-3.266h60.498l12.207-11.275a9.76 9.76 0 0 1 6.635-2.597h41.455a3.26 3.26 0 0 1 3.262 3.261v76.817a10.516 10.516 0 0 1-10.488 10.517z" fill="#FFB75A"/><path d="M49.518 211.03h106.318a10.518 10.518 0 0 0 10.513-10.517v-3.233c-43.985-.947-91.831-21.699-122.325-62.988h-1.733a3.271 3.271 0 0 0-3.267 3.267v62.939a10.518 10.518 0 0 0 10.494 10.532z" fill="#FFA633"/><path d="M160.831 205.898H51.73a7.71 7.71 0 0 1-7.71-7.71v-63.881h-1.753A3.271 3.271 0 0 0 39 137.573v62.94a10.52 10.52 0 0 0 10.518 10.517h106.318c2.019 0 3.995-.582 5.692-1.676a10.502 10.502 0 0 0 3.878-4.491 10.427 10.427 0 0 1-4.575 1.035z" fill="#FF802C"/><path d="M114.615 150.034H97.174c-.955 0-1.729.774-1.729 1.729v3.701c0 .954.774 1.728 1.729 1.728h17.441c.955 0 1.729-.774 1.729-1.728v-3.701c0-.955-.774-1.729-1.729-1.729z" fill="#170278"/><path d="M109.747 146.46H92.306c-.955 0-1.729.774-1.729 1.728v3.702c0 .954.774 1.728 1.729 1.728h17.441c.955 0 1.729-.774 1.729-1.728v-3.702c0-.954-.774-1.728-1.729-1.728z" fill="#fff"/><path d="M152.975 150.034h-17.442c-.954 0-1.728.774-1.728 1.729v3.701c0 .954.774 1.728 1.728 1.728h17.442c.954 0 1.728-.774 1.728-1.728v-3.701c0-.955-.774-1.729-1.728-1.729z" fill="#170278"/><path d="M148.106 146.46h-17.441c-.955 0-1.728.774-1.728 1.728v3.702c0 .954.773 1.728 1.728 1.728h17.441c.955 0 1.729-.774 1.729-1.728v-3.702c0-.954-.774-1.728-1.729-1.728z" fill="#fff"/><path d="M384.835 228.994h-19.253a3.906 3.906 0 0 0-3.906 3.906v19.253a3.907 3.907 0 0 0 3.906 3.907h19.253a3.907 3.907 0 0 0 3.906-3.907V232.9a3.906 3.906 0 0 0-3.906-3.906z" fill="#FFBFBF"/><path d="M450.938 163.384a5.787 5.787 0 1 0 0-11.574 5.787 5.787 0 0 0 0 11.574zm-83.152-45.812a5.785 5.785 0 1 0 0-11.572 5.787 5.787 0 0 0 0 11.572zm7 131a5.785 5.785 0 1 0 0-11.572 5.787 5.787 0 0 0 0 11.572z" fill="#fff"/><path d="M235.611 284.314s-6.347-5.605-6.162-12.07c10.098 3.877 11.465 12.07 11.465 12.07h-5.303zm402.098-6.418c2.8-7.354 7.438-18.713 10.874-23.017-20.715 9.667-26.641 29.678-26.641 29.678h6.225c2.063 0 4.079-.635 5.782-1.824a10.409 10.409 0 0 0 3.76-4.837z" fill="#170278"/><path d="M623.485 284.557c16.197-14.925 11.347-38.107 13.962-54.352C615.77 241.103 607 284.557 607 284.557h16.485z" fill="#925AF0"/><path d="M608.632 284.595c4.779-3.97 13.81-16.216 15.566-20.11 2.278-5.041 3.926-10.371 5.524-15.529 2.262-7.32 4.404-14.236 7.938-18.601l-.418-.355c-3.605 4.437-5.758 11.414-8.042 18.79-1.587 5.141-3.229 10.454-5.491 15.468-1.696 3.755-10.792 16.084-15.425 19.905l.348.432z" fill="#fff"/><path d="M240.396 284.266c-7.895-5.987-8.535-16.91-7.256-23.086 10.743 5.835 13.125 22.91 13.125 22.91l-5.869.176z" fill="#915AEF"/><path d="M572.662 259.007l9.688 14.712a3.808 3.808 0 0 1-.113 4.204s-2.256 3.066-2.563 3.232c-.41.22-1.006.572-1.616.943a.875.875 0 0 0 .454 1.616h3.935c2.349 0 4.883-2.378 6.778-3.789 1.24-.933 3.799-2.007 5.288-3.252 2.197-1.836 1.914-4.854.361-7.261l-11.919-17.851-10.293 7.446zm-51.142-.015v15.943a29.752 29.752 0 0 1-4.424 5.859l-2.031 1.841a.625.625 0 0 0-.161.692.63.63 0 0 0 .586.402h5.078c3.662 0 5.317-2.862 7.27-4.205 1.954-1.342 4.327-.683 6.89-4.712 1.04-1.625.318-15.825.318-15.825l-13.526.005z" fill="#FFB75A"/><path d="M262.687 228.558v42.968s5.537 1.221 10.175 1.221c4.639 0 10.498-1.465 10.498-1.465v-42.724h-20.673z" fill="#2300B3"/><path d="M224.718 202.234l-.44 14.4a16.405 16.405 0 0 0 4.801 11.597 16.403 16.403 0 0 0 11.596 4.804h25.84a91.445 91.445 0 0 0 10.498 13.828c6.347 6.836 20.996 23.926 20.996 23.926s5.127-1.465 7.812-3.174c2.686-1.709 5.127-3.662 5.127-3.662l-27.221-47.768a16.7 16.7 0 0 0-12.837-8.345l-46.172-5.606z" fill="#2300B3"/><path d="M263.829 271.766v6.67a5.308 5.308 0 0 0 5.308 5.307h21.914a2.076 2.076 0 0 0 .317-4.126c-2.012-.312-5.264-1.02-7.031-2.441-1.67-1.367-3.13-5.371-3.13-5.371l-17.378-.039zm34.79-.977l6.978 9.609a8.084 8.084 0 0 0 6.538 3.331h13.501a2.28 2.28 0 0 0 .591-4.483l-3.003-.801a7.483 7.483 0 0 1-4.195-2.929l-8.081-11.563-12.329 6.836z" fill="#FFB75A"/><path d="M518.707 166.058l1.133 92.934h23.281l-5.859-92.934h-18.555z" fill="#2300B3"/><path d="M518.707 166.058s18.613 36.723 25.635 48.339c7.021 11.617 28.32 44.595 28.32 44.595l21.24-15.298s-8.628-11.557-11.23-15.136c-1.123-1.543-1.792-4.966-4.883-8.789-2.173-2.686-7.393-4.683-9.36-7.242-2.442-3.173-1.709-7.002-4.8-11.801-3.032-4.707-6.104-8.125-9.033-12.452-3.15-4.653-2.198-10.864-5.371-16.113-3.052-5.044-8.057-14.39-8.057-14.39l-22.461 8.287z" fill="#2300B3"/><path d="M522.643 130.086l1.24-10.054s-4.317-.61-5.181-3.54c-1.123-3.857 6.006-15.4 6.006-15.4l10.771 6.733-3.354 10.41.205 10.743-9.687 1.108z" fill="#FFB75A"/><path d="M538.961 103.489a8.662 8.662 0 1 0 0-17.324 8.662 8.662 0 0 0 0 17.324z" fill="#170278"/><path d="M521.715 102.713c3.559 4.639 6.499 5.928 8.584 6.836 2.085.908 1.465 3.994 0 5.078.386 2.012 1.85 4.922 1.85 4.922s4.395-2.895 5.962-6.313c1.7-3.687 2.559-10.855-6.347-14.16-4.258-1.587-10.049 3.637-10.049 3.637zm28.613 71.665c4.927-4.087 12.315-12.461 9.614-15.625-3.628-4.273-17.417 1.528-17.417 1.528l7.803 14.097z" fill="#170278"/><path d="M277.652 191.116c-1.767-2.212-7.7-17.632-10.62-25.391a10.736 10.736 0 0 0-6.396-6.318c-3.286-1.187-7.813-2.598-11.968-3.12-11.758-1.465-22.847 4.394-22.847 4.394l-1.377 46.387 33.286-.552 3.101-21.714c1.27 2.691 6.348 13.345 8.98 16.773 3.784 4.941 10.742 5.493 10.742 5.493h14.282l.127-10.171s-12.456.288-17.31-5.781z" fill="#915AEF"/><path d="M480.748 125.564c-2.114-3.335-8.071-11.011-8.154-13.047-.083-2.036 1.709-.083 2.197.328-2.686-4.395-.728-5.86 1.875-2.442-1.587-3.867.283-4.517 2.197-1.221-.449-2.441.244-2.851 1.06-2.607 1.22.732 3.301 5.771 3.301 5.771s.244-2.793 1.142-3.881a2.033 2.033 0 0 1 1.953-.83s-1.059 5.161-.083 7.812c.572 1.543-.327 3.906-.327 3.906l1.343 2.173" fill="#FFB75A"/><path d="M534.576 127.811c-2.256-.342-5.127.029-9.033.029a22.59 22.59 0 0 0-7.813 1.728c-.571.118-13.3 5.708-14.97 5.708-2.93 0-15.513-13.759-15.513-13.759l-6.504 4.047c5.698 9.117 13.106 26.006 20.855 27.31 3.071.518 8.72-1.23 14.423-3.53l-.556 13.481a4.206 4.206 0 0 0 2.124 3.823c2.847 1.631 5.649.616 9.062.127 4.991-.717 19.312-10.18 28.589-9.004 1.497.152 2.984.392 4.453.718-1.435-1.465-9.174-9.551-14.541-15.429-5.239-5.738-5.205-14.439-10.576-15.249zm25.122 30.673l.235.245s.415-.054-.235-.245z" fill="#915AEF"/><path d="M540.46 216.775c-2.695-7.138-5.303-6.191-7.813-12.265-2.241-5.371-.566-8.911-4.394-13.794-2.441-3.12-4.57-14.976-4.57-14.976l16.186 31.333.591 9.702z" fill="#170278"/><path d="M260.777 199.344c3.475.266 6.919.838 10.293 1.709 2.281.649 1.236 1.787.21 2.114 1.514 1.167 2.881 1.953 1.743 2.441 1.954 1.792-1.289 2.344-1.289 2.344l-11.933-.879.976-7.729zm34.014-2.437c4.438.405 8.018.611 10.298 1.265 2.28.654 1.235 1.787.21 2.114 1.509 1.167 2.881 1.953 1.743 2.442 1.953 1.792-1.792 4.345-1.792 4.345h-10.415l-.044-10.166zm-43.633-39.35l.142-6.202s2.441.874 4.292-.878c2.93-2.764 1.377-17.691 1.377-17.691l-12.725-1.465-2.822 6.045 1.225 7.554-2.299 11.909s1.084 4.517 4.614 4.883c5.254.615 6.196-4.155 6.196-4.155z" fill="#FFB75A"/><path d="M246.329 148.113c1.714 1.724 4.971 3.242 4.971 3.242l-.083 3.682-4.888-6.924zm74.912 58.96h-24.087l8.135-20.835h24.092l-8.14 20.835z" fill="#170278"/><path d="M618 192.861v-8.672a1.183 1.183 0 0 1 .592-1.027 1.186 1.186 0 0 1 1.185-.008l7.657 4.336a1.194 1.194 0 0 1 .443 1.638 1.183 1.183 0 0 1-.443.437l-7.657 4.336a1.187 1.187 0 0 1-1.62-.446 1.202 1.202 0 0 1-.157-.594z" fill="#fff"/><path d="M589.039 36.78h-38.164a6.346 6.346 0 0 0-6.348 6.348v16.777a6.346 6.346 0 0 0 6.348 6.348s38.921-.044 39.126-.073a6.346 6.346 0 0 0 5.371-6.29V43.139a6.348 6.348 0 0 0-6.333-6.358z" fill="#FFB75A"/><path d="M550.875 36.78h4.424a6.349 6.349 0 0 0-6.348 6.348v16.777a6.35 6.35 0 0 0 6.348 6.348h-4.424a6.347 6.347 0 0 1-6.348-6.348V43.138a6.342 6.342 0 0 1 1.856-4.495 6.351 6.351 0 0 1 4.492-1.863z" fill="#FF802C"/><path d="M547.804 37.566c.102-.053.205-.112.312-.16a2.673 2.673 0 0 0-.312.16zm-3.291 22.349V43.138v16.777zm25.166-.488c-7.749-3.56-12.207-9.146-13.096-22.647h-1.284a6.349 6.349 0 0 0-6.348 6.348v16.777a6.35 6.35 0 0 0 6.348 6.348h3.218s1.748 2.847-.142 7.056c2.27 0 4.321-3.248 5.034-4.517.938-1.67 2.168-2.549 3.677-2.549 9.17 0 22.71-.034 22.915-.063a6.346 6.346 0 0 0 5.371-6.29v-.976c-6.23 1.748-19.556 3.335-25.693.513z" fill="#FFA633"/><path d="M570.636 54.223a3.255 3.255 0 0 0 4.113-.378 3.26 3.26 0 0 0 .434-4.108 3.258 3.258 0 1 0-4.547 4.486zm12 0a3.255 3.255 0 0 0 4.113-.378 3.26 3.26 0 0 0 .434-4.108 3.258 3.258 0 1 0-4.547 4.486zm-23.801.014a3.255 3.255 0 0 0 4.11-.41 3.257 3.257 0 1 0-4.11.41zm-253.839-21.05a9.044 9.044 0 0 0 2.109-5.811v-1.162a9.078 9.078 0 0 0-9.077-9.077h-6.674a3.566 3.566 0 0 0-3.565 3.564v26.455a3.567 3.567 0 0 0 2.2 3.293c.433.18.896.272 1.365.272h8.271a9.08 9.08 0 0 0 9.077-9.077V40.48a9.067 9.067 0 0 0-3.706-7.294zM292.818 22.16h5.21a4.059 4.059 0 0 1 4.053 4.053v1.162a4.051 4.051 0 0 1-4.053 4.048h-5.21V22.16zm10.855 19.502a4.052 4.052 0 0 1-4.048 4.053h-6.807v-9.278h6.807a4.054 4.054 0 0 1 4.048 4.048v1.177z" fill="#fff"/><path d="M520.656 107.57a1.044 1.044 0 1 0-1.146 1.742l1.325.872a1.044 1.044 0 1 0 1.146-1.742l-1.325-.872z" fill="#FFB75A"/><path opacity=".3" d="M657.791 284.977h-91.303a.492.492 0 0 1-.488-.489.487.487 0 0 1 .488-.488h91.303a.487.487 0 1 1 0 .977zm-112.344-.257h-39.313a.492.492 0 0 1-.346-.143.491.491 0 0 1 0-.691.492.492 0 0 1 .346-.143h39.313a.488.488 0 0 1 0 .977zm-189.066 0h-51.17a.488.488 0 0 1 0-.977h51.17a.49.49 0 0 1 .345.834.49.49 0 0 1-.345.143zm-58.455 0h-80.841c-.649 0-1.177-.22-1.177-.489 0-.268.528-.488 1.177-.488h80.841c.649 0 1.181.215 1.181.488 0 .274-.532.489-1.181.489z" fill="#915AEF"/><path d="M198.82 71.414a3.418 3.418 0 1 0 3.798-5.683 3.418 3.418 0 0 0-3.798 5.683z" fill="#fff"/><path d="M198.82 71.414a3.418 3.418 0 1 0 3.798-5.683 3.418 3.418 0 0 0-3.798 5.683zm11.699-.154a3.418 3.418 0 1 0 3.798-5.684 3.418 3.418 0 0 0-3.798 5.684z" fill="#fff"/><path d="M210.519 71.26a3.418 3.418 0 1 0 3.798-5.684 3.418 3.418 0 0 0-3.798 5.684zm12 0a3.418 3.418 0 1 0 3.798-5.684 3.418 3.418 0 0 0-3.798 5.684z" fill="#fff"/><path d="M222.519 71.26a3.418 3.418 0 1 0 3.798-5.684 3.418 3.418 0 0 0-3.798 5.684z" fill="#fff"/><path d="M262.687 233.035v4.551c.859 2.148 3.325 3.584 4.926 4.487 2.998 1.695 4.117 2.349 4.698 6.255.581 3.906 11.049 10.65 11.049 10.65v-5.049l-16.845-20.894h-3.828zm-22.281-92.28c-2.339-5.982 1.016-8.726 2.617-10.21 1.406-1.299 10.42-6.392 14.815-4.195 2.441 1.221-.772 7.52-.772 7.52s-7.593-.894-11.02 1.035c-1.28.723-.977 3.276-.977 3.276s-2.314-.976-2.29.943c.024 1.919 1.909 4.116 1.909 4.116l-2.109 2.031s-1.719-3.349-2.173-4.516zm283.477-20.723a7.597 7.597 0 0 0 2.573-1.25s-.459 1.709-1.284 2.442c-.487.432-1.016.817-1.577 1.147l.288-2.339zm51.055 142.437l8.017-10.889-10.293 7.412 2.276 3.477zM512.892 150.55a62.91 62.91 0 0 0 2.661-1.851c2.9-2.138 5.176-4.17 5.176-4.17l-5 12.066.297-7.251-3.134 1.206zm-288.448 56.523l.523-17.632s1.411 5.86 2.739 7.871c1.328 2.012 16.421 9.766 16.421 9.766l-19.683-.005z" fill="#170278"/><path d="M222.301 168.86c.898 11.333 2.226 24.903 6.738 30.484a23.14 23.14 0 0 0 6.963 5.683 17.035 17.035 0 0 0 8.125 2.046h15.674l.976-7.729s-18.676-4.478-20.385-6.797c-1.709-2.319-4.395-26.367-4.761-28.809-.366-2.441-3.296-4.135-6.592-4.135-4.517 0-7.041 5.454-6.738 9.257z" fill="#915AEF"/><path d="M250.685 196.903a.255.255 0 0 1-.078 0c-6.7-2.188-10.039-3.833-10.889-7.29-.112-.459-2.441-11.441-2.559-12.149a.252.252 0 0 1 .115-.25.245.245 0 0 1 .09-.033.264.264 0 0 1 .097.003.255.255 0 0 1 .187.202c.117.703 2.441 11.655 2.553 12.109.796 3.233 4.043 4.815 10.567 6.944a.245.245 0 0 1 .207.28.247.247 0 0 1-.281.208l-.009-.024z" fill="#170278"/><path d="M583.766 250.916c-3.418-7.129-27.564-44.141-36.333-54.497-7.813-9.248-12.046-19.575-15.777-28.687-.325-.791-.651-1.572-.976-2.343l.454-.186c.325.772.651 1.554.976 2.349 3.721 9.077 7.93 19.365 15.703 28.55 8.79 10.376 32.994 47.46 36.402 54.604l-.449.21zm-279.214 16.641c-2.144-2.535-9.322-12.11-16.265-21.372-7.168-9.566-14.585-19.463-15.425-20.201-.449-.395-.781-.576-.976-.561-.196.015-.313.2-.528.488a3.566 3.566 0 0 1-.83.894 1.082 1.082 0 0 1-.844.258c-.386-.078-.601-.434-.835-.815a2.752 2.752 0 0 0-.718-.879.58.58 0 0 0-.718-.083c-.425.156-1.138.42-2.93.122-.366-.058-1.191-.097-2.334-.146-8.086-.352-32.714-1.421-32.714-18.199h.488c0 16.309 24.263 17.364 32.226 17.71 1.158.049 1.993.088 2.393.157 1.66.273 2.275.049 2.681-.103a1.032 1.032 0 0 1 1.162.142c.356.277.649.626.859 1.025.171.288.337.557.488.591a.665.665 0 0 0 .489-.176 3.23 3.23 0 0 0 .717-.781c.245-.337.489-.654.865-.698.376-.044.781.171 1.362.678.879.772 7.979 10.254 15.493 20.274 6.939 9.277 14.112 18.828 16.245 21.352l-.351.323z" fill="#fff"/><path d="M53.333 78.494a3 3 0 1 0 3.334-4.987 3 3 0 0 0-3.334 4.987zm375 198a2.998 2.998 0 0 0 4.163-4.158 3.003 3.003 0 0 0-3.079-1.279 3.003 3.003 0 0 0-2.189 4.09 3.001 3.001 0 0 0 1.105 1.347zm233-219a3 3 0 1 0 3.334-4.988 3 3 0 0 0-3.334 4.988z" fill="#C6DDF4"/></svg>