<svg width="64" height="64" viewBox="0 0 64 64" fill="none" xmlns="http://www.w3.org/2000/svg"><circle cx="32" cy="32" r="32" fill="#F0F3FD"/><g clip-path="url(#a)"><path d="M23.01 14.116a6.092 6.092 0 0 1 4.865-1.758.703.703 0 1 0 .126-1.4 7.488 7.488 0 0 0-5.985 2.163L15.03 20.11a7.452 7.452 0 0 0-2.195 5.305c0 2.007.78 3.891 2.195 5.306a7.452 7.452 0 0 0 5.305 2.195c2.006 0 3.891-.78 5.306-2.194l6.988-6.989a7.44 7.44 0 0 0 2.194-5.424.703.703 0 1 0-1.406.022 6.048 6.048 0 0 1-1.782 4.409l-6.988 6.988a6.056 6.056 0 0 1-4.312 1.782 6.056 6.056 0 0 1-4.311-1.783 6.056 6.056 0 0 1-1.783-4.311c0-1.631.633-3.162 1.783-4.312l6.988-6.988z" fill="#499AF9"/><path d="M28.15 33.933c.18 0 .36-.069.497-.206l6.988-6.988a11.742 11.742 0 0 0 2.572-12.75.703.703 0 1 0-1.303.53 10.34 10.34 0 0 1-2.264 11.226l-6.988 6.988a.703.703 0 0 0 .497 1.2zm-15.63 0a.701.701 0 0 0 .497-1.2 10.278 10.278 0 0 1-3.025-7.317 10.28 10.28 0 0 1 3.025-7.318l6.988-6.987A10.343 10.343 0 0 1 31.22 8.84a.703.703 0 1 0 .528-1.303 11.745 11.745 0 0 0-12.736 2.578l-6.988 6.988c-4.583 4.583-4.583 12.04 0 16.623a.7.7 0 0 0 .497.206z" fill="#499AF9"/><path d="M25.732 26.035a.703.703 0 0 0 1.31-.51 10.361 10.361 0 0 1 2.318-11.092l6.988-6.988a10.278 10.278 0 0 1 7.317-3.026c2.767 0 5.366 1.075 7.317 3.026a10.278 10.278 0 0 1 3.026 7.317c0 2.768-1.075 5.366-3.026 7.317l-6.987 6.988c-2.802 2.802-6.881 3.752-10.646 2.48a.704.704 0 0 0-.45 1.332 11.87 11.87 0 0 0 3.808.63c3.06 0 6.033-1.199 8.282-3.448l6.988-6.988a11.674 11.674 0 0 0 3.437-8.311c0-3.143-1.22-6.095-3.437-8.312a11.675 11.675 0 0 0-8.312-3.437 11.67 11.67 0 0 0-8.311 3.437l-6.988 6.988a11.768 11.768 0 0 0-2.634 12.597z" fill="#499AF9"/><path d="M40.99 26.062a6.055 6.055 0 0 1-5.158 1.724.702.702 0 1 0-.193 1.393 7.7 7.7 0 0 0 1.059.073 7.434 7.434 0 0 0 5.286-2.196l6.987-6.988c2.926-2.926 2.926-7.686 0-10.612-2.925-2.926-7.685-2.926-10.611 0l-6.988 6.988a7.533 7.533 0 0 0-2.102 6.492.704.704 0 0 0 1.39-.22 6.123 6.123 0 0 1 1.706-5.277l6.988-6.988a6.105 6.105 0 0 1 8.623 0 6.057 6.057 0 0 1 1.782 4.311 6.06 6.06 0 0 1-1.782 4.312l-6.988 6.988z" fill="#499AF9"/><path fill-rule="evenodd" clip-rule="evenodd" d="M12.913 59v-8.02a2.123 2.123 0 0 1 .619-1.491L24.62 38.402a2.096 2.096 0 0 1 1.49-.618h22.866a2.112 2.112 0 0 1 2.11 2.109V59H49.68V39.893a.703.703 0 0 0-.703-.703H26.23v11.208a.703.703 0 0 1-.703.703H14.32V59h-1.407zm11.912-9.305v-9.51l-9.51 9.51h9.51z" fill="#293659"/><path d="M42.473 48.322H31.651a.703.703 0 1 1 0-1.406h10.822a.703.703 0 0 1 0 1.406zm0 4.35H31.651a.703.703 0 1 1 0-1.406h10.822a.703.703 0 0 1 0 1.406zm0 4.35H31.651a.703.703 0 1 1 0-1.406h10.822a.703.703 0 0 1 0 1.406z" fill="#B8C0D4"/></g><defs><clipPath id="a"><path fill="#fff" d="M0 0h64v64H0z"/></clipPath></defs></svg>