<svg width="64" height="64" viewBox="0 0 64 64" fill="none" xmlns="http://www.w3.org/2000/svg"><circle cx="32" cy="32" r="32" fill="#F0F3FD"/><g clip-path="url(#a)"><path d="M24.09 35.761h-2.261a.33.33 0 0 1-.33-.33v-2.26a.33.33 0 0 1 .33-.33h2.26a.33.33 0 0 1 .33.33v2.26a.33.33 0 0 1-.33.33z" fill="#F2AF60"/><path d="M12.595 39.968a.703.703 0 0 1-.703.703l-7.697-.002a4.323 4.323 0 0 1-3.077-1.276 4.323 4.323 0 0 1-1.274-3.079l.007-22.7c0-1.163.453-2.256 1.276-3.078a4.323 4.323 0 0 1 3.076-1.274h.002l40.439.013c1.163 0 2.255.454 3.077 1.276a4.323 4.323 0 0 1 1.274 3.079l-.002 6.958a.703.703 0 1 1-1.407 0l.003-6.959c0-.787-.306-1.527-.863-2.084a2.926 2.926 0 0 0-2.083-.863l-40.438-.014a2.93 2.93 0 0 0-2.084.863 2.929 2.929 0 0 0-.864 2.083l-.007 22.7c0 .788.306 1.528.862 2.085a2.927 2.927 0 0 0 2.084.863l7.696.003c.388 0 .703.315.703.703zm-1.033-14.385H4.42a.703.703 0 1 0 0 1.407h7.142a.703.703 0 1 0 0-1.407zm0 4.148H4.42a.703.703 0 1 0 0 1.406h7.142a.703.703 0 1 0 0-1.406z" fill="#B8C0D4"/><path d="M48.218 13.446H.575a.703.703 0 1 0 0 1.406h47.642a.703.703 0 1 0 0-1.406zm0 5.273H.575a.703.703 0 1 0 0 1.406h47.642a.703.703 0 1 0 0-1.406z" fill="#B8C0D4"/><path d="M64.156 27.684v22.701c0 2.4-1.952 4.353-4.353 4.353H19.365a4.358 4.358 0 0 1-4.353-4.353v-22.7c0-2.4 1.952-4.354 4.353-4.354h40.438c2.4 0 4.353 1.953 4.353 4.353zm-1.406 0a2.95 2.95 0 0 0-2.947-2.947H19.365a2.95 2.95 0 0 0-2.947 2.947v22.701a2.95 2.95 0 0 0 2.947 2.947h40.438a2.95 2.95 0 0 0 2.947-2.947v-22.7zm-43.9 8.564v-3.893c0-1.192.97-2.163 2.163-2.163h3.893c1.193 0 2.164.97 2.164 2.163v3.893c0 1.193-.97 2.163-2.164 2.163h-3.893a2.165 2.165 0 0 1-2.163-2.163zm1.406 0c0 .417.34.757.757.757h3.893c.418 0 .757-.34.757-.757v-3.893a.758.758 0 0 0-.757-.757h-3.893a.758.758 0 0 0-.756.757v3.893zm-.233 7.246a.703.703 0 1 0 0 1.406h6.343a.703.703 0 1 0 0-1.406h-6.343zm16.233 4.228H20.023a.703.703 0 1 0 0 1.406h16.233a.703.703 0 1 0 0-1.406zm0-4.228h-6.344a.703.703 0 1 0 0 1.406h6.344a.703.703 0 1 0 0-1.406zm9.889 0H39.8a.703.703 0 1 0 0 1.406h6.344a.703.703 0 1 0 0-1.406zm9.889 0h-6.343a.703.703 0 1 0 0 1.406h6.343a.703.703 0 1 0 0-1.406z" fill="#293659"/><path fill-rule="evenodd" clip-rule="evenodd" d="M37.927 31.39c-.13-1.133-1.115-1.496-2.354-1.583l-.028-1.573-.958.016.027 1.533c-.252.004-.509.014-.765.023l-.026-1.542-.958.016.027 1.574c-.207.008-.41.015-.61.019v-.005l-1.32.022.017 1.023s.707-.025.696-.012c.388-.007.518.216.558.41l.032 1.793c.026 0 .061 0 .1.005l-.1.002.043 2.511c-.015.123-.083.319-.354.324.012.01-.697.012-.697.012l-.17 1.147 1.247-.022.418-.004.266-.002.029 1.592.957-.017-.028-1.575c.263.001.517 0 .766-.005l.026 1.567.958-.017-.027-1.589c1.609-.12 2.73-.546 2.843-2.06.091-1.22-.49-1.753-1.409-1.957.55-.293.89-.797.793-1.626zm-1.28 3.425c.02 1.092-1.697 1.098-2.481 1.1-.07 0-.133 0-.186.002l-.037-2.109a8.34 8.34 0 0 0 .234-.008c.804-.033 2.45-.1 2.47 1.015zm-2.559-1.972c.655-.001 2.083-.003 2.066-.995-.018-1.014-1.39-.954-2.06-.924a7.858 7.858 0 0 1-.197.007l.033 1.912h.158zm13.839-1.453c-.13-1.133-1.115-1.496-2.354-1.583l-.028-1.573-.958.016.027 1.533c-.252.004-.509.014-.765.023l-.026-1.542-.958.016.027 1.574c-.207.008-.41.015-.61.019v-.005l-1.32.022.017 1.023s.707-.025.696-.012c.388-.007.518.216.558.41l.032 1.793c.026 0 .061 0 .1.005l-.1.002.043 2.511c-.015.123-.083.319-.354.324.012.01-.697.012-.697.012l-.17 1.147 1.247-.022.418-.004.266-.002.029 1.592.957-.017-.028-1.575c.263.001.517 0 .766-.005l.026 1.567.958-.017-.027-1.589c1.609-.12 2.73-.546 2.843-2.06.091-1.22-.49-1.753-1.409-1.957.55-.293.89-.797.793-1.626zm-1.28 3.425c.02 1.092-1.697 1.098-2.481 1.1-.07 0-.133 0-.186.002l-.037-2.109a8.34 8.34 0 0 0 .234-.008c.804-.033 2.45-.1 2.47 1.015zm-2.559-1.972c.655-.001 2.083-.003 2.066-.995-.018-1.014-1.39-.954-2.06-.924a7.858 7.858 0 0 1-.197.007l.033 1.912h.158zm13.839-1.453c-.13-1.133-1.115-1.496-2.354-1.583l-.028-1.573-.958.016.027 1.533c-.252.004-.509.014-.765.023l-.026-1.542-.958.016.027 1.574c-.207.008-.41.015-.61.019v-.005l-1.32.022.017 1.023s.707-.025.696-.012c.388-.007.518.216.558.41l.032 1.793c.026 0 .061 0 .1.005l-.1.002.043 2.511c-.015.123-.083.319-.354.324.012.01-.697.012-.697.012l-.17 1.147 1.247-.022.418-.004.266-.002.029 1.592.957-.017-.028-1.575c.263.001.517 0 .766-.005l.026 1.567.958-.017-.027-1.589c1.609-.12 2.73-.546 2.843-2.06.091-1.22-.49-1.753-1.409-1.957.55-.293.89-.797.793-1.626zm-1.28 3.425c.02 1.092-1.697 1.098-2.481 1.1-.07 0-.133 0-.186.002l-.037-2.109a8.34 8.34 0 0 0 .234-.008c.804-.033 2.45-.1 2.47 1.015zm-2.559-1.972c.655-.001 2.083-.003 2.066-.995-.018-1.014-1.39-.954-2.06-.924a7.858 7.858 0 0 1-.197.007l.033 1.912h.158z" fill="#F2AF60"/></g><defs><clipPath id="a"><path fill="#fff" d="M0 0h64v64H0z"/></clipPath></defs></svg>