<svg width="64" height="64" viewBox="0 0 64 64" fill="none" xmlns="http://www.w3.org/2000/svg"><circle cx="32" cy="32" r="32" fill="#F0F3FD"/><path d="M6 40.5l24.5-31 18 32.5L12 22.5l40.5.5-29 21.5" stroke="#B8C0D4" stroke-width="1.5"/><path fill="#fff" d="M14 28h35v27H14z"/><path d="M53.974 22.058a8.7 8.7 0 0 0-8.643-8.048 8.593 8.593 0 0 0-3.07.563 17.91 17.91 0 0 0-30.913 7.112 11.366 11.366 0 0 0 2.429 22.468c.019 0 .036-.004.054-.005v9.894a1.634 1.634 0 0 0 1.632 1.631h33.072a1.634 1.634 0 0 0 1.632-1.631v-9.894c.018 0 .035.005.054.005a11.366 11.366 0 0 0 3.753-22.095zm-5.212 10.768H15.237v-4.078a.225.225 0 0 1 .225-.225h33.073a.225.225 0 0 1 .225.225l.002 4.078zm-.225 21.442H15.464a.225.225 0 0 1-.225-.225v-19.81h33.523v19.809a.224.224 0 0 1-.227.226h.002zm1.687-11.521c-.018 0-.036.004-.054.005V28.748a1.634 1.634 0 0 0-1.631-1.631H15.464a1.633 1.633 0 0 0-1.632 1.63v14.005c-.018 0-.035-.005-.054-.005a9.958 9.958 0 0 1-1.733-19.765.703.703 0 0 0 .563-.532 16.504 16.504 0 0 1 28.898-6.588.702.702 0 0 0 .836.197 7.202 7.202 0 0 1 2.989-.642 7.284 7.284 0 0 1 7.256 7.168.703.703 0 0 0 .5.664 9.96 9.96 0 0 1-2.868 19.498h.005z" fill="#293659"/><path fill-rule="evenodd" clip-rule="evenodd" d="M51.227 16.343a8.7 8.7 0 0 1 2.747 5.715 11.363 11.363 0 0 1 7.452 12.632 11.366 11.366 0 0 1-11.205 9.463.178.178 0 0 1-.033-.003v-1.4h.004a.166.166 0 0 1 .032-.003h-.005a9.96 9.96 0 0 0 2.869-19.498.703.703 0 0 1-.501-.664 7.284 7.284 0 0 0-7.256-7.168 7.202 7.202 0 0 0-2.99.642.703.703 0 0 1-.835-.197 16.504 16.504 0 0 0-28.898 6.588.703.703 0 0 1-.563.532 9.959 9.959 0 0 0 1.733 19.765c.01 0 .018.001.027.003h.008v1.4h-.003a.176.176 0 0 1-.033.003 11.365 11.365 0 0 1-2.429-22.468 17.91 17.91 0 0 1 30.913-7.112 8.593 8.593 0 0 1 3.07-.563 8.7 8.7 0 0 1 5.896 2.333z" fill="#B8C0D4"/><path d="M40.112 30.101h-.99a.703.703 0 0 0 0 1.407h.99a.703.703 0 0 0 0-1.407zm3.344 0h-.99a.703.703 0 0 0 0 1.407h.99a.703.703 0 0 0 0-1.407zm3.344 0h-.99a.703.703 0 1 0 0 1.407h.99a.703.703 0 0 0 0-1.407zm-28.61 0h-.993a.703.703 0 1 0 0 1.407h.993a.703.703 0 0 0 0-1.407z" fill="#B8C0D4"/><path d="M34.214 50.24v-3.428h3.626a.6.6 0 0 0 .628-.903l-5.618-9.154a.6.6 0 0 0-1.024 0l-5.618 9.154a.6.6 0 0 0 .628.903h3.626v3.428a.6.6 0 0 0 .6.6h2.552a.6.6 0 0 0 .6-.6z" fill="#EE665E"/></svg>