<svg width="64" height="64" viewBox="0 0 64 64" fill="none" xmlns="http://www.w3.org/2000/svg"><circle cx="32" cy="32" r="32" fill="#F0F3FD"/><path d="M50.383 50.703a.703.703 0 0 0-.703.703v3.92a.703.703 0 0 1-.703.703H15.023a.703.703 0 0 1-.703-.703V19.883h11.208a.703.703 0 0 0 .703-.704V7.971h22.746a.703.703 0 0 1 .703.703V27.22a.703.703 0 1 0 1.406 0V8.674a2.112 2.112 0 0 0-2.11-2.11H26.112a2.097 2.097 0 0 0-1.49.62L13.53 18.27a2.123 2.123 0 0 0-.618 1.49v35.565a2.112 2.112 0 0 0 2.11 2.11h33.954a2.112 2.112 0 0 0 2.11-2.11v-3.919a.703.703 0 0 0-.704-.703zM24.825 8.966v9.51h-9.51l9.51-9.51z" fill="#293659"/><path d="M43.598 26.947H20.401a.703.703 0 1 1 0-1.406h23.197a.703.703 0 0 1 0 1.406zm-5.625 7.725H20.401a.703.703 0 1 1 0-1.406h17.572a.703.703 0 0 1 0 1.406zm0 7.725H20.401a.703.703 0 1 1 0-1.407h17.572a.703.703 0 0 1 0 1.407zm5.625 7.724H20.401a.703.703 0 1 1 0-1.406h23.197a.703.703 0 0 1 0 1.406z" fill="#B8C0D4"/><path d="M60.23 47.456l-5.116-5.117 3.069-2.059a.6.6 0 0 0-.195-1.083l-10.446-2.5a.6.6 0 0 0-.723.724l2.5 10.445a.6.6 0 0 0 1.083.195l2.058-3.069 5.117 5.117a.6.6 0 0 0 .85 0l1.804-1.805a.6.6 0 0 0 0-.848z" fill="#4B37C6"/><path d="M46.968 27.651a.703.703 0 0 0-.703.703v4.023a.703.703 0 1 0 1.406 0v-4.023a.703.703 0 0 0-.703-.703zm6.488 2.688a.703.703 0 0 0-.995 0l-2.844 2.844a.703.703 0 1 0 .995.994l2.844-2.844a.703.703 0 0 0 0-.994zm-10.132 9.138l-2.844 2.845a.703.703 0 1 0 .994.994l2.844-2.844a.703.703 0 1 0-.994-.995zm-.104-2.65a.703.703 0 0 0-.702-.703h-4.023a.703.703 0 1 0 0 1.407h4.023a.703.703 0 0 0 .703-.704zm-1.746-6.488a.703.703 0 1 0-.994.994l2.844 2.844a.701.701 0 0 0 .994 0 .703.703 0 0 0 0-.994l-2.844-2.844z" fill="#293659"/></svg>