<svg width="177" height="42" viewBox="0 0 177 42" fill="none" xmlns="http://www.w3.org/2000/svg"><path fill-rule="evenodd" clip-rule="evenodd" d="M40.833 6.947c.319.16.505.505.505.851v10.889l10.94.024c.345 0 .665.186.851.506l5.909 10.3c0 .013.006.02.013.027.007.006.013.013.013.026.133.293.133.666-.026.985-.027 0-.027.027-.027.027L53.05 40.829a1.017 1.017 0 0 1-.852.479l-11.87-.027a.985.985 0 0 1-.852-.505l-.113-.197c.007-.093.011-.187.011-.282v-3.7l.98 1.703 4.818-8.277-4.764-8.331-.978 1.677-2.6-2.823 1.528-.877-5.014-2.909-.765-.83a3.351 3.351 0 0 0-2.498-1.11c-.883 0-1.818.35-2.499 1.11l-.684.742-5.148 2.97 1.576.91-2.538 2.756-.954-1.643-4.765 8.331 4.818 8.304.873-1.529v3.526c0 .147.01.293.029.437l-.024.042a.954.954 0 0 1-.852.505l-11.87.027c-.346 0-.666-.186-.852-.48L1.228 30.556c0-.013-.007-.02-.013-.026-.007-.007-.014-.014-.014-.027l-.026-.027c-.16-.32-.133-.665.026-.958L7.11 19.243a.954.954 0 0 1 .852-.505l10.833-.025V7.798c0-.346.186-.665.505-.851L29.574 1.01a.937.937 0 0 1 .985 0l10.274 5.936zm-9.768 6.228l8.304 4.79v-9.58l-8.305-4.79v9.58zm-1.97-9.582L20.79 8.384v9.582l8.304-4.791V3.593zM18.102 20.681l-9.581.026-4.765 8.304 9.582-.026 4.764-8.304zm-4.764 10.327l-9.582.026 4.818 8.278 9.582-.027-4.818-8.277zm38.354-10.3l4.79 8.303-9.581-.026-4.791-8.304 9.582.026zm-.08 18.604l-9.582-.027 4.818-8.277 9.581.026-4.817 8.278z" fill="url(#a)"/><path d="M35.988 41.281H24.144a.983.983 0 0 1-.985-.984v-9.343h-3.912a1 1 0 0 1-.905-.585.98.98 0 0 1 .186-1.065L29.361 17.54a.95.95 0 0 1 .718-.32.95.95 0 0 1 .719.32l10.833 11.764c.266.293.346.719.186 1.065a.957.957 0 0 1-.905.585h-3.94v9.343a.966.966 0 0 1-.984.984zm-10.833-1.97h9.848V29.97c0-.56.453-.985.985-.985h2.662l-8.597-9.316-8.597 9.316h2.661c.56 0 .985.452.985.985v9.342h.053zm54.471-17.319c.938.22 1.68.675 2.222 1.364.557.69.836 1.489.836 2.398 0 1.335-.447 2.376-1.342 3.124-.88.748-2.149 1.122-3.806 1.122h-7.238V14.446h7.062c1.584 0 2.808.345 3.674 1.034.865.69 1.298 1.672 1.298 2.948 0 .939-.25 1.723-.748 2.354-.499.616-1.151 1.02-1.958 1.21zm-5.566-1.188h2.464c1.305 0 1.958-.557 1.958-1.672 0-1.115-.668-1.672-2.002-1.672h-2.42v3.344zm2.684 6.138c1.393 0 2.09-.572 2.09-1.716 0-.557-.184-.99-.55-1.298-.367-.323-.888-.484-1.562-.484H74.06v3.498h2.684zm7.575-12.672c0-.572.205-1.041.616-1.408.41-.381.953-.572 1.628-.572.675 0 1.217.19 1.628.572.41.367.616.836.616 1.408 0 .557-.205 1.027-.616 1.408-.41.367-.953.55-1.628.55-.675 0-1.217-.183-1.628-.55a1.846 1.846 0 0 1-.616-1.408zm4.114 3.454V30H84.67V17.724h3.762zm9.549 9.042V30h-1.694c-1.437 0-2.56-.352-3.366-1.056-.792-.719-1.188-1.9-1.188-3.542v-4.51h-1.65v-3.168h1.65V14.71h3.762v3.014h2.464v3.168h-2.464v4.576c0 .484.096.821.286 1.012.206.19.543.286 1.012.286h1.188zm4.733-12.298v9.218c0 1.379.3 2.405.902 3.08.616.675 1.474 1.012 2.574 1.012 1.085 0 1.928-.337 2.53-1.012.616-.675.924-1.701.924-3.08v-9.218h2.508v9.218c0 2.127-.55 3.74-1.65 4.84-1.1 1.085-2.552 1.628-4.356 1.628-1.79 0-3.227-.543-4.312-1.628-1.086-1.1-1.628-2.713-1.628-4.84v-9.218h2.508zm19.313 3.256c1.056 0 1.995.25 2.816.748.836.499 1.489 1.217 1.958 2.156.47.939.704 2.039.704 3.3 0 1.276-.234 2.383-.704 3.322-.469.939-1.122 1.657-1.958 2.156-.821.499-1.76.748-2.816.748-1.1 0-2.038-.271-2.816-.814a4.26 4.26 0 0 1-1.628-2.156v8.58h-2.508V17.878h2.508v2.816a4.258 4.258 0 0 1 1.628-2.156c.778-.543 1.716-.814 2.816-.814zm-.77 2.2c-.704 0-1.334.169-1.892.506-.557.323-.997.792-1.32 1.408-.322.601-.484 1.298-.484 2.09 0 .807.162 1.51.484 2.112a3.6 3.6 0 0 0 1.32 1.408c.558.323 1.188.484 1.892.484 1.115 0 2.01-.352 2.684-1.056.675-.719 1.012-1.701 1.012-2.948 0-1.232-.337-2.207-1.012-2.926-.674-.719-1.569-1.078-2.684-1.078zm11.172-6.204V30h-2.508V13.72h2.508zm8.579 4.004c1.173 0 2.229.25 3.168.748a5.367 5.367 0 0 1 2.2 2.156c.528.939.792 2.039.792 3.3 0 1.276-.264 2.383-.792 3.322a5.368 5.368 0 0 1-2.2 2.156c-.939.499-1.995.748-3.168.748s-2.229-.25-3.168-.748a5.554 5.554 0 0 1-2.2-2.156c-.528-.953-.792-2.06-.792-3.322 0-1.261.264-2.361.792-3.3a5.552 5.552 0 0 1 2.2-2.156c.939-.499 1.995-.748 3.168-.748zm0 2.178c-.645 0-1.239.147-1.782.44-.543.293-.983.748-1.32 1.364-.323.601-.484 1.342-.484 2.222 0 .895.161 1.643.484 2.244.337.601.777 1.049 1.32 1.342a3.69 3.69 0 0 0 1.782.44 3.69 3.69 0 0 0 1.782-.44c.543-.293.975-.74 1.298-1.342.337-.601.506-1.35.506-2.244 0-.88-.169-1.62-.506-2.222-.323-.616-.755-1.07-1.298-1.364a3.688 3.688 0 0 0-1.782-.44zm13.433-2.178c1.1 0 2.039.271 2.816.814a4.373 4.373 0 0 1 1.65 2.156v-2.816h2.508V30h-2.508v-2.816a4.374 4.374 0 0 1-1.65 2.156c-.777.543-1.716.814-2.816.814-1.056 0-2.002-.25-2.838-.748-.821-.499-1.466-1.217-1.936-2.156-.469-.939-.704-2.046-.704-3.322 0-1.261.235-2.361.704-3.3.47-.939 1.115-1.657 1.936-2.156.836-.499 1.782-.748 2.838-.748zm.77 2.2c-1.114 0-2.009.36-2.684 1.078-.66.704-.99 1.68-.99 2.926 0 1.247.33 2.23.99 2.948.675.704 1.57 1.056 2.684 1.056.704 0 1.335-.161 1.892-.484a3.586 3.586 0 0 0 1.32-1.408c.323-.601.484-1.305.484-2.112 0-.792-.161-1.489-.484-2.09-.322-.616-.762-1.085-1.32-1.408-.557-.337-1.188-.506-1.892-.506zm14.076-2.2c1.1 0 2.039.271 2.816.814a4.258 4.258 0 0 1 1.628 2.156V13.72h2.53V30h-2.53v-2.816a4.26 4.26 0 0 1-1.628 2.156c-.777.543-1.716.814-2.816.814-1.056 0-2.002-.25-2.838-.748-.821-.499-1.467-1.217-1.936-2.156-.469-.939-.704-2.046-.704-3.322 0-1.261.235-2.361.704-3.3.469-.939 1.115-1.657 1.936-2.156.836-.499 1.782-.748 2.838-.748zm.77 2.2c-1.115 0-2.009.36-2.684 1.078-.66.704-.99 1.68-.99 2.926 0 1.247.33 2.23.99 2.948.675.704 1.569 1.056 2.684 1.056.704 0 1.335-.161 1.892-.484a3.6 3.6 0 0 0 1.32-1.408c.323-.601.484-1.305.484-2.112 0-.792-.161-1.489-.484-2.09-.323-.616-.763-1.085-1.32-1.408-.557-.337-1.188-.506-1.892-.506z" fill="#fff"/><defs><linearGradient id="a" x1="5.835" y1="41.448" x2="51.948" y2="9.292" gradientUnits="userSpaceOnUse"><stop stop-color="#40B8FF"/><stop offset=".258" stop-color="#9556EF"/><stop offset=".464" stop-color="#EB505C"/><stop offset=".74" stop-color="#F29160"/><stop offset="1" stop-color="#FAD464"/></linearGradient></defs></svg>