<svg width="288" height="45" viewBox="0 0 288 45" fill="none" xmlns="http://www.w3.org/2000/svg"><mask id="a" maskUnits="userSpaceOnUse" x="0" y="0" width="289" height="46"><path d="M23.713.022C21.558.08 19.46-.094 17.305.08c-1.398.058-2.447 1.22-2.854 2.498C10.662 13.208 6.933 23.84 3.146 34.47L0 43.127l5.71-.175c1.457-.058 2.505-1.278 2.913-2.614.641-1.859 1.224-3.718 1.865-5.577h-.059.059c.757-2.382 1.573-4.705 2.33-7.087h13.634c.757 2.382 1.573 4.822 2.33 7.203h7.633A8511.137 8511.137 0 0 1 23.714.022zm-8.972 21.785c1.631-4.938 3.263-9.876 4.894-14.756 1.631 4.938 3.263 9.876 4.894 14.755h-9.788zM288 43.417c-2.971-4.59-11.303-17.37-14.216-21.843 3.67-5.693 7.283-11.444 10.953-17.137-2.155 0-4.311-.058-6.467.058-1.107 0-2.039.697-2.564 1.685-2.039 3.485-4.02 6.913-6.059 10.398a577.314 577.314 0 0 1-4.661-8.075h-7.866a1637.91 1637.91 0 0 1 8.332 13.071c-2.972 4.59-5.885 9.237-8.856 13.884 2.68-.058 5.418.059 8.098-.058 1.923-2.672 3.38-5.693 5.128-8.481 3.262 5.519 6.584 11.037 9.846 16.614H288v-.116zM205.09 8.155h-8.507c-2.913 3.31-5.768 6.622-8.623 9.934V3.623c.059-1.626-1.282-3.137-2.855-3.31-1.398-.117-2.855-.059-4.253-.059V35.11h7.108c.059-3.544-.116-7.146.117-10.747.757-1.22 2.272-.756 2.855.348 2.097 3.37 3.845 6.913 5.768 10.34h8.507a2469.21 2469.21 0 0 1-9.731-16.614c3.147-3.37 6.409-6.797 9.614-10.282zm8.215 3.427c0-2.672.059-5.286 0-7.958.059-1.627-1.223-3.196-2.796-3.428-1.34-.174-2.739-.058-4.079-.058 0 8.075-.058 16.15 0 24.225.058 3.311 1.165 7.087 4.253 8.83 4.603 2.788 10.605 3.311 15.499.987 3.146-1.568 4.719-5.112 5.36-8.365.932-5.286.233-11.444-3.671-15.453-3.903-4.124-11.536-3.66-14.566 1.22zm9.905 16.266c-1.981 2.614-6.584 2.614-8.448-.116-1.515-2.265-1.573-5.112-1.398-7.726.174-2.498 1.34-5.345 3.962-6.1 1.806-.523 4.02-.29 5.36 1.104 1.69 1.626 2.156 4.124 2.156 6.39s-.233 4.647-1.632 6.448zM48.884 7.69c-3.671-.407-7.691.348-10.371 3.02-2.972 2.905-3.846 7.262-3.73 11.213.059 3.834.991 7.9 3.904 10.63 3.496 3.428 9.031 3.719 13.46 2.266 3.612-1.22 6.234-4.357 7.166-8.017-1.923 0-3.846-.116-5.768.058-1.573.117-2.156 1.86-3.496 2.382-2.097.872-4.953.755-6.526-1.103-1.165-1.279-1.398-3.08-1.573-4.706h17.713c.174-3.776-.175-7.784-2.273-10.98-1.806-2.904-5.127-4.53-8.506-4.763zM41.95 18.844c.233-1.22.408-2.556 1.224-3.544 1.631-2.15 5.01-2.44 7.166-1.046 1.515.988 1.865 2.905 2.098 4.59-3.438.058-6.992.058-10.488 0zm56.575-8.482c-3.147-2.846-7.75-3.253-11.77-2.498-3.729.756-6.875 3.66-7.982 7.204-1.457 4.647-1.282 9.876.583 14.407 1.806 4.008 6.292 5.983 10.487 6.1 3.263.058 6.7-.814 9.09-3.196 2.854-2.846 3.787-7.029 3.787-10.98 0-3.95-1.166-8.248-4.195-11.037zm-2.739 11.503c-.116 2.44-.466 5.17-2.447 6.855-2.272 2.149-6.584 1.103-7.632-1.801-.991-2.498-1.108-5.287-.874-7.959.29-2.15 1.34-4.59 3.67-5.17 1.806-.697 4.079-.29 5.36 1.278 1.69 1.8 1.981 4.473 1.923 6.797zm24.122-14.001c-4.312-.871-8.915.175-12.527 2.673-2.738 2.033-3.554 5.693-3.554 8.946v25.503c1.282 0 2.564.058 3.845-.059 1.69-.116 3.147-1.742 3.088-3.427 0-3.311.059-6.623 0-9.876 2.797 4.706 9.847 5.17 13.867 1.86 2.855-2.325 4.254-6.043 4.603-9.644.408-4.183-.116-8.656-2.622-12.142-1.573-2.149-4.195-3.253-6.7-3.834zm.524 20.1c-1.981 2.44-6.234 2.208-8.099-.29-1.689-2.15-1.747-5.054-1.573-7.61.117-2.324.991-4.996 3.263-6.042 2.098-.93 4.953-.58 6.409 1.278 1.399 1.685 1.748 4.008 1.806 6.1.117 2.324-.291 4.764-1.806 6.564zM147.35 8.329c-3.554-.93-7.399-1.104-10.895-.058-3.03.93-5.361 3.66-5.827 6.797h6.759c1.34-2.15 4.195-2.208 6.409-1.685.99.174 2.214.639 2.331 1.8.291 1.395-1.107 2.208-2.273 2.499-2.971.871-6.234.697-9.089 2.033-2.039.813-3.962 2.324-4.486 4.531-.641 2.73-.525 5.984 1.282 8.308 1.922 2.207 4.952 3.137 7.807 3.078 2.738-.058 5.652-.174 8.157-1.452 3.03-1.394 5.069-4.59 5.244-7.9.233-3.893.116-7.727.058-11.619 0-3.079-2.564-5.577-5.477-6.332zm-2.097 19.461c-1.399 2.15-4.37 2.847-6.759 2.207-2.622-.813-2.564-5.112-.058-6.041 2.505-.988 5.302-1.162 7.807-2.324-.058 2.033.233 4.357-.99 6.158zm28.316-.813c-1.457.58-2.214 2.265-3.845 2.556-2.681.93-6.002-.349-6.934-3.137-1.049-3.37-1.107-7.262.408-10.515 1.864-3.543 7.691-3.137 9.264.523h7.05c-.757-2.208-1.748-4.473-3.612-6.042-2.739-2.381-6.584-3.02-10.138-2.672-3.03.232-5.943 1.685-7.75 4.067-2.447 3.136-2.971 7.261-2.796 11.153.116 3.66 1.282 7.436 4.078 9.934 3.438 3.137 8.623 3.428 12.935 2.15 3.729-1.162 6.526-4.357 7.516-8.133-2.098 0-4.137-.175-6.176.116z" fill="#53B2C9"/><path d="M253.799 10.188c-3.146-2.672-7.633-3.02-11.536-2.266-3.788.756-6.934 3.718-8.041 7.378-1.456 4.648-1.282 9.818.641 14.29 1.806 4.01 6.351 5.985 10.546 6.1 3.263 0 6.7-.813 9.031-3.252 2.855-2.847 3.787-7.03 3.729-10.922 0-4.183-1.224-8.54-4.37-11.328zm-2.564 11.735c-.116 2.44-.466 5.17-2.447 6.855-2.214 2.15-6.467 1.162-7.632-1.685-.991-2.382-1.107-5.054-.933-7.552.233-2.324 1.282-5.054 3.787-5.693 1.807-.697 4.079-.233 5.303 1.278 1.689 1.8 1.981 4.415 1.922 6.797zm-188.775-.93c-.059 4.706 0 9.47 0 14.175h7.107V21.516c0-1.8.292-3.834 1.807-4.996 1.806-1.394 4.253-1.045 6.35-1.104V8.155c-3.728 0-7.749.523-10.778 2.904-3.03 2.266-4.37 6.216-4.487 9.934z" fill="#53B2C9"/></mask><g mask="url(#a)"><path d="M23.713.022C21.558.08 19.46-.094 17.305.08c-1.398.058-2.447 1.22-2.854 2.498C10.662 13.208 6.933 23.84 3.146 34.47L0 43.127l5.71-.175c1.457-.058 2.505-1.278 2.913-2.614.641-1.859 1.224-3.718 1.865-5.577h-.059.059c.757-2.382 1.573-4.705 2.33-7.087h13.634c.757 2.382 1.573 4.822 2.33 7.203h7.633A8511.137 8511.137 0 0 1 23.714.022zm-8.972 21.785c1.631-4.938 3.263-9.876 4.894-14.756 1.631 4.938 3.263 9.876 4.894 14.755h-9.788zM288 43.417c-2.971-4.59-11.303-17.37-14.216-21.843 3.67-5.693 7.283-11.444 10.953-17.137-2.155 0-4.311-.058-6.467.058-1.107 0-2.039.697-2.564 1.685-2.039 3.485-4.02 6.913-6.059 10.398a577.314 577.314 0 0 1-4.661-8.075h-7.866a1637.91 1637.91 0 0 1 8.332 13.071c-2.972 4.59-5.885 9.237-8.856 13.884 2.68-.058 5.418.059 8.098-.058 1.923-2.672 3.38-5.693 5.128-8.481 3.262 5.519 6.584 11.037 9.846 16.614H288v-.116zM205.09 8.155h-8.507c-2.913 3.31-5.768 6.622-8.623 9.934V3.623c.059-1.626-1.282-3.137-2.855-3.31-1.398-.117-2.855-.059-4.253-.059V35.11h7.108c.059-3.544-.116-7.146.117-10.747.757-1.22 2.272-.756 2.855.348 2.097 3.37 3.845 6.913 5.768 10.34h8.507a2469.21 2469.21 0 0 1-9.731-16.614c3.147-3.37 6.409-6.797 9.614-10.282zm8.215 3.427c0-2.672.059-5.286 0-7.958.059-1.627-1.223-3.196-2.796-3.428-1.34-.174-2.739-.058-4.079-.058 0 8.075-.058 16.15 0 24.225.058 3.311 1.165 7.087 4.253 8.83 4.603 2.788 10.605 3.311 15.499.987 3.146-1.568 4.719-5.112 5.36-8.365.932-5.286.233-11.444-3.671-15.453-3.903-4.124-11.536-3.66-14.566 1.22zm9.905 16.266c-1.981 2.614-6.584 2.614-8.448-.116-1.515-2.265-1.573-5.112-1.398-7.726.174-2.498 1.34-5.345 3.962-6.1 1.806-.523 4.02-.29 5.36 1.104 1.69 1.626 2.156 4.124 2.156 6.39s-.233 4.647-1.632 6.448zM48.884 7.69c-3.671-.407-7.691.348-10.371 3.02-2.972 2.905-3.846 7.262-3.73 11.213.059 3.834.991 7.9 3.904 10.63 3.496 3.428 9.031 3.719 13.46 2.266 3.612-1.22 6.234-4.357 7.166-8.017-1.923 0-3.846-.116-5.768.058-1.573.117-2.156 1.86-3.496 2.382-2.097.872-4.953.755-6.526-1.103-1.165-1.279-1.398-3.08-1.573-4.706h17.713c.174-3.776-.175-7.784-2.273-10.98-1.806-2.904-5.127-4.53-8.506-4.763zM41.95 18.844c.233-1.22.408-2.556 1.224-3.544 1.631-2.15 5.01-2.44 7.166-1.046 1.515.988 1.865 2.905 2.098 4.59-3.438.058-6.992.058-10.488 0zm56.575-8.482c-3.147-2.846-7.75-3.253-11.77-2.498-3.729.756-6.875 3.66-7.982 7.204-1.457 4.647-1.282 9.876.583 14.407 1.806 4.008 6.292 5.983 10.487 6.1 3.263.058 6.7-.814 9.09-3.196 2.854-2.846 3.787-7.029 3.787-10.98 0-3.95-1.166-8.248-4.195-11.037zm-2.739 11.503c-.116 2.44-.466 5.17-2.447 6.855-2.272 2.149-6.584 1.103-7.632-1.801-.991-2.498-1.108-5.287-.874-7.959.29-2.15 1.34-4.59 3.67-5.17 1.806-.697 4.079-.29 5.36 1.278 1.69 1.8 1.981 4.473 1.923 6.797zm24.122-14.001c-4.312-.871-8.915.175-12.527 2.673-2.738 2.033-3.554 5.693-3.554 8.946v25.503c1.282 0 2.564.058 3.845-.059 1.69-.116 3.147-1.742 3.088-3.427 0-3.311.059-6.623 0-9.876 2.797 4.706 9.847 5.17 13.867 1.86 2.855-2.325 4.254-6.043 4.603-9.644.408-4.183-.116-8.656-2.622-12.142-1.573-2.149-4.195-3.253-6.7-3.834zm.524 20.1c-1.981 2.44-6.234 2.208-8.099-.29-1.689-2.15-1.747-5.054-1.573-7.61.117-2.324.991-4.996 3.263-6.042 2.098-.93 4.953-.58 6.409 1.278 1.399 1.685 1.748 4.008 1.806 6.1.117 2.324-.291 4.764-1.806 6.564zM147.35 8.329c-3.554-.93-7.399-1.104-10.895-.058-3.03.93-5.361 3.66-5.827 6.797h6.759c1.34-2.15 4.195-2.208 6.409-1.685.99.174 2.214.639 2.331 1.8.291 1.395-1.107 2.208-2.273 2.499-2.971.871-6.234.697-9.089 2.033-2.039.813-3.962 2.324-4.486 4.531-.641 2.73-.525 5.984 1.282 8.308 1.922 2.207 4.952 3.137 7.807 3.078 2.738-.058 5.652-.174 8.157-1.452 3.03-1.394 5.069-4.59 5.244-7.9.233-3.893.116-7.727.058-11.619 0-3.079-2.564-5.577-5.477-6.332zm-2.097 19.461c-1.399 2.15-4.37 2.847-6.759 2.207-2.622-.813-2.564-5.112-.058-6.041 2.505-.988 5.302-1.162 7.807-2.324-.058 2.033.233 4.357-.99 6.158zm28.316-.813c-1.457.58-2.214 2.265-3.845 2.556-2.681.93-6.002-.349-6.934-3.137-1.049-3.37-1.107-7.262.408-10.515 1.864-3.543 7.691-3.137 9.264.523h7.05c-.757-2.208-1.748-4.473-3.612-6.042-2.739-2.381-6.584-3.02-10.138-2.672-3.03.232-5.943 1.685-7.75 4.067-2.447 3.136-2.971 7.261-2.796 11.153.116 3.66 1.282 7.436 4.078 9.934 3.438 3.137 8.623 3.428 12.935 2.15 3.729-1.162 6.526-4.357 7.516-8.133-2.098 0-4.137-.175-6.176.116z" fill="#53B2C9"/><path d="M253.799 10.188c-3.146-2.672-7.633-3.02-11.536-2.266-3.788.756-6.934 3.718-8.041 7.378-1.456 4.648-1.282 9.818.641 14.29 1.806 4.01 6.351 5.985 10.546 6.1 3.263 0 6.7-.813 9.031-3.252 2.855-2.847 3.787-7.03 3.729-10.922 0-4.183-1.224-8.54-4.37-11.328zm-2.564 11.735c-.116 2.44-.466 5.17-2.447 6.855-2.214 2.15-6.467 1.162-7.632-1.685-.991-2.382-1.107-5.054-.933-7.552.233-2.324 1.282-5.054 3.787-5.693 1.807-.697 4.079-.233 5.303 1.278 1.689 1.8 1.981 4.415 1.922 6.797zm-188.775-.93c-.059 4.706 0 9.47 0 14.175h7.107V21.516c0-1.8.292-3.834 1.807-4.996 1.806-1.394 4.253-1.045 6.35-1.104V8.155c-3.728 0-7.749.523-10.778 2.904-3.03 2.266-4.37 6.216-4.487 9.934z" fill="#53B2C9"/><path opacity=".5" fill="url(#b)" d="M-2.182-4.39h303.273v54.878H-2.182z"/></g><defs><linearGradient id="b" x1="149.454" y1="-4.39" x2="149.454" y2="50.488" gradientUnits="userSpaceOnUse"><stop stop-color="#6E45E2"/><stop offset="1" stop-color="#88D3CE"/></linearGradient></defs></svg>