<?xml version="1.0" encoding="UTF-8"?>
<svg xmlns="http://www.w3.org/2000/svg" xmlns:xlink="http://www.w3.org/1999/xlink" viewBox="0 0 150 150" width="150px" height="150px">
<g id="surface113612904">
<path style=" stroke:none;fill-rule:nonzero;fill:rgb(100%,100%,100%);fill-opacity:1;" d="M 24 9.035156 C 18.9375 9.035156 14.507812 10.476562 11.261719 13.09375 C 8.015625 15.714844 6.035156 19.601562 6.035156 23.839844 C 6.035156 32.074219 13.40625 38.445312 23.152344 38.824219 C 23.425781 38.914062 23.710938 38.960938 24 38.964844 C 29.261719 38.964844 33.738281 37.421875 36.9375 34.691406 C 40.136719 31.964844 41.964844 28.027344 41.964844 23.839844 C 41.964844 23.785156 41.960938 23.730469 41.960938 23.679688 C 41.496094 15.394531 34.125 9.035156 24 9.035156 Z M 24 14.964844 C 31.828125 14.964844 35.6875 18.808594 36.015625 23.917969 C 35.996094 26.414062 35.03125 28.535156 33.09375 30.1875 C 31.136719 31.859375 28.113281 33.035156 24 33.035156 C 16.195312 33.035156 11.964844 28.796875 11.964844 23.839844 C 11.964844 21.363281 12.984375 19.328125 14.988281 17.707031 C 16.992188 16.085938 20.0625 14.964844 24 14.964844 Z M 9 45 C 7.34375 45 6 46.34375 6 48 L 6 135 C 6 136.65625 7.34375 138 9 138 L 39 138 C 40.65625 138 42 136.65625 42 135 L 42 48 C 42 46.34375 40.65625 45 39 45 Z M 54 45 C 52.34375 45 51 46.34375 51 48 L 51 135 C 51 136.65625 52.34375 138 54 138 L 84 138 C 85.65625 138 87 136.65625 87 135 L 87 85.5 C 87 79.667969 91.667969 75 97.5 75 C 103.332031 75 108 79.667969 108 85.5 L 108 135 C 108 136.65625 109.34375 138 111 138 L 141 138 C 142.65625 138 144 136.65625 144 135 L 144 84 C 144 71.621094 140.363281 61.8125 134.234375 55.125 C 128.101562 48.4375 119.546875 45 110.363281 45 C 98.648438 45 91.566406 49.277344 87 52.804688 L 87 48 C 87 46.34375 85.65625 45 84 45 Z M 12 51 L 36 51 L 36 132 L 12 132 Z M 57 51 L 81 51 L 81 58.914062 C 81 60.160156 81.765625 61.273438 82.925781 61.71875 C 84.085938 62.160156 85.402344 61.84375 86.230469 60.921875 C 86.230469 60.921875 95.128906 51 110.359375 51 C 118.078125 51 124.847656 53.765625 129.808594 59.179688 C 134.769531 64.59375 138 72.785156 138 84 L 138 132 L 114 132 L 114 85.5 C 114.003906 85.078125 113.917969 84.65625 113.746094 84.269531 C 113.082031 75.792969 106.140625 69 97.5 69 C 88.421875 69 81 76.421875 81 85.5 L 81 132 L 57 132 Z M 57 51 "/>
</g>
</svg>
