<?xml version="1.0" encoding="utf-8"?>
<!DOCTYPE svg PUBLIC "-//W3C//DTD SVG 1.1//EN" "http://www.w3.org/Graphics/SVG/1.1/DTD/svg11.dtd">
<svg xmlns="http://www.w3.org/2000/svg" xmlns:xlink="http://www.w3.org/1999/xlink" version="1.1" viewBox="0 0 512 512" enable-background="new 0 0 512 512" width="512px" height="512px">
  <g>
    <path d="m421.4,11.9h-330.8l-77,113.4 242.4,375.6 242.4-375.6-77-113.4zm-98.5,122.8l-66.9,301.7-67.9-301.7h134.8zm-125.7-19.8l59.2-76.2 59.2,76.2h-118.4zm138.9-7.3l-58.9-75.9h117.8l-58.9,75.9zm-159.2,1.1l-59.7-77h119.4l-59.7,77zm-21.4,6.2h-110.9l51.7-76.3 59.2,76.3zm12.9,19.8l66.5,297-191.3-297h124.8zm174.2,0h125.9l-193,299.4 67.1-299.4zm124.8-19.8h-110.8l59.2-76.2 51.6,76.2z" fill="#fc5f45"/>
  </g>
</svg>
