<svg xmlns="http://www.w3.org/2000/svg" viewBox="0 0 638.06 638.06" fill="#51626c"><path d="M303.4 319.03c.58-7.52-1.7-15.2-7.47-20.94L58.79 61.34c-10.47-10.44-27.43-10.44-37.9 0-10.47 10.45-10.47 27.38 0 37.85L241.1 319.03 20.88 538.87c-10.47 10.45-10.47 27.38 0 37.82 10.47 10.45 27.43 10.45 37.9 0l237.15-236.75c5.77-5.73 8.03-13.39 7.47-20.91zm314.12-20.94L326.77 7.83c-10.47-10.44-27.43-10.44-37.9 0-10.47 10.45-10.47 27.4 0 37.82L562.7 319.02 288.86 592.38c-10.47 10.45-10.47 27.38 0 37.85 10.47 10.45 27.43 10.45 37.9 0l290.73-290.25c5.77-5.74 8.03-13.42 7.44-20.95.62-7.52-1.67-15.2-7.41-20.94z"/></svg>