<svg fill="#00abb9" xmlns="http://www.w3.org/2000/svg" viewBox="-49 141 512 512"><path d="M444.94 377.9L267.26 200.21c-5.07-5.07-11.83-7.86-19.04-7.86-7.22 0-13.97 2.79-19.04 7.86l-16.13 16.14c-5.07 5.06-7.86 11.83-7.86 19.04 0 7.21 2.79 14.2 7.86 19.26L316.7 358.54H-12.62c-14.85 0-26.58 11.62-26.58 26.48v22.81c0 14.85 11.73 27.65 26.58 27.65h330.5L213.05 539.94c-5.07 5.07-7.86 11.65-7.86 18.86 0 7.2 2.79 13.88 7.86 18.95l16.13 16.08c5.07 5.07 11.83 7.84 19.04 7.84 7.21 0 13.97-2.8 19.04-7.87l177.68-177.68c5.08-5.09 7.88-11.88 7.86-19.1.02-7.25-2.77-14.04-7.86-19.12"/></svg>