<svg fill="#51626c" xmlns="http://www.w3.org/2000/svg" viewBox="-49 141 512 512"><path d="M390.82 291.6a8.15 8.15 0 0 0-.9-2.62v-.06c0-.06-.09-.09-.13-.14a7.819 7.819 0 0 0-1.74-1.93c-.17-.15-.35-.29-.53-.42-.14-.1-.26-.23-.42-.33l-176-104a7.97 7.97 0 0 0-8.14 0l-176 104c-2.45 1.45-3.96 4.07-3.96 6.9v208c0 2.83 1.49 5.45 3.93 6.89l176 104c.21.1.42.19.63.26.23.11.46.21.7.3 1.76.74 3.73.74 5.49 0 .24-.09.46-.18.7-.3.22-.08.43-.16.63-.26l176-104a7.995 7.995 0 0 0 3.93-6.89V293c0-.24-.07-.46-.09-.7s-.06-.46-.1-.7zM207 198.3L367.27 293l-41.6 24.58-74.59-44.08c-3.8-2.25-8.71-.99-10.96 2.82-2.25 3.8-.99 8.71 2.82 10.96l67.01 39.6-41.6 24.58-160.28-94.7 41.6-24.59 69.26 40.93c3.75 2.33 8.69 1.18 11.02-2.58 2.33-3.75 1.18-8.69-2.58-11.02-.1-.06-.2-.12-.29-.17l-61.67-36.45L207 198.3zm69.34 167.02l41.33-24.42v53.42l-41.33 24.42v-53.42zM215 590.98V565c0-4.42-3.58-8-8-8s-8 3.58-8 8v25.98L39 496.43V297.57l53.34-31.52 160.26 94.71L207 387.7 62.15 302.1c-3.8-2.25-8.71-.99-10.96 2.82-2.25 3.8-.99 8.71 2.82 10.96L199 401.57V533c0 4.42 3.58 8 8 8s8-3.58 8-8V401.57l45.34-26.79v57.98c0 4.42 3.58 8 8 8 1.43 0 2.84-.38 4.07-1.11l57.33-33.85a7.995 7.995 0 0 0 3.93-6.89v-67.46L375 307.02v189.42l-160 94.54z"/><path d="M63 445c-4.42 0-8 3.58-8 8v32c0 4.42 3.58 8 8 8s8-3.58 8-8v-32c0-4.42-3.58-8-8-8zm32 16c-4.42 0-8 3.58-8 8v32c0 4.42 3.58 8 8 8s8-3.58 8-8v-32c0-4.42-3.58-8-8-8z"/></svg>