<svg fill="#51626c" xmlns="http://www.w3.org/2000/svg" viewBox="0 0 612 792"><path d="M192.72 393.3c-2.63 0-5.2-1.07-7.07-2.93a9.57 9.57 0 0 1-1.24-1.52c-.36-.54-.67-1.12-.92-1.72-.25-.61-.44-1.24-.57-1.88a9.84 9.84 0 0 1-.19-1.95 9.84 9.84 0 0 1 .76-3.82c.25-.61.56-1.19.92-1.73.37-.55.78-1.06 1.24-1.52 2.32-2.32 5.78-3.39 9.03-2.73a10.098 10.098 0 0 1 3.6 1.49c.54.36 1.06.78 1.52 1.24 1.86 1.86 2.93 4.44 2.93 7.07 0 .65-.07 1.31-.2 1.95-.13.64-.32 1.27-.57 1.88-.25.6-.56 1.18-.92 1.72-.36.55-.78 1.06-1.24 1.52s-.98.88-1.52 1.25a10.098 10.098 0 0 1-3.6 1.49c-.65.13-1.3.19-1.96.19zm263.77 44.83c-37.53 0-68.06-30.53-68.06-68.06 0-37.52 30.53-68.05 68.06-68.05s68.06 30.53 68.06 68.05c0 37.53-30.53 68.06-68.06 68.06zm0-116.11c-26.5 0-48.06 21.56-48.06 48.06 0 26.5 21.56 48.05 48.06 48.05 26.5 0 48.06-21.56 48.06-48.05 0-26.51-21.56-48.06-48.06-48.06zm0 0"/><path d="M562 370.07c0-54.86-42.09-100.08-95.68-105.05v-31.1c0-3.89-2.25-7.43-5.78-9.07l-130.87-60.92c-.02-.01-1.09-.43-1.1-.43a10.02 10.02 0 0 0-7.34.43l-128.51 58.98-128.56-59a10 10 0 0 0-11.4 2.17C50.93 168 50 170.63 50 173.3v385.2c0 3.91 2.28 7.46 5.83 9.09l132.73 60.92h.01c2.65 1.16 5.68 1.16 8.33 0l128.52-58.99 126.68 58.97c1.34.63 2.78.93 4.22.93 2.63 0 5.25-1.04 7.21-3.07 1.86-1.92 2.79-4.55 2.79-7.21v-96.16C485.13 508.47 562 444.64 562 370.07zM70 188.59l112.73 51.74v93.62c0 5.52 4.48 10 10 10s10-4.48 10-10v-93.62l112.72-51.74v363.49l-112.72 51.74V430.65c0-5.52-4.48-10-10-10s-10 4.48-10 10v173.17L70 552.08V188.59zm265.45 363.53V188.68l110.87 51.61v24.75c-53.42 5.13-95.34 50.27-95.34 105.02 0 73.77 76 137.57 95.34 152.62v81.04l-110.87-51.6zm121.05-46.91c-20.18-16.2-85.52-73.41-85.52-135.14 0-47.14 38.36-85.5 85.51-85.5 47.15 0 85.51 38.36 85.51 85.5 0 61.95-65.32 119-85.5 135.14zm0 0"/><path d="M146.72 291.66c-3.9-3.91-10.24-3.91-14.14 0l-6.21 6.22-6.21-6.22c-3.91-3.91-10.24-3.91-14.14 0-3.9 3.91-3.9 10.24 0 14.14l6.22 6.22-6.22 6.21c-3.9 3.91-3.91 10.24 0 14.14a9.973 9.973 0 0 0 7.07 2.93c2.56 0 5.12-.98 7.07-2.93l6.21-6.21 6.21 6.21a9.973 9.973 0 0 0 7.07 2.93c2.56 0 5.12-.98 7.07-2.93 3.91-3.91 3.91-10.24 0-14.14l-6.22-6.21 6.22-6.22c3.9-3.91 3.9-10.23 0-14.14zm0 0"/></svg>