<svg fill="#51626c" xmlns="http://www.w3.org/2000/svg" viewBox="-49 141 512 512"><path d="M62.27 499.91a10.61 10.61 0 0 0 6.57 2.27c3.17 0 6.3-1.4 8.41-4.09 1.2-1.53 2.49-3.11 3.82-4.69 3.8-4.5 3.24-11.23-1.26-15.03-4.5-3.8-11.23-3.24-15.03 1.26-1.5 1.78-2.96 3.57-4.33 5.31-3.64 4.64-2.82 11.34 1.82 14.97zM207 205c1.83 0 3.64.06 5.39.17.24.02.47.02.71.02 5.57 0 10.26-4.33 10.63-9.97.39-5.88-4.07-10.96-9.95-11.34-2.21-.14-4.49-.22-6.79-.22-5.89 0-10.67 4.78-10.67 10.67.01 5.9 4.79 10.67 10.68 10.67z"/><path d="M452.33 631.67h-16v-32c0-43-11.97-84.93-34.63-121.24a230.189 230.189 0 0 0-81.22-78.06c4.26-11.18 7.69-26.23 11.29-48.05.57-3.47 1.18-6.38 1.88-9.75.75-3.58 1.62-7.76 2.63-13.54h7.4c5.89 0 10.67-4.78 10.67-10.67 0-11.49-4.59-21.41-12.6-29.82.03-.25.06-.49.08-.72.63-5.52.82-7.25.87-8.14.82-15.45-.17-27.64-3.05-37.26-9.25-30.97-26.8-56.82-50.76-74.74C265.54 150.23 237.23 141 207 141s-58.54 9.23-81.88 26.69c-23.96 17.92-41.51 43.76-50.76 74.73-2.83 9.46-3.84 21.36-3.1 36.38.05 1.05.31 3.69.85 9.05.03.25.05.52.08.78-7.97 8.39-12.53 18.28-12.53 29.74 0 5.89 4.78 10.67 10.67 10.67h7.4c.99 5.7 1.85 9.8 2.63 13.56.7 3.36 1.31 6.27 1.88 9.73 3.59 21.81 7.03 36.87 11.28 48.05-33.05 18.85-61 45.65-81.22 78.06-22.66 36.31-34.63 78.23-34.63 121.23v32h-16c-5.89 0-10.67 4.78-10.67 10.67s4.78 10.67 10.67 10.67h490.67c5.89 0 10.67-4.78 10.67-10.67-.01-5.9-4.78-10.67-10.68-10.67zM84.25 307.7c6.7-10.6 22.23-17.74 32.45-21.48 23.3-8.52 56.22-13.4 90.3-13.4 34.09 0 67 4.89 90.3 13.4 10.22 3.74 25.75 10.87 32.45 21.48H84.25zm10.55-59.17c15.88-53.17 58.87-86.19 112.2-86.19 53.33 0 96.32 33.03 112.2 86.2 1.87 6.24 2.66 14.74 2.39 25.24-6.33-3.38-13.38-6.36-21.01-8.95-.69-6.72-2.54-12.54-2.83-13.43-9.03-27.39-27.1-48.45-50.88-59.32-5.36-2.45-11.69-.09-14.14 5.27-2.45 5.36-.09 11.69 5.27 14.14 18.32 8.37 32.34 24.92 39.48 46.58.05.14.1.3.15.47-21.79-4.75-46.24-7.04-70.63-7.04-42.98 0-86.18 7.1-114.58 22.28-.28-10.54.51-19.02 2.38-25.25zm219.8 80.5c-.67 3.59-1.27 6.48-1.83 9.18-.72 3.46-1.4 6.72-2.05 10.64-8.96 54.41-14.61 58-38.39 73.13-3.97 2.52-8.46 5.38-13.45 8.76-34.42 19.75-69.32 19.75-103.75 0-5-3.38-9.49-6.24-13.46-8.76-23.78-15.13-29.43-18.72-38.39-73.13-.64-3.91-1.32-7.17-2.04-10.62-.56-2.71-1.17-5.61-1.84-9.2h215.2zM-1 599.66c0-75.24 39.94-143.62 104.87-180.67 4.75 5.83 10.48 10.44 17.71 15.35a187.813 187.813 0 0 0-29.75 19.16c-4.63 3.64-5.43 10.35-1.79 14.98 2.1 2.68 5.23 4.07 8.39 4.07 2.31 0 4.63-.75 6.59-2.29 8.4-6.61 17.48-12.43 26.99-17.3l10.16-5.21c.44.3.87.57 1.31.88.21.14.43.28.65.41 20.61 11.9 41.75 17.93 62.83 17.93h.03c21.1 0 42.25-6.04 62.87-17.94.22-.13.44-.26.65-.41 4.87-3.3 9.33-6.14 13.26-8.64 11.51-7.32 19.85-13.01 26.35-20.99C375.05 456.05 415 524.42 415 599.66v32h-58.67v-52.84c.01-.17.02-.33.02-.5 0-3.31-1.52-6.26-3.89-8.21-.01-.01-.03-.02-.04-.04-.17-.14-.33-.29-.51-.41l-52.92-42.33a10.68 10.68 0 0 0-6.66-2.34H121.67c-2.42 0-4.77.82-6.66 2.34L61.67 570c-.02.01-.03.03-.05.05-.09.07-.18.16-.27.24-.15.13-.3.26-.44.4l-.26.26c-.14.14-.27.29-.4.44-.08.09-.16.18-.24.28-.13.16-.25.33-.37.5-.06.09-.13.17-.19.26-.16.24-.31.49-.45.75-.07.12-.13.25-.2.38-.07.14-.14.29-.21.44-.07.15-.13.3-.19.45-.05.14-.1.27-.15.41-.05.16-.11.31-.15.47-.05.17-.09.34-.13.51-.05.21-.1.43-.14.65-.04.21-.07.41-.09.62l-.03.39c-.02.21-.03.42-.03.63 0 .07-.01.15-.01.22v53.34H-1v-32.03zm218.67-53.33h70.92l26.67 21.33h-97.59v-21.33zm-21.34 21.33H98.74l26.67-21.33h70.92v21.33zM79 631.67V589h117.34v21.34c0 5.89 4.78 10.67 10.67 10.67s10.67-4.78 10.67-10.67V589H335v42.67H79z"/></svg>