<svg fill="#a9a9a9" xmlns="http://www.w3.org/2000/svg" viewBox="0 0 612 792"><path d="M505 212H393v-56c0-4.42-3.58-8-8-8H225c-4.42 0-8 3.58-8 8v56H105c-4.42 0-8 3.58-8 8v56c0 4.42 3.58 8 8 8h24.84l39.2 352.88A7.994 7.994 0 0 0 177 644h256a8 8 0 0 0 7.95-7.12L480.2 284H505c4.42 0 8-3.58 8-8v-56c0-4.42-3.58-8-8-8zm-272-48h144v48h-16v-24c0-4.42-3.58-8-8-8h-96c-4.42 0-8 3.58-8 8v24h-16v-48zm32 48v-16h80v16h-80zm160.8 416H184.2l-38.26-344h318.12L425.8 628zM497 268H113v-40h384v40zm0 0"/><path d="M305 596c13.25 0 24-10.75 24-24V332c0-13.25-10.75-24-24-24s-24 10.75-24 24v240c0 13.25 10.75 24 24 24zm-8-264c0-4.42 3.58-8 8-8s8 3.58 8 8v240c0 4.42-3.58 8-8 8s-8-3.58-8-8V332zm-117.85 2.69L207.4 574.9a23.903 23.903 0 0 0 38.18 16.67 23.878 23.878 0 0 0 9.28-22.27L226.6 329.1c-.87-8.59-6.3-16.04-14.21-19.5a23.91 23.91 0 0 0-23.96 2.83 23.87 23.87 0 0 0-9.28 22.26zm17.83-8a7.788 7.788 0 0 1 5.89-2.69c4 0 7.37 2.99 7.83 6.97l28.27 240.23a7.901 7.901 0 0 1-6.91 8.77 7.886 7.886 0 0 1-8.76-6.91L195.03 332.8c-.26-2.24.46-4.48 1.97-6.15l-.02.04zM378.87 596c12.11 0 22.31-9.07 23.73-21.1l28.25-240.22c1.55-13.11-7.82-24.98-20.92-26.53-13.11-1.55-24.98 7.83-26.53 20.93l-28.25 240.24c-.8 6.77 1.34 13.57 5.87 18.67 4.53 5.1 11.03 8.01 17.85 8.01zm20.43-265.03a7.876 7.876 0 0 1 7.83-6.97 7.893 7.893 0 0 1 7.84 8.8L386.7 573.03a7.876 7.876 0 0 1-7.83 6.97c-2.25 0-4.39-.97-5.89-2.65a7.88 7.88 0 0 1-1.95-6.16l28.27-240.22zm0 0"/></svg>