<svg id="Слой_1" xmlns="http://www.w3.org/2000/svg" viewBox="0 0 24.43 25.6"><style>.st0{fill:#f15f46}</style><path class="st0" d="M.8 13.09c.83.79 1.98.98 2.99 1.15.16.03.32.05.47.08.11.03.26.06.41.1 1.35.32 2.31.62 2.31 1.73 0 .73-.24 1.4-.49 2.12-.29.82-.59 1.67-.54 2.65.09 1.76.84 3.29 2 4.09.46.37 1.07.59 1.65.59.86 0 1.51-.47 1.77-1.29.18-.55.15-1.09.12-1.65-.01-.14-.02-.28-.02-.43-.03-.78.06-1.43.29-2.03.43-1.22 1.3-2.35 2.01-3.2l.39-.49c.54-.68 1.1-1.39 1.73-1.95.31-.25.64-.34 1.07-.43.12-.01 7.48-.08 7.48-.08V3.24s-5.77 0-6.09.02c-.29.02-.56.04-.81.04h-.12c-.24-.05-.48-.08-.73-.11-.22-.02-.45-.05-.69-.09-.27-.05-.55-.32-.82-.57-.16-.15-.31-.29-.46-.4-.16-.11-.3-.22-.46-.33-.47-.34-.96-.7-1.51-.95-.68-.29-1.44-.39-2.17-.48C10.2.31 9.85.27 9.51.2 9.29.18 9.1.16 8.9.13 8.33.07 7.74 0 7.15 0c-.4 0-.75.04-1.08.1C4.9.43 4.16 1.38 4.15 2.46c-.59.24-1.12.74-1.46 1.38-.29.56-.4 1.17-.29 1.71C1.27 6.29.69 7.68 1 8.86c-.5.34-.84.91-.96 1.61-.16.97.14 2 .76 2.62zm.76-2.16c.04-.33.19-.74.7-.84.27-.08.45-.24.54-.46.11-.27.07-.61-.1-.9-.19-.21-.21-.67-.1-1.06.15-.47.49-.8 1.02-.98.23-.03.43-.19.54-.43.13-.27.1-.57-.07-.77-.15-.21-.12-.7.09-1.1.16-.32.4-.5.63-.5.04 0 .07 0 .1.01h.08c.28 0 .64-.12.82-.4.12-.18.14-.41.05-.61-.11-.3-.1-.64.04-.87.1-.16.26-.26.48-.29.38-.1.76-.1 1.13-.1 1.1.1 2.26.2 3.39.41l.54.12c.28.06.55.12.8.18.4.2.86.54 1.29.87.14.11.28.22.42.32.1.08.21.19.33.29.28.27.6.57 1 .68.38.23.78.23 1.1.23 1.05.09 1.54.47 1.8 1.4.25.92.26 1.98.25 2.89v.21c-.01.86-.02 1.94-.46 2.72-.22.38-.66.45-1.17.55-.7.11-1.25.34-1.77.74-.08.03-.15.08-.21.18-.21.15-.38.35-.54.54-.83.9-1.6 1.84-2.2 2.71-.14.21-.28.41-.42.61-.64.91-1.3 1.86-1.58 3.02-.2.86-.18 1.6-.14 2.48l.01.13c.03.53.04 1.11-.26 1.15-.02 0-.04.01-.07.01-.49 0-1.11-.62-1.47-1.19-.38-.73-.58-1.49-.56-2.18.02-.71.25-1.39.5-2.11.29-.85.59-1.73.52-2.68-.1-1.3-1.13-2.42-2.57-2.8-.42-.11-.86-.18-1.29-.25-.8-.13-1.63-.27-2.3-.65-.5-.21-.97-.67-.89-1.28zm0 0"/></svg>