<svg id="Layer_1" xmlns="http://www.w3.org/2000/svg" viewBox="-49 141 512 512"><style>.st0{fill:#51626c}.st1{fill:#00abb9}</style><path class="st0" d="M272.63 587.37c-63.34 0-122.35-31.37-157.85-83.92-7.2-10.65-4.39-25.12 6.26-32.31 10.65-7.19 25.12-4.39 32.31 6.26 26.83 39.72 71.42 63.43 119.28 63.43 79.31 0 143.83-64.52 143.83-143.83 0-79.31-64.52-143.83-143.83-143.83-48 0-92.66 23.82-119.47 63.72-7.17 10.67-21.63 13.5-32.3 6.33-10.67-7.17-13.5-21.63-6.33-32.3 35.48-52.78 94.58-84.3 158.1-84.3C377.6 206.63 463 292.03 463 397s-85.4 190.37-190.37 190.37z"/><path class="st1" d="M300.09 373.73H30.46l30.09-30.09c9.09-9.09 9.09-23.82 0-32.91-9.09-9.09-23.82-9.09-32.91 0l-69.82 69.82c-.03.03-.06.07-.1.11-.5.5-.98 1.03-1.43 1.58-.14.17-.26.35-.39.52-.33.43-.67.86-.97 1.31-.1.15-.18.31-.28.47-.31.49-.62.98-.89 1.49-.06.11-.11.23-.17.34-.29.56-.57 1.13-.81 1.72l-.09.24c-.25.62-.48 1.25-.68 1.9-.03.09-.04.18-.07.26-.19.64-.36 1.28-.49 1.94-.04.2-.06.4-.09.6-.1.55-.19 1.1-.25 1.66a22.387 22.387 0 0 0 0 4.64c.06.57.16 1.12.25 1.68.03.19.05.39.09.58.13.67.31 1.32.49 1.97.02.08.04.16.06.23.2.66.44 1.3.69 1.93.03.07.05.14.08.21.25.6.53 1.18.83 1.75.05.1.09.21.15.31.29.53.6 1.04.92 1.54.09.14.16.28.25.41.32.48.67.94 1.03 1.39.11.15.21.3.33.44.48.59.99 1.15 1.53 1.69l69.82 69.81c4.54 4.54 10.5 6.82 16.46 6.82s11.91-2.27 16.46-6.82c9.09-9.09 9.09-23.82 0-32.91l-30.09-30.09h269.63c12.85 0 23.27-10.42 23.27-23.27s-10.42-23.27-23.27-23.27z"/></svg>