<svg xmlns="http://www.w3.org/2000/svg" viewBox="0 0 612 792"><path d="M385.3 222.55c-30.98 0-59.99 14.03-79.3 37.54-19.31-23.51-48.32-37.54-79.31-37.54-56.62 0-102.69 46.07-102.69 102.7 0 44.34 26.44 95.63 78.59 152.44 40.13 43.71 83.78 77.57 96.2 86.9L306 570l7.21-5.41c12.42-9.33 56.08-43.18 96.21-86.9C461.56 420.88 488 369.59 488 325.25c0-56.63-46.07-102.7-102.7-102.7zm6.43 238.91c-33.01 35.96-68.52 65.03-85.74 78.42-17.21-13.39-52.72-42.46-85.73-78.42-47.28-51.5-72.27-98.6-72.27-136.21 0-43.39 35.3-78.7 78.69-78.7 28.56 0 54.92 15.56 68.81 40.62L306 306.1l10.5-18.93c13.89-25.05 40.25-40.62 68.81-40.62 43.39 0 78.7 35.3 78.7 78.7-.01 37.6-25 84.7-72.28 136.21zm0 0"/></svg>