<svg id="Слой_1" xmlns="http://www.w3.org/2000/svg" viewBox="0 0 512 455.52"><style>.st0{fill:#ff7c00}</style><path class="st0" d="M471.38 44.58C444.88 15.83 408.51 0 368.97 0c-29.55 0-56.62 9.34-80.45 27.77-12.02 9.3-22.92 20.68-32.52 33.96-9.6-13.28-20.5-24.66-32.53-33.96C199.65 9.34 172.58 0 143.03 0 103.49 0 67.12 15.83 40.61 44.58 14.43 72.99 0 111.8 0 153.87c0 43.3 16.14 82.94 50.78 124.74C81.77 316 126.32 353.97 177.9 397.92c17.61 15.01 37.58 32.03 58.31 50.15 5.48 4.8 12.5 7.44 19.79 7.44 7.29 0 14.32-2.64 19.79-7.43 20.73-18.13 40.71-35.15 58.33-50.17 51.57-43.95 96.12-81.91 127.11-119.3 34.64-41.8 50.78-81.44 50.78-124.74-.01-42.07-14.44-80.88-40.63-109.29z"/></svg>