<svg id="Слой_1" xmlns="http://www.w3.org/2000/svg" viewBox="0 0 512 455.52"><style>.st0{fill:#53646e}</style><path class="st0" d="M256 455.52c-7.29 0-14.32-2.64-19.79-7.44-20.69-18.09-40.63-35.08-58.22-50.08l-.09-.08C126.32 353.96 81.77 316 50.78 278.61 16.14 236.81 0 197.17 0 153.87 0 111.8 14.43 72.99 40.62 44.58 67.12 15.83 103.49 0 143.03 0c29.55 0 56.62 9.34 80.45 27.77 12.02 9.3 22.92 20.68 32.52 33.96 9.61-13.28 20.5-24.66 32.53-33.96C312.35 9.34 339.42 0 368.97 0c39.54 0 75.91 15.83 102.41 44.58C497.58 72.99 512 111.8 512 153.87c0 43.3-16.13 82.94-50.78 124.74-30.99 37.4-75.53 75.36-127.11 119.31-17.63 15.02-37.6 32.04-58.33 50.17a29.984 29.984 0 0 1-19.78 7.43zM143.03 29.99c-31.07 0-59.61 12.4-80.37 34.91-21.07 22.86-32.68 54.45-32.68 88.96 0 36.42 13.54 68.99 43.88 105.61 29.33 35.39 72.96 72.57 123.48 115.63l.09.08c17.66 15.05 37.68 32.11 58.52 50.33 20.96-18.25 41.01-35.34 58.71-50.42 50.51-43.05 94.14-80.22 123.47-115.62 30.34-36.62 43.88-69.19 43.88-105.61 0-34.52-11.61-66.11-32.68-88.96-20.76-22.52-49.3-34.91-80.36-34.91-22.76 0-43.65 7.23-62.1 21.5-16.44 12.72-27.89 28.8-34.61 40.05-3.45 5.79-9.53 9.24-16.26 9.24s-12.81-3.45-16.26-9.24c-6.71-11.25-18.16-27.33-34.61-40.05-18.45-14.26-39.34-21.5-62.1-21.5z"/></svg>