<svg fill="#fff" xmlns="http://www.w3.org/2000/svg" viewBox="0 0 612 792"><path d="M504.64 604.16l-26.99-337.34c-.61-7.68-7.02-13.59-14.72-13.59h-54.15v-9.85c0-57-46.38-103.38-103.39-103.38-57 0-103.38 46.38-103.38 103.38v9.85h-54.16c-7.7 0-14.11 5.91-14.72 13.59l-26.99 337.34c-.99 12.28 3.25 24.53 11.61 33.59 8.36 9.06 20.23 14.25 32.56 14.25h310.16c12.33 0 24.19-5.2 32.55-14.25 8.37-9.06 12.6-21.3 11.62-33.59zm-273.1-360.78c0-40.72 33.13-73.84 73.84-73.84 40.72 0 73.85 33.12 73.85 73.84v9.85H231.54v-9.85zm192 324.93H187.23c-8.16 0-14.77-6.61-14.77-14.77s6.61-14.77 14.77-14.77h236.31c8.16 0 14.77 6.61 14.77 14.77s-6.61 14.77-14.77 14.77zm0 0"/></svg>