<svg fill="#00abb9" xmlns="http://www.w3.org/2000/svg" viewBox="0 0 612 792"><path d="M410.81 480.32c10.8-1.68 17.68-12.48 14.72-22.96l-2-6.88c-2.16-7.52.72-15.52 7.2-20l5.92-4.08c9.04-6.24 10.56-18.88 3.28-27.12l-4.8-5.36c-5.2-5.84-6.08-14.32-2.24-21.12l3.52-6.24c5.44-9.52 1.28-21.6-8.8-25.84l-6.64-2.72a18.346 18.346 0 0 1-11.2-18.08l.48-7.12c.8-10.88-8.24-20-19.12-19.44l-7.12.4c-7.84.4-15.04-4.16-17.92-11.44l-2.64-6.64c-4.08-10.16-16.08-14.48-25.68-9.2l-6.24 3.44a18.27 18.27 0 0 1-21.12-2.56l-5.28-4.88c-8.08-7.44-20.8-6.08-27.12 2.88l-4.16 5.84a18.198 18.198 0 0 1-20.08 6.88l-6.88-2.08c-10.48-3.2-21.36 3.52-23.2 14.32l-1.2 7.04c-1.36 7.68-7.44 13.68-15.12 14.88l-7.04 1.12c-10.8 1.68-17.68 12.48-14.72 22.96l2 6.88c2.16 7.52-.72 15.52-7.2 20l-5.92 4.08c-9.04 6.24-10.56 18.88-3.28 27.12l4.8 5.36c5.2 5.84 6.08 14.32 2.24 21.12l-3.52 6.24c-5.44 9.52-1.28 21.6 8.8 25.84l6.64 2.72a18.346 18.346 0 0 1 11.2 18.08l-.48 7.12c-.8 10.88 8.24 20 19.12 19.44l7.12-.4c7.84-.4 15.04 4.16 17.92 11.44l2.64 6.64c4.08 10.16 16.08 14.48 25.68 9.2l6.24-3.44a18.27 18.27 0 0 1 21.12 2.56l5.28 4.88c8.08 7.44 20.8 6.08 27.12-2.88l4.16-5.84c4.56-6.4 12.64-9.12 20.08-6.88l6.88 2.08c10.48 3.2 21.36-3.52 23.2-14.32l1.2-7.04c1.36-7.68 7.44-13.68 15.12-14.88l7.04-1.12zm-44.24-22.48c-33.68 33.68-88.32 33.68-122 0-33.68-33.68-33.68-88.32 0-122 33.68-33.68 88.32-33.68 122 0 33.68 33.76 33.68 88.32 0 122zm0 0"/><path d="M326.33 370.64l-13.68-33.52c-2.56-6.32-11.52-6.32-14.08 0l-13.68 33.52-36.08 2.64c-6.8.48-9.52 8.96-4.32 13.36L272.17 410l-8.64 35.12c-1.6 6.64 5.6 11.84 11.36 8.24l30.72-19.12 30.72 19.12c5.76 3.6 13.04-1.68 11.36-8.24L339.05 410l27.68-23.36c5.2-4.4 2.48-12.88-4.32-13.36l-36.08-2.64zm0 0"/></svg>