<svg fill="#00abb9" xmlns="http://www.w3.org/2000/svg" viewBox="-49 141 512 512"><path d="M119.88 324.68c-26.31-.01-47.65 21.32-47.65 47.63-.01 26.31 21.32 47.65 47.63 47.65s47.65-21.32 47.65-47.63c0-12.64-5.01-24.76-13.95-33.69a47.49 47.49 0 0 0-33.68-13.96zm2.56 110.84h-5.08c-53.43.13-96.71 43.41-96.84 96.84v6.84c0 3.76 3.04 6.8 6.8 6.8h185.12c3.76 0 6.8-3.04 6.8-6.8v-6.84c-.15-53.4-43.4-96.66-96.8-96.84zm238.72-164.44A127.694 127.694 0 0 0 285.88 248c-26.9-.43-53.24 7.65-75.28 23.08-20 14.72-32.32 35.2-32.32 58a64.001 64.001 0 0 0 7.36 29.6 79.316 79.316 0 0 0 16.76 21.64l-17.08 35.48a6.765 6.765 0 0 0 3.12 9.04c2.1 1.02 4.58.89 6.56-.36l39.28-24.24c7.47 3.05 15.21 5.39 23.12 7 9.37 1.92 18.91 2.88 28.48 2.88 26.9.43 53.24-7.65 75.28-23.08 20-14.72 32.32-35.2 32.32-58 0-22.8-12.36-43.24-32.32-57.96zm-24.28 47.12a6.79 6.79 0 0 1-1.68 3.16l-17.44 20 2.32 26.84a6.803 6.803 0 0 1-6.18 7.37c-1.31.11-2.62-.15-3.78-.77l-24.24-10.2-24.8 10.52c-3.43 1.47-7.41-.11-8.88-3.54a6.665 6.665 0 0 1-.52-3.3l2.32-26.84L236.36 321c-2.44-2.85-2.11-7.15.74-9.59.82-.7 1.8-1.2 2.86-1.45l26.2-6.08L280.04 281c1.92-3.23 6.1-4.28 9.32-2.36.97.58 1.78 1.39 2.36 2.36l13.8 22.96 26.2 6.08c3.67.81 5.98 4.44 5.17 8.11 0 .02-.01.03-.01.05z"/></svg>