<svg fill="#00abb9" xmlns="http://www.w3.org/2000/svg" viewBox="0 0 612 792"><path d="M329.28 277.65c0 48.96-39.69 88.65-88.65 88.65-48.96 0-88.65-39.69-88.65-88.65S191.67 189 240.63 189c48.96 0 88.65 39.69 88.65 88.65zm141.01 159.24l16.18-16.19L524 458.23l-16.18 16.18-37.53-37.52zM363.6 543.47l96.74-96.75 37.53 37.53-96.75 96.74-37.52-37.52zm-22.45 60.07l47.07-15.69-31.38-31.38-15.69 47.07zm6-62.36l.3-.6c0-.1 0-.1.1-.2.23-.51.53-.99.9-1.4 0-.1.1-.1.1-.2l.3-.3 29.09-29.08c-25.79-52.24-78.96-85.35-137.22-85.45-81.95 0-149.11 64.86-152.71 145.91h249.65l9.59-28.69h-.1zm0 0"/></svg>