<svg fill="#1ec7d5" xmlns="http://www.w3.org/2000/svg" viewBox="-49 141 512 512"><path d="M207 141c-99.25 0-180 80.75-180 180 0 33.53 9.29 66.26 26.87 94.65l142.88 230.26c2.74 4.41 7.56 7.09 12.74 7.09h.12c5.23-.04 10.06-2.8 12.75-7.29L361.6 413.22C378.22 385.43 387 353.54 387 321c0-99.25-80.75-180-180-180zm128.87 256.82l-126.6 211.37-129.9-209.34C64.73 376.21 56.8 348.95 56.8 321c0-82.71 67.49-150.2 150.2-150.2S357.1 238.29 357.1 321c0 27.12-7.41 53.69-21.23 76.82z"/><path d="M207 231c-49.63 0-90 40.37-90 90 0 49.31 39.72 90 90 90 50.9 0 90-41.23 90-90 0-49.63-40.37-90-90-90zm0 150.2c-33.26 0-60.2-27.03-60.2-60.2 0-33.08 27.12-60.2 60.2-60.2s60.1 27.12 60.1 60.2c0 32.68-26.32 60.2-60.1 60.2z"/></svg>