<svg id="Layer_1" xmlns="http://www.w3.org/2000/svg" viewBox="-49 141 512 512" fill="#ff7c00"><style>.st0{stroke:#ff7c00;stroke-width:7;stroke-miterlimit:10}</style><path class="st0" d="M271.04 196.87c.62 5.87 4.97 8.62 7.55 10.26 4.31 2.73 14.4 9.13 14.4 40.53v64.02c0 5.89 3.52 10.26 9.41 10.26.34.3.83 1.15 1.22 2.01-.49 9.9-5.38 25.07-8.45 33.43-6.25 4.16-12.84 13.01-12.84 28.95 0 12.1-4.14 17.54-7.81 22.34-.9 1.19-1.71 2.28-2.39 3.29-3.26 4.91-1.94 11.52 2.97 14.81 4.86 3.24 11.5 1.96 14.78-2.94l1.6-2.2c4.57-5.97 12.18-15.98 12.18-35.29 0-7.55 2.26-10.67 2.58-10.99 3.33-.81 6.04-3.2 7.32-6.38 1.19-2.92 11.43-29.08 11.43-46.63 0-.87-.11-1.73-.32-2.58-1.15-4.69-4.44-11.52-10.35-15.53v-56.55c0-34.37-10.5-48.47-21.57-56.64-2.07-16.55-19.82-50.03-85.1-50.03-66.09 0-106.67 62.12-106.67 106.67v56.55c-5.91 4.01-9.17 10.86-10.35 15.53a10.6 10.6 0 0 0-.32 2.58c0 17.56 10.26 43.71 11.43 46.63 1.28 3.18 3.16 5.29 6.49 6.12 1.17.58 3.41 3.69 3.41 11.24 0 20.27 15.21 42.79 31.55 57.77-2.24 13.97-12.65 50.82-34.9 60.12l-94.68 31.55c-24.34 8.11-42.58 27.82-48.83 52.74l-12.82 51.24a10.645 10.645 0 0 0 7.77 12.93c.87.21 1.73.32 2.58.32 4.8 0 9.15-3.22 10.33-8.11l12.82-51.24c4.44-17.79 17.49-31.89 34.88-37.67l95.4-31.83c36.93-15.38 49.24-70.95 49.24-84.5 0-3.18-1.43-6.19-3.88-8.21-13.97-11.56-28.12-30.76-28.12-45.12 0-15.94-6.59-24.77-12.84-28.95-3.05-8.34-7.98-23.57-8.45-33.49.28-.81.47-1.54-.04-1.54 5.89 0 10.67-4.78 10.67-10.67v-64c0-34.79 33.26-85.33 85.33-85.33 49.54 0 62.34 21.93 63.83 30.38-.39 1.44-.59 2.89-.44 4.15zm180.63 306.35H441v-10.67c0-41.17-33.49-74.67-74.67-74.67s-74.67 33.49-74.67 74.67v10.67h-10.67c-5.89 0-10.67 4.78-10.67 10.67v128c0 5.89 4.78 10.67 10.67 10.67h170.67c5.89 0 10.67-4.78 10.67-10.67v-128c.01-5.89-4.77-10.67-10.66-10.67zm-138.66-10.67c0-29.4 23.91-53.33 53.33-53.33 29.42 0 53.33 23.94 53.33 53.33v10.67H313.01v-10.67zm128 138.67H291.67V524.55H441v106.67zm-85.34-45.93v13.93c0 5.89 4.78 10.67 10.67 10.67s10.67-4.78 10.67-10.67v-13.93c6.27-3.71 10.67-10.26 10.67-18.07 0-11.78-9.56-21.33-21.33-21.33s-21.33 9.56-21.33 21.33c-.01 7.81 4.4 14.36 10.65 18.07z"/></svg>