<svg xmlns="http://www.w3.org/2000/svg" viewBox="0 0 612 792"><g fill="#1fc8d6"><path d="M155 437.65l-16-1.32c-.18 2.1-4 51.77 24 82.13a72.67 72.67 0 0 0 56 22.53v-16a57.332 57.332 0 0 1-44.18-17.31c-23.19-25.14-19.89-69.58-19.82-70.03zm215.99-32.66h104v16h-104zm-32 0h16v16h-16z"/><path d="M127.38 372.99H107v104c.07 49.88 38.3 91.4 88 95.59v48.41h223.99v-48.41c49.7-4.19 87.92-45.71 88-95.59v-104H430.3l50.05-50.04c5.33-4.3 41.39-33.39 48.3-40.3A51.56 51.56 0 0 0 545 245a51.53 51.53 0 0 0-16.36-37.65 51.427 51.427 0 0 0-37.66-16.4c-14.29 0-27.93 5.94-37.66 16.4-6.92 6.92-36.13 43.13-40.33 48.33L295.68 372.99h-33.07c37.3-21.35 60.33-61.02 60.38-104v-88c0-4.42-3.58-8-8-8h-16c-55.14.1-103.13 37.73-116.37 91.25C162.5 223.15 120.76 197.06 75 197c-4.42 0-8 3.58-8 8v64c.05 42.98 23.09 82.64 60.38 103.99zm275.61 231.99h-128v-16h-16v16h-16v-16h-16v16h-16v-32h191.99v32zm61.65-386.32a35.933 35.933 0 0 1 26.34-11.49c10 0 19.54 4.16 26.34 11.49A35.655 35.655 0 0 1 528.95 245c0 10.03-4.22 19.59-11.63 26.34-4.7 4.7-28.17 23.89-41.78 34.91l-45.82-45.82c11.03-13.61 30.22-37.08 34.92-41.77zm-45.65 53.65L463.67 317l-12.69 12.69L406.3 285l12.69-12.69zm-24 24L439.67 341l-28.68 28.68L366.3 325l28.69-28.69zm-40 40l36.69 36.68H318.3l36.69-36.68zm135.99 52.68v88c-.05 44.16-35.84 79.95-80 80H203c-44.16-.05-79.95-35.83-80-80v-88h367.98zM195 293c.07-57.41 46.59-103.93 104-104h8v80c-.07 57.41-46.59 103.93-104 104h-8v-3.86c15-10.92 72.56-56.8 79.95-123.26l-15.91-1.76c-5.5 49.51-43.83 87.65-64.04 104.58V293zM83 213.3c54.14 4.24 95.93 49.38 96 103.69v33.38a166.534 166.534 0 0 1-56.5-76.18l-14.99 5.6A177.522 177.522 0 0 0 179 369.65v3.04c-54.14-4.24-95.93-49.38-96-103.69v-55.7zm0 0"/><path d="M485.33 239.34l16-16 11.31 11.31-16 16-11.31-11.31zm-24 24l16-16 11.31 11.32-16 16-11.31-11.32zm0 0"/></g></svg>