<svg xmlns="http://www.w3.org/2000/svg" viewBox="0 0 612 792"><g fill="#1fc8d6"><path d="M534.23 163H77.77C62.46 163 50 175.46 50 190.77v100.55a7.571 7.571 0 0 0 15.14 0V190.77c0-6.96 5.66-12.62 12.62-12.62h456.46c6.96 0 12.62 5.66 12.62 12.62v302.96c0 6.96-5.66 12.62-12.62 12.62h-156.8c.51-3.46.78-7 .78-10.61 0-3.6-.27-7.14-.78-10.6h98.23c4.18 0 7.57-3.39 7.57-7.57 0-19.21 15.63-34.84 34.84-34.84 4.18 0 7.57-3.39 7.57-7.57V306.32a7.571 7.571 0 0 0-15.14 0v121.84c-21.51 3.28-38.56 20.33-41.84 41.84h-95.21c-10.39-27.13-36.7-46.45-67.44-46.45s-57.05 19.32-67.44 46.45h-95.21c-3.28-21.51-20.33-38.55-41.84-41.84V256.34c21.51-3.29 38.56-20.33 41.84-41.84h325.31c3.29 21.51 20.33 38.55 41.84 41.84v14.65c0 4.18 3.4 7.57 7.57 7.57 4.18 0 7.57-3.39 7.57-7.57v-21.65c0-4.18-3.39-7.57-7.57-7.57-19.21 0-34.84-15.63-34.84-34.84 0-4.18-3.39-7.58-7.57-7.58H136.34c-4.18 0-7.57 3.39-7.57 7.58 0 19.21-15.63 34.84-34.84 34.84-4.18 0-7.58 3.39-7.58 7.57v185.81c0 4.18 3.39 7.57 7.58 7.57 19.21 0 34.84 15.63 34.84 34.84 0 4.18 3.39 7.57 7.57 7.57h98.23c-.51 3.46-.78 7-.78 10.61 0 3.6.27 7.14.78 10.6H77.77c-6.96 0-12.62-5.66-12.62-12.63v-167.2a7.571 7.571 0 0 0-15.14 0v167.2c0 15.31 12.46 27.77 27.77 27.77h160.79a71.922 71.922 0 0 0 10.38 18.42v81.05c0 2.52 1.26 4.88 3.35 6.28s4.75 1.68 7.09.73L306 608.95l46.62 19.03c.92.38 1.89.56 2.86.56a7.58 7.58 0 0 0 7.58-7.57v-21.66a7.571 7.571 0 0 0-15.14 0v10.39l-39.05-15.94a7.577 7.577 0 0 0-5.73 0l-39.05 15.94v-55.21c11.83 8.46 26.29 13.46 41.91 13.46 15.62 0 30.08-5 41.91-13.46v9.42a7.571 7.571 0 0 0 15.14 0v-23.99a71.922 71.922 0 0 0 10.38-18.42h160.79c15.31 0 27.77-12.46 27.77-27.77V190.77C562 175.46 549.54 163 534.23 163zM306 552.8c-31.46 0-57.06-25.59-57.06-57.05s25.6-57.06 57.06-57.06 57.06 25.6 57.06 57.06-25.6 57.05-57.06 57.05zm0 0"/><path d="M372.65 262.98a7.571 7.571 0 0 0 0-15.14h-133.3c-4.18 0-7.58 3.39-7.58 7.57s3.39 7.57 7.58 7.57h133.3zm50.49 25.24H188.85a7.571 7.571 0 0 0 0 15.14h234.29c4.18 0 7.57-3.39 7.57-7.57.01-4.18-3.38-7.57-7.57-7.57zm0 40.4H188.85a7.571 7.571 0 0 0 0 15.14h234.29c4.18 0 7.57-3.39 7.57-7.57.01-4.18-3.38-7.57-7.57-7.57zm0 46.45h-36.36a7.571 7.571 0 0 0 0 15.14h36.36c4.18 0 7.57-3.39 7.57-7.57.01-4.18-3.38-7.57-7.57-7.57zm-234.29 0a7.571 7.571 0 0 0 0 15.14h36.36a7.571 7.571 0 0 0 0-15.14h-36.36zM306 455.86c-22 0-39.89 17.89-39.89 39.89S284 535.64 306 535.64s39.89-17.9 39.89-39.89c0-22-17.89-39.89-39.89-39.89zm0 64.63c-13.65 0-24.74-11.1-24.74-24.74 0-13.65 11.1-24.74 24.74-24.74 13.64 0 24.74 11.1 24.74 24.74 0 13.64-11.1 24.74-24.74 24.74zm-25.75-137.85c0 14.2 11.55 25.75 25.75 25.75s25.75-11.55 25.75-25.75-11.55-25.75-25.75-25.75-25.75 11.55-25.75 25.75zm36.35 0c0 5.85-4.76 10.61-10.6 10.61-5.85 0-10.61-4.76-10.61-10.61s4.76-10.61 10.61-10.61c5.85.01 10.6 4.77 10.6 10.61zm0 0"/></g></svg>