<svg xmlns="http://www.w3.org/2000/svg" viewBox="0 0 612 792"><path fill="#1fc8d6" d="M321.99 157.02C198 157.02 98 257.01 98 381.01v8.8l-32 18.4V561.8l120 68.8 120-68.8V408.21l-120-68.8L114 381c0-27.2 5.6-54.4 16-80h57.6c2.4 0 4 .8 5.6 2.4l22.4 22.4c4.8 4.8 10.4 7.2 16.8 7.2H266c13.6 0 24-10.4 24-24v-9.6c0-6.4-2.4-12.8-7.2-16.8l-14.4-14.4c-1.6-1.6-2.4-3.2-2.4-5.6v-26.39c0-6.4-2.4-12.8-7.2-16.8l-25.6-25.6c28-14.4 58.4-20.8 88.8-20.8v65.6c0 6.4 2.4 12.8 7.2 16.8l22.4 22.4c1.6 1.6 2.4 3.2 2.4 5.6v26.4c0 2.4-.8 4-2.4 5.6l-8 8c-9.6 9.6-9.6 24.8 0 33.59l1.6 1.6c9.6 9.6 24.8 9.6 33.6 0l24-24c1.6-1.6 3.2-2.4 5.59-2.4h17.6c13.6 0 24-10.4 24-24v-49.6c0-2.4.8-4 2.4-5.6l18.4-18.39c26.4 27.19 44.8 60.8 53.59 97.6h-36c-6.4 0-12.8 2.4-16.8 7.2l-22.4 22.39c-4.8 5.6-7.2 11.2-7.2 17.6v9.6c0 13.6 10.4 24 24 24h17.6c6.4 0 12.8-2.4 16.8-7.2l16.8-16.8h12.8c-.8 16-3.2 32-7.2 48h-90.4c-2.4 0-4-.8-5.6-2.4l-38.4-38.4c-4.8-4.8-10.4-7.2-16.8-7.2h-9.6c-13.6 0-24 10.4-24 24v17.6c0 6.4 2.4 12.8 7.2 16.8l14.4 14.4c1.6 1.6 2.4 3.2 2.4 5.6v18.4c0 2.4-.8 4-2.4 5.6-9.6 9.6-9.6 24.8 0 33.6 4.8 4.8 10.4 7.2 16.8 7.2h18.4c2.4 0 4 .8 5.6 2.4l25.6 25.6c-30.39 17.6-65.6 28-100.8 28l18.4-18.4-11.2-11.2-37.59 38.4 37.59 37.6 11.2-11.2-18.4-18.4c124-1.6 222.39-103.2 220.79-227.19-1.59-122.4-101.59-220.79-223.98-220.79zM82 426.61L170 477v125.6l-88-50.4V426.61zm151.99 31.99l16-8.8v46.4l-16 8v-45.6zM186 467.41L146 445l96-54.39 40 22.4-96 54.4zm0 143.99V486.6l32-18.4v62.4l48-24V441l24-13.6V553l-104 58.4zm39.99-230.39l-96 54.4-40-22.4 96-54.4 40 22.4zm21.6-151.19c1.6 1.6 2.4 3.2 2.4 5.6v26.39c0 6.4 2.4 12.8 7.2 16.8l14.4 14.4c1.6 1.6 2.4 3.2 2.4 5.6v10.4c0 4.8-3.2 8-8 8h-33.6c-2.4 0-4-.8-5.6-2.4l-22.4-22.4c-4.8-4.8-10.4-7.2-16.8-7.2H138c18.4-35.2 46.4-64.79 80.8-84l28.79 28.81zm193.59 12.8c-4.8 4.8-7.2 10.39-7.2 16.8v49.6c0 4.8-3.2 8-8 8h-17.6c-6.39 0-12.79 2.4-16.79 7.2l-24 24c-3.2 3.2-8 3.2-11.2 0l-1.6-1.6c-3.2-3.2-3.2-8 0-11.2l8-8c4.8-4.8 7.2-10.4 7.2-16.8v-26.4c0-6.4-2.4-12.8-7.2-16.8l-22.4-22.4c-1.6-1.6-2.4-3.2-2.4-5.6v-65.6c44.8 3.2 87.2 21.6 120.8 51.2l-17.61 17.6zm69.6 130.39l-21.6 21.6c-1.6 1.6-3.2 2.4-5.6 2.4h-17.6c-4.8 0-8-3.2-8-8v-9.6c0-2.4.8-4 2.4-5.6l22.4-22.4c1.6-1.6 3.2-2.4 5.6-2.4h39.2c1.6 8 1.6 16 2.4 24h-19.2zm-70.4 179.19l-28-28c-4.8-4.8-10.4-7.2-16.79-7.2h-18.4c-4.8 0-8-3.2-8-8 0-2.4.8-4 2.4-5.6 4.8-4.8 7.2-10.4 7.2-16.8v-18.4c0-6.4-2.4-12.8-7.2-16.8l-14.4-14.4c-1.6-1.6-2.4-3.2-2.4-5.6V413c0-4.8 3.2-8 8-8h9.6c2.4 0 4 .8 5.6 2.4l38.4 38.4c4.8 4.8 10.4 7.2 16.8 7.2h84.8c-16.01 40-42.4 74.41-77.61 99.2zm0 0"/></svg>