<svg xmlns="http://www.w3.org/2000/svg" viewBox="0 0 612 792"><path fill="#1fc8d6" d="M494.92 343.72c-7.52-7.55-17.82-17.89-20.18-23.8-2.09-5.21-8.34-8.85-17.64-13.8-1.09-.58-2.16-1.15-3.12-1.67v-10.81h.45c11.46 0 20.79-9.33 20.79-20.79 0-3.66-2.97-6.63-6.64-6.63-3.66 0-6.63 2.97-6.63 6.63 0 4.15-3.38 7.52-7.52 7.52h-18.41c-1.1-1.64-2.75-5.12-3.17-11.54 5.3-4.75 19.73-19.28 21.12-37.95a6.644 6.644 0 0 0-6.12-7.11c-3.65-.28-6.84 2.47-7.11 6.13-.99 13.29-12 24.68-16.45 28.76-.95-.25-1.85-.58-2.75-.94 5.96-8.01 11.21-19.21 11.21-27.33 0-3.66-2.97-6.64-6.64-6.64-3.66 0-6.64 2.97-6.64 6.64 0 4.28-3.97 13.38-8.86 19.81a49.916 49.916 0 0 1-5.76-6.93c3.21-17.12-1.02-38.03-9.61-46.04a6.646 6.646 0 0 0-9.38.32 6.637 6.637 0 0 0 .32 9.38c4.47 4.17 8.69 21.52 5.16 36.05-.4 1.63-.16 3.36.66 4.82.27.49 4.05 7.07 10.84 13.33-8.37-3.48-17.88-9.34-26.77-19.13-.26-12.73-2.52-28.32-8.22-36.6a6.645 6.645 0 0 0-9.23-1.71c-3.02 2.07-3.78 6.21-1.71 9.23 2.61 3.8 4.68 12.46 5.51 22.29l-12.1-4.04a6.63 6.63 0 0 0-8.39 4.2c-1.16 3.48.72 7.24 4.2 8.39l19.52 6.51c20.52 23.03 44.52 27.95 55.46 28.97.64 2.28 1.41 4.19 2.23 5.82-2.64-1.7-5.74-3.2-9.4-4.37-2.81-.89-5.87.18-7.52 2.63-.55.82-3.33 5.32-3.64 12.91-.32 8.03 2.15 16.38 7.37 24.9-4.44 3.61-11.71 9.31-19.77 14.81-23.13 15.8-31.75 15.73-33.83 15.33-13.82-2.63-27.5-1.61-38.5-.78-4.52.34-8.78.66-12.28.66-10.62 0-30.27-3.4-49.28-6.69-21.21-3.67-43.13-7.46-56.88-7.46-19.08 0-38.16 9.35-50.8 17.2-13.91 8.63-26.98 19.96-32.55 28.19-6.49 9.61-4.37 17.3-2.67 23.47.79 2.86 1.54 5.56 1.54 8.55 0 3.85-3.59 8.63-6.76 12.85-3.8 5.06-7.39 9.84-7.39 15.45 0 3.66 2.97 6.65 6.63 6.65 3.66 0 6.64-2.96 6.64-6.62.12-1.37 2.89-5.07 4.73-7.51 4.19-5.59 9.41-12.54 9.42-20.8 1.23 2.04 2.57 3.97 4.04 5.83 6.01 16.3 4.25 33.58-5.27 51.36-7.39 13.83-16.9 22.76-16.99 22.84a6.621 6.621 0 0 0-2.12 4.87v70.77c0 .71.11 1.42.34 2.1l7.08 21.23c.9 2.71 3.44 4.53 6.29 4.53h14.16c2.36 0 4.53-1.25 5.72-3.28a6.669 6.669 0 0 0 .07-6.6l-20.39-36.38v-9.68c1.03-18 18.14-34.84 33.25-49.69 4.77-4.7 9.41-9.27 13.49-13.79-.21 1.17-.44 2.35-.73 3.55-2.8 11.59-8.6 20.58-8.65 20.66a6.66 6.66 0 0 0-.75 5.74l21.23 63.69c.18.56.45 1.09.77 1.58l14.16 21.23a6.641 6.641 0 0 0 5.52 2.95h14.15a6.636 6.636 0 0 0 4.95-11.05l-33.02-37.06-6.11-18.34c4.9-16.08 19.65-33.01 33.91-49.38 5.52-6.34 10.93-12.55 15.68-18.63 8.23.95 31.79 3.41 55.16 3.41 10.11 0 20.18-.47 28.95-1.71v47.46l-13.96 55.82c-.3 1.22-.26 2.51.15 3.71l7.08 21.23c.9 2.71 3.44 4.53 6.29 4.53h14.16c2.34 0 4.52-1.24 5.71-3.26 1.2-2.02 1.23-4.52.09-6.58l-17-30.82 10.44-41.76 5.31-13.09 2.96 11.84v55.8c0 .71.12 1.42.34 2.1l7.08 21.23c.9 2.71 3.44 4.53 6.29 4.53h14.15a6.64 6.64 0 0 0 5.73-3.28 6.644 6.644 0 0 0 .06-6.6l-20.38-36.38v-36.84c2.43-5.66 11.72-28.07 13.76-44.9 13.88-2.4 34.58-12.3 42.24-38.3 5.17-6.45 31.13-39.14 41.43-57.87 6.89 2.54 18.54 5.95 29.37 4.95 7.29 3.22 13.48 4.85 18.64 4.85 3.8 0 7.06-.88 9.8-2.62 3.44-2.19 7.54-6.77 7.54-16.11.03-5.15-4.5-9.9-15.65-21.1zM145.29 482.87c-8.23 8.09-16.98 16.72-23.94 26.11v-6.91c3.59-3.73 11.04-12.17 17.34-23.82 7.36-13.63 10.86-27.48 10.45-40.94 3.14 2.96 6.63 6.28 10.43 10.08 3.22 3.22 5.6 6.86 7.15 10.91-3.92 7.34-12.43 15.71-21.43 24.57zm350.64-113.1c-.4.25-4.26 2.29-17.39-3.82-.02-.01-.04-.02-.06-.02-.01 0-.02-.01-.03-.01-.02-.01-.04-.02-.06-.02-.17-.08-.36-.16-.54-.22-.06-.02-.11-.04-.17-.05-.15-.05-.29-.09-.45-.13-.09-.02-.18-.04-.27-.05a4.57 4.57 0 0 0-.36-.07c-.12-.02-.24-.03-.36-.04-.09-.01-.18-.02-.27-.02-.16-.01-.31 0-.47 0h-.18c-.2.01-.41.03-.61.06h-.12c-12.81 1.84-29.56-5.99-29.72-6.07a6.59 6.59 0 0 0-5.24-.2c-1.7.66-3.06 1.98-3.75 3.67-5.5 13.41-33.09 49.02-43.25 61.6-.58.72-1 1.55-1.24 2.43-7.97 29.38-35.06 30.46-36.18 30.49a6.644 6.644 0 0 0-6.52 6.64c0 7.26-2.91 17.97-6.16 27.61l-8.88-35.5V442.7c0-3.66-2.97-6.63-6.64-6.63s-6.64 2.97-6.64 6.63v7.63c-21.69 5.8-63.38 2.64-82.49.75 4.49-7.44 7.29-14.66 7.29-21.65 0-3.66-2.97-6.63-6.64-6.63-3.66 0-6.63 2.97-6.63 6.63 0 11.39-14.44 27.96-28.4 43.99-11.16 12.8-22.58 25.92-30.13 39.43l-1.89-5.66c2.27-4.03 6.27-11.96 8.65-21.58 4.72-19.09.84-35.54-11.21-47.59-4.49-4.49-8.51-8.28-12.06-11.63-10.91-10.28-16.93-15.94-20.58-26.29-3.79-10.74-.66-19.46 1.78-21.53.2-.18.39-.36.57-.55 14.92-12.71 39.98-27.75 60.99-27.75 12.61 0 33.97 3.7 54.62 7.27 20.46 3.54 39.78 6.88 51.54 6.88 4 0 8.51-.34 13.28-.7 10.75-.81 22.93-1.72 35.02.58 20.68 3.94 61.33-30.03 69.27-36.88a6.627 6.627 0 0 0 1-8.96c-7.38-10.01-8.62-17.59-8.29-22.3 7.76 4.98 8.63 12.35 8.71 13.39.23 3.63 3.34 6.4 6.98 6.2 3.66-.2 6.46-3.33 6.27-6.99-.03-.5-.52-7.82-5.72-15.18.28.03.57.06.86.06h7.52v14.6c0 2.22 1.11 4.29 2.95 5.52 1.88 1.25 4.46 2.63 7.2 4.09 3.33 1.77 10.2 5.43 11.66 7.27.02.07.06.13.09.2h-.23c-3.66 0-6.63 2.97-6.63 6.64 0 3.66 2.97 6.63 6.63 6.63h8.55c.25 0 .49-.02.73-.04 4.22 4.88 9.19 9.88 13.85 14.56 4.36 4.38 10.22 10.26 11.79 12.72-.08 2.03-.56 3.45-1.34 3.94zm0 0"/></svg>