<svg xmlns="http://www.w3.org/2000/svg" viewBox="0 0 648.97 391.58"><style>.st0{fill:#f5f5f5}.st1{fill:#00abb9}.st2{opacity:.1}.st3{fill:#fff}.st4{opacity:.03}.st5{opacity:.2}.st6,.st7{opacity:.1;fill:#fff}.st7{opacity:.2}.st8{fill:#ffa8a7}.st9{fill:#263238}.st10{fill:#f28f8f}.st11{fill:#455a64}.st12{fill:#37474f}.st13{fill:#fafafa}.st14{fill:#f0f0f0}.st15{fill:#ebebeb}.st16{fill:#e0e0e0}.st17{fill:#e6e6e6}.st18{opacity:.5}</style><g id="Floor"><path id="Floor_25_" class="st0" d="M586.61 358.67c-79.2 43.88-207.6 43.88-286.79 0-79.2-43.88-79.2-115.03 0-158.91 79.2-43.88 207.6-43.88 286.79 0 79.2 43.88 79.2 115.03 0 158.91z"/></g><g id="Plants"><g id="Plants_1_"><g id="Plants_3_"><g id="XMLID_134_"><g id="XMLID_139_"><path id="XMLID_140_" class="st1" d="M615.15 265.6l-7.04-4.02s-3.38-18.61-.85-34.61c3.55-22.49 18.87-30.25 24.43-28.01 5.56 2.24 6.87 8.9-3.18 21.89-5.93 7.67-13.55 23.88-13.36 44.75z"/></g><g id="XMLID_137_" class="st2"><path id="XMLID_138_" d="M615.15 265.6l-7.04-4.02s-3.38-18.61-.85-34.61c3.55-22.49 18.87-30.25 24.43-28.01 5.56 2.24 6.87 8.9-3.18 21.89-5.93 7.67-13.55 23.88-13.36 44.75z"/></g><g id="XMLID_135_"><path id="XMLID_136_" class="st3" d="M612.6 256.67c.02 0 .05 0 .07-.01.27-.04.47-.29.43-.57-2.91-21.06 5.56-44.13 15.07-53.43.2-.19.2-.51.01-.71-.19-.2-.51-.2-.71-.01-9.69 9.47-18.32 32.91-15.36 54.28.03.27.24.45.49.45z"/></g></g><g id="XMLID_127_"><g id="XMLID_132_"><path id="XMLID_133_" class="st1" d="M634.69 276.89c1.11.64 3.41-.76 4.28-1.35 1.5-1.01 2.72-2.44 3.53-4.05.94-1.88 1.18-3.9.88-5.98-.15-1.08-.45-2.13-.76-3.18-.3-1.03-.59-2.06-.89-3.08-.29-1.01-.59-2.06-.45-3.11.27-2.11 2.14-3.59 3.84-4.86 1.88-1.41 3.84-3.27 3.83-5.81-.01-1.96-1.02-3.78-2.24-5.32-1.21-1.54-2.66-2.9-3.75-4.52-.79-1.17-1.41-2.54-1.28-3.95.08-.87.44-1.69.86-2.47.9-1.65 2.08-3.17 2.7-4.94.62-1.78.53-3.99-.86-5.26-1.14-1.04-2.83-1.19-4.37-1.09-1.43.09-2.82.74-4.06 1.43-4.03 2.24-6.33 7.02-10.61 8.74-1.65.67-3.46.81-5.18 1.27-1.72.45-3.47 1.33-4.27 2.92-1.57 3.14 1.34 7 .24 10.33-.98 2.95-3.84 4.07-5.45 6.73-.7 1.16-.87 2.5-.75 3.86.19 2.29.53 3.97 1.63 6.52.91 2.1 3.58 5.87 3.58 5.87.08.08 19.37 11.2 19.55 11.3z"/></g><g id="XMLID_130_"><path id="XMLID_131_" class="st3" d="M623.26 270.8h.01c.28-.01.5-.25.49-.52-.83-19.93 8.56-41.93 15.39-48.33.2-.19.21-.51.02-.71a.504.504 0 0 0-.71-.02c-6.97 6.52-16.55 28.89-15.71 49.1.02.27.24.48.51.48z"/></g><g id="XMLID_128_"><path id="XMLID_129_" class="st3" d="M626.24 247.25c.05 0 .1-.01.15-.02 6.4-1.98 14.38-2.33 14.46-2.33.28-.01.49-.25.48-.52-.01-.28-.22-.5-.52-.48-.08 0-8.19.36-14.72 2.38-.26.08-.41.36-.33.63.07.2.27.34.48.34z"/></g></g></g><g id="Plants_2_"><g id="XMLID_120_"><g id="XMLID_125_"><path id="XMLID_126_" class="st1" d="M285.89 238.07l6.41-3.66s3.07-16.94.78-31.5c-3.23-20.48-17.17-27.54-22.24-25.5-5.06 2.04-6.25 8.1 2.89 19.93 5.4 6.97 12.34 21.73 12.16 40.73z"/></g><g id="XMLID_123_" class="st2"><path id="XMLID_124_" d="M285.89 238.07l6.41-3.66s3.07-16.94.78-31.5c-3.23-20.48-17.17-27.54-22.24-25.5-5.06 2.04-6.25 8.1 2.89 19.93 5.4 6.97 12.34 21.73 12.16 40.73z"/></g><g id="XMLID_121_"><path id="XMLID_122_" class="st3" d="M288.22 229.94h-.06a.453.453 0 0 1-.39-.51c2.65-19.17-5.06-40.17-13.72-48.64a.468.468 0 0 1-.01-.65c.18-.18.47-.18.65-.01 8.82 8.62 16.68 29.96 13.99 49.41a.48.48 0 0 1-.46.4z"/></g></g><g id="XMLID_113_"><g id="XMLID_118_"><path id="XMLID_119_" class="st1" d="M268.11 248.34c-1.01.58-3.1-.69-3.9-1.23a9.607 9.607 0 0 1-3.21-3.69c-.86-1.71-1.07-3.55-.8-5.44.14-.98.41-1.94.69-2.89l.81-2.81c.27-.92.53-1.88.41-2.83-.25-1.92-1.95-3.27-3.5-4.43-1.71-1.28-3.5-2.98-3.49-5.29.01-1.78.93-3.44 2.04-4.84 1.11-1.4 2.42-2.64 3.42-4.11.72-1.06 1.28-2.31 1.16-3.59-.07-.79-.4-1.54-.78-2.24-.82-1.51-1.89-2.88-2.46-4.5-.56-1.62-.48-3.63.78-4.79 1.04-.95 2.58-1.08 3.98-.99 1.3.09 2.56.67 3.7 1.3 3.67 2.04 5.76 6.39 9.66 7.96 1.5.61 3.15.74 4.71 1.15 1.57.41 3.16 1.21 3.89 2.66 1.43 2.86-1.22 6.37-.22 9.41.89 2.68 3.5 3.71 4.96 6.13.64 1.06.79 2.28.68 3.51-.17 2.08-.48 3.61-1.48 5.93-.83 1.92-3.26 5.35-3.26 5.35-.07.06-17.63 10.18-17.79 10.27z"/></g><g id="XMLID_116_"><path id="XMLID_117_" class="st3" d="M278.52 242.8h-.01a.453.453 0 0 1-.44-.48c.76-18.14-7.79-38.17-14.01-43.99a.468.468 0 0 1-.02-.65c.17-.18.46-.19.65-.02 6.34 5.94 15.06 26.3 14.3 44.7-.03.25-.23.44-.47.44z"/></g><g id="XMLID_114_"><path id="XMLID_115_" class="st3" d="M275.8 221.36c-.04 0-.09-.01-.13-.02-5.83-1.8-13.09-2.12-13.17-2.12a.46.46 0 0 1-.44-.48c.01-.25.2-.45.48-.44.07 0 7.45.33 13.4 2.16.24.07.38.33.3.57-.07.21-.25.33-.44.33z"/></g></g></g></g></g><g id="Sofa_1_"><g id="Sofa"><g id="XMLID_3903_"><path id="XMLID_3907_" class="st1" d="M381.51 112.66l-68.25 39.4c-3.59 2.07-6.5 7.11-6.5 11.25v55.36c0 4.14 2.91 9.18 6.5 11.25l7.32 4.23c3.59 2.07 9.4 2.07 12.99 0l68.25-39.4c3.59-2.07 6.5-7.11 6.5-11.25v-55.36c0-4.14-2.91-9.18-6.5-11.25l-7.32-4.22c-3.58-2.08-9.4-2.08-12.99-.01z"/><path id="XMLID_3906_" class="st4" d="M313.26 159.56l7.32 4.23c3.59 2.07 6.5 7.11 6.5 11.25v55.36c0 4.14-2.91 5.82-6.5 3.75l-7.32-4.23c-3.59-2.07-6.5-7.11-6.5-11.25v-55.36c.01-4.14 2.91-5.82 6.5-3.75z"/><path id="XMLID_3905_" class="st5" d="M321.6 234.66c3.6 1.52 8.7 1.38 11.98-.5l68.25-39.42c3.58-2.05 6.5-7.1 6.5-11.25v-55.35c0-2.07-.73-4.37-1.9-6.4l-81.25 46.9c1.17 2.05 1.9 4.35 1.9 6.4v55.38c0 3.71-2.38 5.44-5.48 4.24z"/><path id="XMLID_3904_" class="st6" d="M306.78 163.31c0-4.13 2.9-5.82 6.48-3.75l7.32 4.23c1.8 1.05 3.43 2.83 4.6 4.85l81.25-46.9c-1.17-2.05-2.83-3.8-4.6-4.85l-7.32-4.22c-3.57-2.08-9.4-2.08-13 0l-68.25 39.4c-3.58 2.06-6.48 7.11-6.48 11.24z"/></g><g id="XMLID_3891_"><g id="XMLID_3897_"><path id="XMLID_3901_" class="st1" d="M393.25 142.76l-58.1 33.54c-3.59 2.07-6.5 7.11-6.5 11.25v43.63c0 4.14 2.91 9.18 6.5 11.25l68.25 39.4c3.59 2.07 9.4 2.07 12.99 0l58.1-33.54c3.59-2.07 6.5-7.11 6.5-11.25v-43.63c0-4.14-2.91-9.18-6.5-11.25l-68.25-39.4c-3.59-2.07-9.4-2.07-12.99 0z"/><path id="XMLID_3899_" class="st7" d="M335.15 183.8l68.35 39.42c3.59 2.07 9.4 2.07 12.99 0l58.1-33.54c3.59-2.07 3.59-5.43 0-7.5l-68.35-39.42c-3.59-2.07-9.4-2.07-12.99 0l-58.1 33.54c-3.58 2.07-3.58 5.43 0 7.5z"/><path id="XMLID_3898_" class="st5" d="M409.91 224.77v58.63c2.35 0 4.7-.53 6.48-1.57l58.1-33.53c3.6-2.07 6.5-7.1 6.5-11.25v-43.63c0-3.43-1.98-7.47-4.7-9.93 1.77 2 1.2 4.5-1.7 6.18l-58.07 33.55c-1.84 1.05-4.24 1.58-6.61 1.55z"/></g><g id="XMLID_3892_"><path id="XMLID_3896_" class="st1" d="M484.64 105.94l-68.25-39.4c-3.59-2.07-9.4-2.07-12.99 0l-7.32 4.23c-3.59 2.07-6.5 7.11-6.5 11.25v55.36c0 4.14 2.91 9.18 6.5 11.25l68.25 39.4c3.59 2.07 9.4 2.07 12.99 0l7.32-4.23c3.59-2.07 6.5-7.11 6.5-11.25v-55.36c0-4.14-2.91-9.18-6.5-11.25z"/><path id="XMLID_3916_" class="st7" d="M391.48 75.63l81.25 46.93c1.15-2.05 2.8-3.83 4.6-4.88l7.32-4.23c3.57-2.08 6.48-.4 6.48 3.75 0-4.15-2.9-9.17-6.48-11.25l-68.25-39.4c-3.6-2.08-9.42-2.08-13 0l-7.32 4.22c-1.8 1.03-3.43 2.81-4.6 4.86z"/><path id="XMLID_3894_" class="st5" d="M484.64 113.44l-7.32 4.23c-3.59 2.07-6.5 7.11-6.5 11.25v55.36c0 4.14 2.91 5.82 6.5 3.75l7.32-4.23c3.59-2.07 6.5-7.11 6.5-11.25v-55.36c0-4.14-2.91-5.82-6.5-3.75z"/></g></g><g id="XMLID_3888_"><g id="XMLID_3889_"><path id="XMLID_3885_" class="st1" d="M476.88 191.07l-58.1 33.54c-3.59 2.07-6.5 7.11-6.5 11.25v43.63c0 4.14 2.91 9.18 6.5 11.25l68.25 39.4c3.59 2.07 9.4 2.07 12.99 0l58.1-33.54c3.59-2.07 6.5-7.11 6.5-11.25v-43.63c0-4.14-2.91-9.18-6.5-11.25l-68.25-39.4c-3.59-2.07-9.4-2.07-12.99 0z"/><path id="XMLID_3886_" class="st7" d="M418.78 232.12l68.35 39.42c3.59 2.07 9.4 2.07 12.99 0l58.1-33.54c3.59-2.07 3.59-5.43 0-7.5l-68.35-39.42c-3.59-2.07-9.4-2.07-12.99 0l-58.1 33.54c-3.58 2.07-3.58 5.42 0 7.5z"/><path id="XMLID_3900_" class="st5" d="M493.54 273.09v58.63c2.35 0 4.7-.53 6.48-1.58l58.1-33.52c3.6-2.08 6.5-7.1 6.5-11.25v-43.63c0-3.43-1.98-7.47-4.7-9.92 1.77 2 1.2 4.5-1.7 6.17l-58.07 33.55c-1.84 1.05-4.24 1.57-6.61 1.55z"/></g><g id="XMLID_3887_"><path id="XMLID_3882_" class="st1" d="M568.27 154.26l-68.25-39.4c-3.59-2.07-9.4-2.07-12.99 0l-7.32 4.23c-3.59 2.07-6.5 7.11-6.5 11.25v55.36c0 4.14 2.91 9.18 6.5 11.25l68.25 39.4c3.59 2.07 9.4 2.07 12.99 0l7.32-4.23c3.59-2.07 6.5-7.11 6.5-11.25v-55.36c0-4.14-2.91-9.18-6.5-11.25z"/><path id="XMLID_3881_" class="st5" d="M568.27 161.76l-7.32 4.23c-3.59 2.07-6.5 7.11-6.5 11.25v55.36c0 4.14 2.91 5.82 6.5 3.75l7.32-4.23c3.59-2.07 6.5-7.11 6.5-11.25v-55.36c0-4.14-2.91-5.82-6.5-3.75z"/></g><path id="XMLID_3917_" class="st7" d="M475.13 123.93l81.22 46.9c1.17-2.03 2.83-3.8 4.6-4.85l7.32-4.22c3.58-2.08 6.5-.38 6.5 3.75 0-4.13-2.92-9.18-6.5-11.25l-68.25-39.4c-3.6-2.08-9.4-2.08-13 0l-7.32 4.22c-1.77 1.05-3.4 2.8-4.57 4.85z"/></g><g id="XMLID_3890_"><path id="XMLID_3883_" class="st1" d="M569.79 221.25l-68.25 39.4c-3.59 2.07-6.5 7.11-6.5 11.25v55.36c0 4.14 2.91 9.18 6.5 11.25l7.32 4.23c3.59 2.07 9.4 2.07 12.99 0l68.25-39.4c3.59-2.07 6.5-7.11 6.5-11.25v-55.36c0-4.14-2.91-9.18-6.5-11.25l-7.32-4.22c-3.59-2.08-9.4-2.08-12.99-.01z"/><path id="XMLID_3884_" class="st4" d="M501.54 268.16l7.32 4.23c3.59 2.07 6.5 7.11 6.5 11.25V339c0 4.14-2.91 5.82-6.5 3.75l-7.32-4.23c-3.59-2.07-6.5-7.11-6.5-11.25v-55.36c0-4.15 2.91-5.82 6.5-3.75z"/><path id="XMLID_3895_" class="st5" d="M509.88 343.25c3.6 1.53 8.7 1.38 11.98-.5l68.25-39.42c3.58-2.05 6.5-7.1 6.5-11.25v-55.35c0-2.08-.73-4.38-1.9-6.4l-81.25 46.9c1.17 2.05 1.9 4.35 1.9 6.4V339c-.01 3.73-2.38 5.45-5.48 4.25z"/><path id="XMLID_3893_" class="st6" d="M495.05 271.9c0-4.13 2.9-5.83 6.48-3.75l7.32 4.23c1.8 1.05 3.43 2.82 4.6 4.85l81.25-46.9c-1.17-2.05-2.83-3.8-4.6-4.85l-7.32-4.23c-3.57-2.07-9.4-2.07-13 0l-68.25 39.4c-3.58 2.08-6.48 7.13-6.48 11.25z"/></g></g></g><g id="Character"><g id="Character_1_"><g id="XMLID_49_"><path id="XMLID_84_" class="st8" d="M497.66 147.32c-7.8-.26-11.98 2.69-13.33 8.63-1.35 5.94 2.83 30.01 2.83 30.01-12.21 7.49-20.54 12.4-26.32 15.06-4.55 2.1-17.98 13.23-18.16 15.94-.18 2.71 5.26-1.89 8.63-4.13 3.37-2.25 7.41-2 14.12-3.79 6.71-1.8 30.58-7.9 33.92-11.08 3.35-3.18-1.69-50.64-1.69-50.64z"/><g id="XMLID_50_"><g id="XMLID_73_"><g id="XMLID_81_"><path id="XMLID_83_" class="st9" d="M448.77 289.83c.91.95 1.94 2.05 1.83 3.25-.12 1.19-.73 4.07-3.23 6.78-2.51 2.71-4.15 7.88-4.61 11.39-.46 3.51-.78 12.46-5.23 15.98-4.45 3.52-15.24 5.29-15.25-1.24s12.88-31.62 12.88-31.62l13.61-4.54z"/><path id="XMLID_82_" class="st10" d="M442.79 294.03c-1.27 3.28-3.25 8.78-4.35 14.02-1.1 5.24-2.65 8.92-5.32 10.34-2.67 1.41-6.66 1.15-5.16-2.4s7.2-21.62 7.2-21.62l7.63-.34z"/></g><path id="XMLID_80_" class="st11" d="M477.28 204.88s-21.22 9.71-31.53 15.25c-10.32 5.54-20.13 10.96-22.18 15.43-2.17 4.72-1.61 15.96-.48 26.77 1.13 10.81 3.5 30.24 3.5 30.24l30.22-45.29 30.36-20.06-9.89-22.34z"/><path id="XMLID_79_" class="st12" d="M478.24 225.54l-.95-2.26s-17.54 10.13-23.63 13.91c-6.09 3.77-12.6 8.38-15.58 15.32-2.98 6.93-12.24 34.39-12.24 34.39l21.3-38.15 31.1-23.21z"/><g id="XMLID_75_"><path id="XMLID_78_" class="st9" d="M424 326.48c.87.58.76 2.74.67 4.32-.09 1.58 1.06 3.66-1.24 6.1-2.3 2.44-6.18 2.66-9.31 5.99-3.14 3.33-7.95 9.49-16.58 9.93-8.63.44-14.55-3.32-15.71-6.06-1.16-2.73.61-4.86 6.43-7.07 6.18-2.34 7.94-3.03 7.94-3.03l27.8-10.18z"/><path id="XMLID_77_" class="st8" d="M417.76 307.89s-5.81 10.51-9.08 15.24c-3.26 4.73-7.91 8.97-12.92 12.81-1.09.84-3.49 2.31-4.38 2.99-.79.6-1.07 1.43-.34 2.49 1.44 2.09 8.99 4.08 13.93 1.76 4.94-2.32 10.4-7.55 13.48-9.6 1.54-1.03 3-2.01 4.07-2.74 1.02-.7 1.61-1.88 1.54-3.12-.02-.35-.04-.76-.05-1.24-.08-2.59 5.27-12.03 5.27-12.03l-11.52-6.56z"/><path id="XMLID_76_" class="st11" d="M524.23 216.86c-.09 8.63-.52 13.44-5.04 21.31-4.52 7.87-15.56 12.85-28.59 17.23-10.78 3.62-26.64 8.79-29.78 9.47-3.14.68-3.8 2.36-4.53 7.93-.73 5.57-4.48 14.16-12.9 24.14-8.89 10.54-17.11 23.18-17.11 23.18s-8.8 0-12.16-5.86c0 0 24.49-57.77 28.41-64.43 3.92-6.67 35.69-24.28 35.69-24.28s-.53-11.95-.96-20.66l46.97 11.97z"/></g><path id="XMLID_74_" class="st12" d="M473.74 216.97s2.25 5.19 4.5 8.57l-1.94 1.09s-2.53-4.79-2.56-9.66z"/></g><path id="XMLID_72_" class="st13" d="M518.89 150.74l7.64 3.85s-5.27 5.3-3.83 18.32c1.02 9.22 3.09 10 7.77 12.61-6.23 14.15-6.31 35-6.31 35s-11 5.9-31.03.22c-17.59-4.99-15.85-15.85-15.85-15.85l7.56-5.83 1.71-13.78s-5.96-5.99-3.38-16.64c2.59-10.65 14.48-21.31 14.48-21.31h4.64l16.6 3.41z"/><path id="XMLID_71_" class="st14" d="M480.12 213.2c8.94 3.35 22.5 3.87 27.96.01 5.46-3.86 10.07-14.54 9.18-21.45-.89-6.91.87-18.71 3.58-25.72l1.78-.5c-.2 2.18-.22 4.63.08 7.36 1.02 9.22 3.08 10 7.77 12.61-5.85 13.81-6.31 35-6.31 35s-11.01 5.9-31.03.22c-5.69-1.61-10.27-4.11-13.01-7.53z"/><g id="XMLID_51_"><g id="XMLID_67_"><path id="XMLID_70_" class="st9" d="M504.92 139.77l8.59.23c11.96.33 21.92-9.1 22.24-21.06.39-14.33-10.91-26.26-25.24-26.65-14.33-.39-26.26 10.91-26.65 25.24-.33 11.95 9.1 21.91 21.06 22.24z"/><path id="XMLID_69_" class="st9" d="M517.37 86.34c-3.83 5.37.01 9.19 5.39 13.02 5.37 3.83 10.23 6.22 14.06.85s1.93-11.51-3.44-15.34-12.18-3.9-16.01 1.47z"/><path id="XMLID_68_" class="st9" d="M530.34 103.52l5.4 4.19c1.23-1.48 1.02-3.62-.47-4.78-1.5-1.15-3.71-.89-4.93.59z"/></g><g id="XMLID_52_"><g id="XMLID_65_"><path id="XMLID_66_" class="st8" d="M494.2 103.47c-2.78 1.54-6.36 8.35-6.42 22.81-.05 12.26 3.84 15.39 5.81 16.31 1.97.93 5.83.5 9.58-.02l-.07 5.07s-6.74 7.37-6.5 10.75c.23 3.38 8.62 5.13 13.54 1.97s9.18-9.39 9.18-9.39l.36-16.99s2.14 2.2 5.96-.96c3.15-2.61 4.31-7.12 1.98-9.62-2.33-2.5-6.79-1.96-8.58 1.47 0 0-5.97.06-13.79-4.52-7.81-4.57-10.65-12.12-11.05-16.88z"/></g><g id="XMLID_63_"><path id="XMLID_64_" class="st9" d="M501.54 123.57c-.07.88.56 1.65 1.41 1.71.85.06 1.59-.6 1.66-1.48.07-.88-.56-1.65-1.41-1.71-.85-.06-1.59.6-1.66 1.48z"/></g><g id="XMLID_61_"><path id="XMLID_62_" class="st10" d="M500.84 133.94l-3.61 1.04c.27 1.03 1.3 1.63 2.29 1.35 1-.29 1.59-1.36 1.32-2.39z"/></g><g id="XMLID_59_"><path id="XMLID_60_" class="st9" d="M489.04 118.5l3.17-2.08c-.54-.91-1.7-1.17-2.57-.6-.88.58-1.14 1.77-.6 2.68z"/></g><g id="XMLID_57_"><path id="XMLID_58_" class="st9" d="M489.66 122.13c-.07.88.56 1.65 1.41 1.71.85.06 1.59-.6 1.66-1.48.07-.88-.56-1.65-1.41-1.71-.85-.06-1.59.6-1.66 1.48z"/></g><g id="XMLID_55_"><path id="XMLID_56_" class="st10" d="M496.63 120.68l-.18 10.03-4.84-1.64z"/></g><g id="XMLID_53_"><path id="XMLID_54_" class="st10" d="M503.17 142.57c3.95-.41 12.12-2.52 13.47-5.69 0 0-.48 2-2.95 4.01-2.48 2.01-10.58 4.13-10.58 4.13l.06-2.45z"/></g></g></g></g></g><g id="XMLID_25_"><g id="XMLID_26_"><g id="XMLID_47_"><path id="XMLID_48_" class="st15" d="M506.57 236.29v1.06c0 1.07-.57 2.07-1.5 2.6l-28.62 16.47c-.46.27-.98.4-1.5.4s-1.04-.13-1.5-.4l-52.51-30.31c-.93-.54-1.5-1.53-1.5-2.6v-.73l55.51 32.05 31.62-18.54z"/></g><g id="XMLID_45_"><path id="XMLID_46_" class="st13" d="M419.44 222.78l31.13-17.97c.55-.32 1.24-.32 1.79 0L506.37 236c.27.15.27.54 0 .69l-31.42 18.15-55.51-32.06z"/></g><g id="XMLID_43_"><path id="XMLID_44_" class="st8" d="M465.44 209.04c-2.56.98-2.46 1.74-4.55 2.92-3.87 2.2-6.38 1.76-6.38 1.76s-1.89 1.81-3.66 3.02c-2.74 1.88-5.48 3.32-8.85 2.26-3.69-1.17-1.09-4.82 0-6.62 1.09-1.8 7.04-7.07 8.2-8.15 1.17-1.08 6.21-1.82 10.64-3.21l4.6 8.02z"/></g><g id="XMLID_41_"><path id="XMLID_42_" class="st16" d="M475.24 252.18l16.79-9.68-49.1-28.35-16.88 9.63z"/></g><g id="XMLID_39_"><path id="XMLID_40_" class="st16" d="M483.49 225.24l-.31.18-8.23 4.75-14.64-8.45-.3-.17 8.54-4.93z"/></g><g id="XMLID_37_"><path id="XMLID_38_" class="st17" d="M483.18 225.42l-8.23 4.75-14.64-8.45 8.24-4.75z"/></g><g id="XMLID_35_"><path id="XMLID_36_" class="st15" d="M474.95 254.82v2c-.52 0-1.04-.13-1.5-.4l-52.51-30.31c-.93-.54-1.5-1.53-1.5-2.6v-.73l55.51 32.04z"/></g><g id="XMLID_33_" class="st18"><path id="XMLID_34_" class="st16" d="M474.95 254.82v2c-.52 0-1.04-.13-1.5-.4l-52.51-30.31c-.93-.54-1.5-1.53-1.5-2.6v-.73l55.51 32.04z"/></g><g id="XMLID_31_"><path id="XMLID_32_" class="st15" d="M474.1 255.27c-.99.38-2.12.31-3.06-.24l-52.28-30.18a3.558 3.558 0 0 1-1.73-2.49l-5.72-34.13c-.03-.19-.05-.39-.05-.58 0-.95.38-1.86 1.05-2.53l54.32 31.37a2.63 2.63 0 0 1 1.28 1.84l6.19 36.94z"/></g><g id="XMLID_29_"><path id="XMLID_30_" class="st13" d="M474.95 254.83l-.36.2c-.16.09-.32.17-.49.24l-6.19-36.93a2.63 2.63 0 0 0-1.28-1.84l-54.32-31.37c.21-.21.46-.39.73-.55L467.48 216a2.63 2.63 0 0 1 1.28 1.84l6.19 36.99z"/></g><g id="XMLID_27_"><path id="XMLID_28_" class="st1" d="M444.66 223.76c-.38-2.28-2.74-5.32-5.27-6.78-2.53-1.46-4.26-.79-3.88 1.5.38 2.28 2.74 5.32 5.27 6.78 2.53 1.46 4.26.79 3.88-1.5z"/></g></g></g><g id="XMLID_23_"><path id="XMLID_24_" class="st8" d="M501.98 230.89c6.67-1.94 30.55-8.63 37.8-10.97 5.05-1.63 7.78-2.79 7.91-7.16.12-4.06-5.89-37.32-8.07-45.51-1.91-7.19-6.18-9.65-13.09-12.66-4.78 3.78-6.14 23.04-.43 28.1 2.13 8.45 5.96 23.1 5.96 23.1s-13.57 7.05-23.28 11.73c-4.84 2.33-11.4 5.67-15.26 6.09-3.06.33-8.49.54-9.66 1.62s-6.79 7.34-7.88 9.13c-1.09 1.8-3.69 5.45 0 6.62 3.37 1.07 6.12-.38 8.85-2.26 1.76-1.21 3.66-3.02 3.66-3.02s4.04.63 7.91-1.57c2.1-1.18 5.58-3.24 5.58-3.24z"/></g></g></g><g id="Speach_Bubbles"><g id="Speach_Bubble_1_"><g id="XMLID_1059_"><g id="XMLID_1064_"><path id="XMLID_3697_" class="st16" d="M520.2 53.54l3.63-6.82-2.92-8.43v-5.16l8.94 5.16v5.16l-3.84 6.65c-.07.11-.16.19-.26.23l-5.55 3.21z"/><path id="XMLID_3693_" class="st14" d="M524.24 46.7l-3.83 6.64c-.24.42-.88.36-1.04-.1l-4.05-11.7 8.92 5.16z"/><path id="XMLID_3641_" class="st14" d="M505.16 6.54c0-1.71 1.2-3.79 2.68-4.64l2.18-1.26c1.48-.85 3.88-.85 5.36 0l50.53 29.2c1.48.85 2.68 2.93 2.68 4.64v26.13c0 1.71-1.2 3.79-2.68 4.64l-2.18 1.26c-1.48.85-3.88.85-5.36 0l-10.76-6.22-8.92-5.16-30.85-17.82c-1.48-.85-2.68-2.93-2.68-4.64V6.54z"/><path id="XMLID_3387_" class="st16" d="M568.59 60.61c0 1.71-1.2 3.79-2.68 4.64l-2.18 1.26c-1.34.77-3.42.84-4.9.22 1.26.48 2.22-.23 2.22-1.76V38.84c0-.85-.3-1.8-.78-2.64l7.54-4.35c.48.84.78 1.79.78 2.64v26.12z"/><g id="XMLID_1065_"><path id="XMLID_3386_" class="st13" d="M505.25 5.78c.31-1.14 1.35-1.5 2.59-.79l50.54 29.2c.74.42 1.41 1.15 1.89 2l7.54-4.35c-.49-.85-1.15-1.58-1.89-2L515.39.64c-1.49-.85-3.89-.85-5.36 0l-2.19 1.26c-1.27.73-2.33 2.35-2.59 3.88z"/></g></g></g><path id="XMLID_1058_" class="st3" d="M554.33 38.2l-42.47-24.52c-.9-.52-1.62-.28-1.62.53s.73 1.89 1.62 2.4l42.47 24.52c.9.52 1.62.28 1.62-.53s-.72-1.89-1.62-2.4z"/><path id="XMLID_1061_" class="st3" d="M554.33 46.56l-42.47-24.52c-.9-.52-1.62-.28-1.62.53s.73 1.89 1.62 2.4l42.47 24.52c.9.52 1.62.28 1.62-.53s-.72-1.89-1.62-2.4z"/><path id="XMLID_1062_" class="st3" d="M554.33 54.92L511.86 30.4c-.9-.52-1.62-.28-1.62.53s.73 1.89 1.62 2.4l42.47 24.52c.9.52 1.62.28 1.62-.53s-.72-1.89-1.62-2.4z"/></g><g id="Speach_Bubble"><g id="XMLID_16777_"><path id="XMLID_16785_" class="st1" d="M477.53 75.88l3.63-6.82-2.92-8.43v-5.16l8.94 5.16v5.16l-3.84 6.65c-.07.11-.16.19-.26.23l-5.55 3.21z"/><path id="XMLID_1056_" class="st5" d="M477.53 75.88l3.63-6.82-2.92-8.43v-5.16l8.94 5.16v5.16l-3.84 6.65c-.07.11-.16.19-.26.23l-5.55 3.21z"/><path id="XMLID_1057_" class="st1" d="M439.12 15.28c0-1.71 1.2-3.79 2.68-4.64l2.18-1.26c1.48-.85 3.88-.85 5.36 0l50.53 29.2c1.48.85 2.68 2.93 2.68 4.64v26.13c0 1.71-1.2 3.79-2.68 4.64l-2.18 1.26c-1.48.85-3.88.85-5.36 0l-10.76-6.22-3.83 6.64c-.24.42-.88.36-1.04-.1l-4.05-11.7-30.85-17.82c-1.48-.85-2.68-2.93-2.68-4.64V15.28z"/><path id="XMLID_16782_" class="st5" d="M502.55 69.35c0 1.71-1.2 3.79-2.68 4.64l-2.18 1.26c-1.34.77-3.42.84-4.9.22 1.26.48 2.22-.23 2.22-1.76V47.58c0-.85-.3-1.8-.78-2.64l7.54-4.35c.48.84.78 1.79.78 2.64v26.12z"/><g id="XMLID_1055_"><path id="XMLID_3382_" class="st7" d="M439.2 14.52c.31-1.14 1.35-1.5 2.59-.79l50.54 29.2c.74.42 1.41 1.15 1.89 2l7.54-4.35c-.49-.85-1.15-1.58-1.89-2l-50.53-29.2c-1.49-.85-3.89-.85-5.36 0l-2.19 1.26c-1.26.73-2.32 2.35-2.59 3.88z"/></g></g><g id="XMLID_16774_"><path id="XMLID_16773_" class="st3" d="M480.25 47.99c1.97 1.14 3.58 3.91 3.58 6.19 0 2.28-1.6 3.2-3.58 2.06-1.97-1.14-3.58-3.91-3.58-6.19 0-2.28 1.6-3.2 3.58-2.06z"/><path id="XMLID_16775_" class="st3" d="M467.06 40.36c1.97 1.14 3.58 3.91 3.58 6.19 0 2.28-1.6 3.2-3.58 2.06-1.97-1.14-3.58-3.91-3.58-6.19.01-2.27 1.61-3.2 3.58-2.06z"/><path id="XMLID_16776_" class="st3" d="M453.88 32.73c1.97 1.14 3.58 3.91 3.58 6.19 0 2.28-1.6 3.2-3.58 2.06-1.97-1.14-3.58-3.91-3.58-6.19 0-2.27 1.6-3.2 3.58-2.06z"/></g></g><g id="Question_Mark_2_"><path id="XMLID_15_" class="st16" d="M27.39 274.58l-4.34-2.5c-1.03-.6-2.51-.46-4.41.63-4.17 2.4-6.28 6.94-6.28 11.23 0 2.27.6 3.95 1.78 4.67l4.34 2.52c1.04.63 2.54.5 4.49-.62 4.17-2.4 6.21-7 6.21-11.28-.01-2.3-.61-3.96-1.79-4.65z"/><path id="XMLID_14_" class="st16" d="M37.55 216.45l-4.42-2.54c-3.12-1.79-7.66-1.36-13.4 1.95C9.35 221.85 2.19 233.3 0 245.38l4.32 2.49 11.55-2.57c1.32-5.05 3.29-8.62 7.82-11.24.68-.39 1.29-.67 1.84-.86.09.48.13 1.01.13 1.56 0 3.9-2.63 8.34-13.15 18.8v16.56l4.32 2.49 12.35-7.13v-9.16c6.14-6.56 13.15-16.36 13.15-28.35-.01-5.63-1.67-9.69-4.78-11.52z"/><path id="XMLID_13_" class="st14" d="M16.82 256.05c10.52-10.46 13.15-14.9 13.15-18.8 0-3.41-1.53-5.93-6.28-3.19-4.53 2.62-6.5 6.19-7.82 11.24l-11.55 2.57c2.19-12.08 9.35-23.52 19.73-29.52 11.55-6.67 18.27-1.68 18.27 9.62 0 11.98-7.02 21.78-13.15 28.35v9.16l-12.35 7.13v-16.56z"/><path id="XMLID_12_" class="st14" d="M16.67 286.43c0-4.29 2.12-8.82 6.28-11.23 4.09-2.36 6.21-.27 6.21 4.01 0 4.29-2.05 8.88-6.21 11.28-4.16 2.42-6.28.23-6.28-4.06z"/><path id="XMLID_6_" class="st16" d="M29.97 237.25c0 3.9-2.63 8.34-13.15 18.8l-4.32-2.49c10.52-10.46 13.15-14.9 13.15-18.8 0-.55-.04-1.07-.12-1.56 3.31-1.14 4.44 1.13 4.44 4.05z"/></g><g id="Question_Mark_1_"><path id="XMLID_5_" class="st16" d="M84.91 204.37l-5.71-3.29c-1.36-.79-3.3-.61-5.8.83-5.48 3.16-8.27 9.13-8.27 14.78 0 2.99.79 5.2 2.34 6.14l5.71 3.31c1.37.83 3.35.66 5.91-.82 5.48-3.16 8.17-9.21 8.17-14.85-.01-3-.8-5.19-2.35-6.1z"/><path id="XMLID_4_" class="st16" d="M98.28 127.87l-5.81-3.34c-4.11-2.35-10.09-1.79-17.64 2.57-13.66 7.88-23.08 22.94-25.97 38.84l5.68 3.28 15.2-3.39c1.73-6.64 4.33-11.35 10.29-14.79.89-.51 1.69-.88 2.42-1.13.11.64.17 1.33.17 2.05 0 5.13-3.46 10.97-17.31 24.74v21.8l5.68 3.28 16.25-9.38v-12.05c8.08-8.64 17.31-21.53 17.31-37.31.01-7.42-2.17-12.76-6.27-15.17z"/><path id="XMLID_3_" class="st14" d="M71 179.99c13.85-13.77 17.31-19.61 17.31-24.74 0-4.49-2.02-7.81-8.27-4.2-5.96 3.44-8.56 8.15-10.29 14.79l-15.2 3.39c2.89-15.9 12.31-30.96 25.97-38.84 15.19-8.77 24.04-2.21 24.04 12.66 0 15.77-9.23 28.67-17.31 37.31v12.05L71 201.79v-21.8z"/><path id="XMLID_2_" class="st14" d="M70.81 219.97c0-5.64 2.79-11.61 8.27-14.78 5.39-3.11 8.17-.36 8.17 5.28 0 5.64-2.69 11.68-8.17 14.85s-8.27.29-8.27-5.35z"/><path id="XMLID_1_" class="st16" d="M88.31 155.25c0 5.13-3.46 10.97-17.31 24.74l-5.68-3.28c13.85-13.77 17.3-19.61 17.3-24.74 0-.72-.05-1.41-.16-2.05 4.37-1.51 5.85 1.48 5.85 5.33z"/></g><g id="Question_Mark_3_"><path id="XMLID_11_" class="st16" d="M162.08 318.88l-9.32-5.37c-2.22-1.29-5.39-1-9.47 1.36-8.94 5.16-13.49 14.9-13.49 24.11 0 4.88 1.29 8.48 3.82 10.02l9.31 5.4c2.24 1.35 5.46 1.08 9.64-1.33 8.94-5.16 13.34-15.02 13.34-24.23 0-4.9-1.29-8.47-3.83-9.96z"/><path id="XMLID_10_" class="st16" d="M183.9 194.08l-9.48-5.45c-6.7-3.84-16.45-2.92-28.77 4.2-22.28 12.86-37.66 37.43-42.37 63.37l9.27 5.36 24.79-5.53c2.82-10.84 7.06-18.51 16.79-24.13 1.45-.84 2.76-1.44 3.95-1.85.19 1.04.27 2.17.27 3.35 0 8.37-5.65 17.9-28.24 40.36v35.56l9.27 5.36 26.52-15.31V279.7c13.18-14.09 28.24-35.13 28.24-60.87.01-12.11-3.56-20.82-10.24-24.75z"/><path id="XMLID_9_" class="st14" d="M139.39 279.11c22.59-22.46 28.24-32 28.24-40.36 0-7.32-3.29-12.74-13.49-6.85-9.73 5.62-13.96 13.29-16.79 24.13l-24.79 5.53c4.71-25.94 20.08-50.51 42.37-63.37 24.79-14.31 39.22-3.61 39.22 20.66 0 25.73-15.06 46.77-28.24 60.87v19.67l-26.52 15.31v-35.59z"/><path id="XMLID_8_" class="st14" d="M139.08 344.34c0-9.21 4.55-18.94 13.49-24.11 8.79-5.07 13.34-.59 13.34 8.62 0 9.21-4.39 19.06-13.34 24.23-8.94 5.16-13.49.46-13.49-8.74z"/><path id="XMLID_7_" class="st16" d="M167.63 238.75c0 8.37-5.65 17.9-28.24 40.37l-9.27-5.35c22.59-22.47 28.23-32 28.23-40.37 0-1.18-.08-2.31-.26-3.34 7.12-2.47 9.54 2.41 9.54 8.69z"/></g></g></svg>