<svg fill="#ff7c00" xmlns="http://www.w3.org/2000/svg" viewBox="0 0 612 792"><path d="M305.88 338.44c-50.85 0-92.22 39.97-92.22 89.08 0 49.12 41.37 89.08 92.22 89.08s92.22-39.96 92.22-89.08c0-49.11-41.37-89.08-92.22-89.08zm-60.71 54.38c0-14.72 11.98-26.7 26.69-26.7 14.72 0 26.7 11.98 26.7 26.7 0 14.72-11.98 26.7-26.7 26.7-14.71 0-26.69-11.97-26.69-26.7zm25.3 84.73l-15.68-16.17 86.51-83.89 15.68 16.17-86.51 83.89zm70.82 11.4c-14.72 0-26.7-11.98-26.7-26.7s11.97-26.7 26.7-26.7c14.72 0 26.7 11.98 26.7 26.7s-11.98 26.7-26.7 26.7zm0 0"/><path d="M278.8 392.82c0-3.82-3.11-6.93-6.93-6.93s-6.93 3.11-6.93 6.93 3.11 6.93 6.93 6.93 6.93-3.1 6.93-6.93zm62.49 62.5c-3.82 0-6.93 3.11-6.93 6.93s3.11 6.93 6.93 6.93 6.93-3.11 6.93-6.93c0-3.83-3.11-6.93-6.93-6.93zm-35.41-228.79c16.72 0 31.45 8.68 39.94 21.76h25.24c-10.3-25.92-35.63-44.29-65.18-44.29-29.54 0-54.88 18.37-65.18 44.29h25.24c8.49-13.08 23.22-21.76 39.94-21.76zm0 0"/><path d="M448.54 270.82H163.23L141 588h329.77l-22.23-317.18zM305.88 539.13c-63.27 0-114.75-50.07-114.75-111.61s51.48-111.61 114.75-111.61 114.75 50.07 114.75 111.61-51.47 111.61-114.75 111.61zm0 0"/></svg>