<svg fill="#fff" xmlns="http://www.w3.org/2000/svg" viewBox="0 0 612 792"><path d="M110 363.88c0 89.68 72.96 162.56 162.56 162.56 41.28 0 79.04-15.52 107.76-40.96l103.6 103.6a9.745 9.745 0 0 0 6.96 2.88c2.56 0 5.04-.96 6.96-2.88 3.84-3.84 3.84-10 0-13.84l-103.68-103.6c25.44-28.72 40.96-66.4 40.96-107.76 0-89.68-72.96-162.56-162.56-162.56-89.6 0-162.56 72.88-162.56 162.56zm305.52 0c0 78.8-64.16 142.96-142.96 142.96-78.8 0-142.96-64.16-142.96-142.96 0-78.8 64.16-142.96 142.96-142.96 78.8 0 142.96 64.08 142.96 142.96zm0 0"/></svg>