<svg xmlns="http://www.w3.org/2000/svg" viewBox="0 0 427.48 490" fill="#00abb9"><path d="M82.76 162.23C37.06 162.23 0 199.29 0 244.99s37.06 82.76 82.76 82.76c21.33 0 40.56-8.28 55.23-21.53l127.33 78.87c-1.98 7.09-3.38 14.42-3.38 22.14 0 45.71 37.05 82.76 82.76 82.76s82.76-37.05 82.76-82.76-37.05-82.76-82.76-82.76c-21.31 0-40.56 8.28-55.23 21.53l-127.33-78.87c1.98-7.09 3.38-14.42 3.38-22.14 0-7.73-1.39-15.05-3.38-22.14L289.49 144c14.67 13.24 33.92 21.53 55.23 21.53 45.71 0 82.76-37.05 82.76-82.76C427.46 37.06 390.42 0 344.72 0s-82.76 37.06-82.76 82.76c0 7.72 1.39 15.05 3.38 22.14l-127.33 78.87c-14.69-13.24-33.92-21.54-55.25-21.54zm51.63 87.72c-1.59 16.51-10.72 30.73-24.09 39.12-8.01 5.02-17.41 8.05-27.55 8.05-28.74 0-52.14-23.38-52.14-52.14S54 192.86 82.76 192.86c10.14 0 19.54 3.03 27.55 8.05 13.37 8.39 22.49 22.62 24.09 39.11.15 1.65.51 3.26.51 4.96-.01 1.71-.35 3.32-.52 4.97zm158.7 152.33c1.59-16.51 10.72-30.73 24.09-39.12 8.01-5.02 17.41-8.05 27.55-8.05 28.74 0 52.14 23.38 52.14 52.14s-23.4 52.12-52.14 52.12c-28.74 0-52.14-23.38-52.14-52.14-.01-1.71.33-3.3.5-4.95zm51.63-371.66c28.74 0 52.14 23.38 52.14 52.14s-23.38 52.14-52.14 52.14c-10.14 0-19.52-3.03-27.55-8.05-13.37-8.38-22.49-22.62-24.09-39.12-.15-1.65-.51-3.26-.51-4.96.01-28.76 23.39-52.15 52.15-52.15z"/></svg>