<svg fill="#00abb9" xmlns="http://www.w3.org/2000/svg" viewBox="-49 141 512 512"><path d="M355.99 485.08c-26.74 0-50.59 12.58-65.97 32.12l-154.09-88.96c3.89-9.66 6.05-20.2 6.05-31.24s-2.16-21.57-6.05-31.24l154.09-88.96c15.39 19.54 39.23 32.12 65.97 32.12 46.3 0 83.96-37.67 83.96-83.96S402.29 141 355.99 141s-83.96 37.66-83.96 83.96c0 11.04 2.16 21.58 6.05 31.24l-154.09 88.96c-15.39-19.54-39.23-32.13-65.98-32.13-46.3 0-83.96 37.67-83.96 83.96s37.66 83.96 83.96 83.96c26.75 0 50.59-12.58 65.98-32.13l154.09 88.96a83.443 83.443 0 0 0-6.05 31.24c0 46.3 37.66 83.96 83.96 83.96s83.96-37.66 83.96-83.96c0-46.28-37.66-83.94-83.96-83.94zm0-320.27c33.17 0 60.15 26.98 60.15 60.15s-26.98 60.15-60.15 60.15-60.15-26.99-60.15-60.15 26.98-60.15 60.15-60.15zM58.01 457.16c-33.17 0-60.15-26.99-60.15-60.15s26.98-60.15 60.15-60.15 60.15 26.99 60.15 60.15-26.98 60.15-60.15 60.15zm297.98 172.03c-33.17 0-60.15-26.98-60.15-60.15s26.98-60.15 60.15-60.15 60.15 26.99 60.15 60.15c0 33.17-26.98 60.15-60.15 60.15z"/><path d="M58.01 361.61c-19.52 0-35.39 15.88-35.39 35.39 0 6.57 5.33 11.9 11.9 11.9s11.9-5.33 11.9-11.9c0-6.39 5.2-11.59 11.59-11.59 6.57 0 11.9-5.33 11.9-11.9s-5.33-11.9-11.9-11.9z"/></svg>