<svg width="64" height="35" viewBox="0 0 64 35" fill="none" xmlns="http://www.w3.org/2000/svg"><path d="M3.416 29.872C1.432 26.832.44 22.608.44 17.2s.976-9.616 2.928-12.624c1.984-3.04 4.88-4.56 8.688-4.56 3.776 0 6.656 1.52 8.64 4.56 1.984 3.04 2.976 7.248 2.976 12.624 0 5.44-.976 9.664-2.928 12.672-1.952 3.008-4.816 4.512-8.592 4.512-3.808 0-6.72-1.504-8.736-4.512zM8.12 17.2c0 6.976 1.344 10.464 4.032 10.464 1.376 0 2.352-.784 2.928-2.352.608-1.568.912-4.272.912-8.112s-.304-6.544-.912-8.112c-.576-1.568-1.584-2.352-3.024-2.352-1.376 0-2.384.816-3.024 2.448-.608 1.6-.912 4.272-.912 8.016zm31.255 3.024h-4.32v-5.76h4.32V.4c1.472 0 3.088-.016 4.848-.048 1.792-.032 3.6-.048 5.424-.048 9.056 0 13.584 3.392 13.584 10.176 0 3.008-1.12 5.392-3.36 7.152-2.208 1.728-5.232 2.592-9.072 2.592h-3.744v2.88h7.392v5.76h-7.392V34h-7.68v-5.136h-4.32v-5.76h4.32v-2.88zm11.04-12.72c-.032 0-.176.016-.432.048-.256 0-.656.016-1.2.048h-1.728v6.864h3.504c3.008 0 4.512-1.104 4.512-3.312 0-1.312-.384-2.24-1.152-2.784-.768-.576-1.936-.864-3.504-.864z" fill="url(#a)"/><defs><linearGradient id="a" x1="31.5" y1="-15" x2="31.5" y2="56" gradientUnits="userSpaceOnUse"><stop stop-color="#6E45E2"/><stop offset="1" stop-color="#88D3CE"/></linearGradient></defs></svg>