<svg width="90" height="36" viewBox="0 0 90 36" fill="none" xmlns="http://www.w3.org/2000/svg"><path d="M11.568 35.576c-2.56 0-4.8-.496-6.72-1.488-1.92-1.024-3.376-2.384-4.368-4.08l3.984-5.328c2.176 2.464 4.384 3.696 6.624 3.696 1.344 0 2.384-.304 3.12-.912.736-.608 1.104-1.392 1.104-2.352 0-2.464-1.904-3.696-5.712-3.696H7.488v-7.2h1.92c1.376 0 2.48-.288 3.312-.864.864-.608 1.296-1.44 1.296-2.496 0-.832-.256-1.504-.768-2.016-.512-.544-1.28-.816-2.304-.816-2.24 0-4.176 1.008-5.808 3.024L1.2 5.864C3.248 2.504 6.72.824 11.616.824c2.976 0 5.392.784 7.248 2.352 1.888 1.536 2.832 3.616 2.832 6.24 0 3.744-1.664 6.368-4.992 7.872v.144c1.984.384 3.52 1.296 4.608 2.736 1.12 1.408 1.68 3.152 1.68 5.232 0 3.072-1.088 5.552-3.264 7.44-2.144 1.824-4.864 2.736-8.16 2.736zm18.254-4.704c-1.984-3.04-2.976-7.264-2.976-12.672s.976-9.616 2.928-12.624c1.984-3.04 4.88-4.56 8.688-4.56 3.776 0 6.656 1.52 8.64 4.56 1.984 3.04 2.976 7.248 2.976 12.624 0 5.44-.976 9.664-2.928 12.672-1.952 3.008-4.816 4.512-8.592 4.512-3.808 0-6.72-1.504-8.736-4.512zM34.526 18.2c0 6.976 1.344 10.464 4.032 10.464 1.376 0 2.352-.784 2.928-2.352.608-1.568.912-4.272.912-8.112s-.304-6.544-.912-8.112c-.576-1.568-1.584-2.352-3.024-2.352-1.376 0-2.384.816-3.024 2.448-.608 1.6-.912 4.272-.912 8.016zM70.965 35h-7.2V13.4h6.48l6.48 7.344 6-7.344h6.288V35h-7.2V24.392l-5.232 6h-.144l-5.472-6V35z" fill="url(#a)"/><defs><linearGradient id="a" x1="46" y1="-14" x2="46" y2="57" gradientUnits="userSpaceOnUse"><stop stop-color="#6E45E2"/><stop offset="1" stop-color="#88D3CE"/></linearGradient></defs></svg>