<svg width="76" height="35" viewBox="0 0 76 35" fill="none" xmlns="http://www.w3.org/2000/svg"><path d="M22.944 34h-7.2v-7.2H.48v-5.376L12.48.4h8.256L9.744 19.6h6v-7.2h7.2v7.2h3.936v7.2h-3.936V34zm9.316-4.128c-1.984-3.04-2.976-7.264-2.976-12.672s.976-9.616 2.928-12.624c1.984-3.04 4.88-4.56 8.688-4.56 3.776 0 6.656 1.52 8.64 4.56 1.984 3.04 2.976 7.248 2.976 12.624 0 5.44-.976 9.664-2.928 12.672-1.952 3.008-4.816 4.512-8.592 4.512-3.808 0-6.72-1.504-8.736-4.512zM36.964 17.2c0 6.976 1.344 10.464 4.032 10.464 1.376 0 2.352-.784 2.928-2.352.608-1.568.912-4.272.912-8.112s-.304-6.544-.912-8.112C43.348 7.52 42.34 6.736 40.9 6.736c-1.376 0-2.384.816-3.024 2.448-.608 1.6-.912 4.272-.912 8.016zm19.125 7.464c-.944-.848-1.416-1.944-1.416-3.288 0-1.36.472-2.44 1.416-3.24.944-.816 2.16-1.224 3.648-1.224s2.704.408 3.648 1.224c.944.8 1.416 1.88 1.416 3.24 0 1.344-.472 2.44-1.416 3.288-.944.816-2.16 1.224-3.648 1.224s-2.704-.408-3.648-1.224zm1.944-3.288c0 .512.16.912.48 1.2.32.288.728.432 1.224.432.528 0 .944-.144 1.248-.432.304-.288.456-.688.456-1.2 0-.48-.16-.864-.48-1.152-.304-.288-.712-.432-1.224-.432s-.928.144-1.248.432c-.304.288-.456.672-.456 1.152zm9.168 11.688c-.944-.848-1.416-1.944-1.416-3.288 0-1.36.472-2.44 1.416-3.24.928-.816 2.144-1.224 3.648-1.224s2.72.408 3.648 1.224c.944.8 1.416 1.88 1.416 3.24 0 1.344-.472 2.44-1.416 3.288-.928.816-2.144 1.224-3.648 1.224s-2.72-.408-3.648-1.224zm1.944-3.288c0 .512.16.912.48 1.2.32.288.728.432 1.224.432.528 0 .944-.144 1.248-.432.304-.288.456-.688.456-1.2 0-.48-.16-.864-.48-1.152-.304-.288-.712-.432-1.224-.432s-.928.144-1.248.432c-.304.288-.456.672-.456 1.152zm-8.808 4.512l-2.064-1.416 11.928-15.96 2.016 1.512-11.88 15.864z" fill="url(#a)"/><defs><linearGradient id="a" x1="38.5" y1="-15" x2="38.5" y2="56" gradientUnits="userSpaceOnUse"><stop stop-color="#6E45E2"/><stop offset="1" stop-color="#88D3CE"/></linearGradient></defs></svg>