<svg width="113" height="38" viewBox="0 0 113 38" fill="none" xmlns="http://www.w3.org/2000/svg"><path d="M.92 23.096c0-2.88.512-5.632 1.536-8.256 1.024-2.656 2.384-4.928 4.08-6.816 3.52-3.776 7.216-6.176 11.088-7.2l2.928 5.424c-2.56.864-4.816 2.144-6.768 3.84-1.92 1.664-3.36 3.6-4.32 5.808 1.312-1.216 3.28-1.824 5.904-1.824 2.496 0 4.656.96 6.48 2.88 1.856 1.888 2.784 4.336 2.784 7.344 0 3.52-1.136 6.288-3.408 8.304-2.272 1.984-4.912 2.976-7.92 2.976-3.68 0-6.672-1.2-8.976-3.6C2.056 29.544.92 26.584.92 23.096zm7.68.048c0 1.632.416 2.912 1.248 3.84.832.928 2 1.392 3.504 1.392 1.12 0 2-.336 2.64-1.008.64-.672.96-1.52.96-2.544 0-1.216-.368-2.192-1.104-2.928-.704-.736-1.696-1.104-2.976-1.104-1.76 0-3.184.784-4.272 2.352zm21.91 7.728c-1.984-3.04-2.976-7.264-2.976-12.672s.976-9.616 2.928-12.624c1.984-3.04 4.88-4.56 8.688-4.56 3.776 0 6.656 1.52 8.64 4.56 1.984 3.04 2.976 7.248 2.976 12.624 0 5.44-.976 9.664-2.928 12.672-1.952 3.008-4.816 4.512-8.592 4.512-3.808 0-6.72-1.504-8.736-4.512zM35.214 18.2c0 6.976 1.344 10.464 4.032 10.464 1.376 0 2.352-.784 2.928-2.352.608-1.568.912-4.272.912-8.112s-.304-6.544-.912-8.112c-.576-1.568-1.584-2.352-3.024-2.352-1.376 0-2.384.816-3.024 2.448-.608 1.6-.912 4.272-.912 8.016zM64.62 37.52h-2.568v-5.088h1.367c.849-1.136 1.352-3.016 1.513-5.64L65.1 24.2h7.969v8.232h1.8v5.088h-2.593V35h-7.655v2.52zm3.047-10.728l-.072 1.104c-.192 2.08-.624 3.592-1.296 4.536h4.008v-5.64h-2.64zM86.932 35h-2.76v-4.128h-4.728V35h-2.76V24.2h2.76v4.08h4.728V24.2h2.76V35zm11.537-3.024l.792 1.944c-1.072.896-2.448 1.344-4.128 1.344-1.728 0-3.136-.52-4.224-1.56-1.056-1.024-1.584-2.392-1.584-4.104 0-1.6.52-2.944 1.56-4.032s2.424-1.632 4.152-1.632c1.424 0 2.632.472 3.624 1.416s1.488 2.144 1.488 3.6c0 .64-.056 1.136-.168 1.488h-7.8c.112.784.456 1.4 1.032 1.848.592.448 1.328.672 2.208.672 1.2 0 2.216-.328 3.048-.984zm-3.552-5.736c-1.568 0-2.512.784-2.832 2.352h5.304c.016-.688-.208-1.248-.672-1.68-.448-.448-1.048-.672-1.8-.672zm15.255 1.92l-5.04 6.84h-2.76V24.2h2.76v6.84l5.04-6.84h2.76V35h-2.76v-6.84zm-6.192-9.36h2.52c0 .528.104.952.312 1.272.208.32.52.48.936.48.368 0 .648-.16.84-.48.208-.336.312-.76.312-1.272h2.52c0 1.12-.328 2.024-.984 2.712-.656.672-1.552 1.008-2.688 1.008-1.248 0-2.192-.328-2.832-.984-.624-.672-.936-1.584-.936-2.736z" fill="url(#a)"/><defs><linearGradient id="a" x1="57" y1="-14" x2="57" y2="57" gradientUnits="userSpaceOnUse"><stop stop-color="#6E45E2"/><stop offset="1" stop-color="#88D3CE"/></linearGradient></defs></svg>