<svg width="50" height="50" viewBox="0 0 50 50" fill="none" xmlns="http://www.w3.org/2000/svg"><path d="M25 50c13.807 0 25-11.193 25-25S38.807 0 25 0 0 11.193 0 25s11.193 25 25 25z" fill="#FF9E24"/><path d="M25 45.26c11.19 0 20.26-9.07 20.26-20.26 0-11.19-9.07-20.26-20.26-20.26C13.81 4.74 4.74 13.81 4.74 25c0 11.19 9.07 20.26 20.26 20.26z" fill="#fff"/><path d="M33.462 19.22a1.896 1.896 0 1 0-2.681-2.682l-7.188 7.188 2.68 2.681 7.189-7.188z" fill="#181818"/><path d="M23.85 24.474L13.188 35.138a1.185 1.185 0 0 0 1.676 1.675L25.526 26.15l-1.675-1.676z" fill="#EE3840"/><path d="M16.706 14.025a1.895 1.895 0 1 0-2.681 2.68l9.701 9.702 2.681-2.681-9.701-9.701z" fill="#181818"/><path d="M25 27.962A2.966 2.966 0 0 1 22.038 25 2.966 2.966 0 0 1 25 22.038 2.965 2.965 0 0 1 27.962 25 2.965 2.965 0 0 1 25 27.962z" fill="#524E4D"/><path d="M11.256 26.185H9.48a1.185 1.185 0 0 1 0-2.37h1.777a1.185 1.185 0 0 1 0 2.37zM25 12.44c-.654 0-1.185-.53-1.185-1.184V9.479a1.185 1.185 0 0 1 2.37 0v1.777c0 .654-.53 1.185-1.185 1.185zm15.521 13.745h-1.777a1.185 1.185 0 0 1 0-2.37h1.777a1.185 1.185 0 0 1 0 2.37zM25 41.706c-.654 0-1.185-.53-1.185-1.184v-1.778a1.185 1.185 0 0 1 2.37 0v1.778c0 .654-.53 1.184-1.185 1.184z" fill="#7A7674"/></svg>