<svg width="50" height="50" viewBox="0 0 50 50" fill="none" xmlns="http://www.w3.org/2000/svg"><path d="M44.085 40.597a5.773 5.773 0 0 1-4.051-1.695 6.36 6.36 0 0 1-1.895-4.504v-5.766a2.549 2.549 0 0 0-2.54-2.561h-6.782a.845.845 0 0 1-.844-.851c0-.473.376-.852.844-.852h6.782c2.34 0 4.235 1.912 4.235 4.272v5.766a4.657 4.657 0 0 0 1.381 3.281 4.076 4.076 0 0 0 2.97 1.215c2.293-.062 4.127-1.958 4.127-4.272V9.316l-7.803-7.87a.86.86 0 0 1 .023-1.208.843.843 0 0 1 1.174 0l8.048 8.118c.162.163.246.38.246.604v25.647c0 3.243-2.563 5.897-5.777 5.982h-.138v.008z" fill="#898890"/><path d="M4.243 44.869H0V50h49.156v-5.131H4.243zm39.834-29.068h5.079V8.968l-5.079-5.131V15.8z" fill="#57565C"/><path d="M16.104 14.09H3.39V3.838h12.713V.417H0v17.095h16.104V14.09z" fill="#FFCD00"/><path d="M16.104.416v3.42h12.713v10.255H16.104v3.42h16.104V.417H16.104zm0 22.226h8.148l-1.059 17.096h-7.09v5.13h11.87l1.696-27.357H16.104v5.131z" fill="#FFD733"/><path d="M9.015 39.738L7.956 22.642h8.148v-5.13H2.547l1.696 27.357h11.86v-5.131H9.016z" fill="#FFCD00"/><path d="M9.015 39.738h7.089V22.643H7.956l1.059 17.095z" fill="#57565C"/><path d="M23.193 39.738l1.059-17.095h-8.148v17.095h7.09z" fill="#79787D"/><path d="M28.817 14.09V3.838H16.104V14.1h12.713v-.008z" fill="#CEE5F8"/><path d="M3.391 14.09h12.713V3.838H3.39V14.09z" fill="#C2DFF6"/><path d="M13.565 12.38a.845.845 0 0 1-.844-.85V6.397a.845.845 0 0 1 1.688 0v5.131a.845.845 0 0 1-.845.851zm5.078 0a.845.845 0 0 1-.843-.85V6.397a.843.843 0 1 1 1.688 0v5.131a.836.836 0 0 1-.845.851zm5.087 0a.845.845 0 0 1-.844-.85V6.397a.845.845 0 0 1 1.688 0v5.131a.84.84 0 0 1-.844.851zm-15.252 0a.845.845 0 0 1-.844-.85V6.397a.845.845 0 0 1 1.688 0v5.131a.845.845 0 0 1-.844.851z" fill="#C6C5CA"/><path d="M49.156 16.66h-5.087a.845.845 0 0 1-.844-.851V3.837a.845.845 0 0 1 1.443-.604l5.086 5.123c.162.163.246.38.246.604v6.84a.847.847 0 0 1-.844.86zm-4.235-1.71h3.391V9.316l-3.391-3.42v9.054z" fill="#898890"/></svg>