<svg width="55" height="55" viewBox="0 0 55 55" fill="none" xmlns="http://www.w3.org/2000/svg"><path d="M12.146 17.875H0V55h12.146V17.875zm42.854 0H42.854V55H55V17.875z" fill="#E8EAEA"/><path d="M0 18.563h55a2.543 2.543 0 0 0-2.52-2.521H2.52A2.543 2.543 0 0 0 0 18.562z" fill="#FF7058"/><path d="M42.854 11.688H12.146V55h30.708V11.687z" fill="#F2F2F2"/><path d="M44.573 9.167H10.427c-.687 0-1.26.573-1.26 1.26 0 .688.573 1.26 1.26 1.26h34.146a1.27 1.27 0 0 0 1.26-1.26c0-.687-.573-1.26-1.26-1.26z" fill="#FF7058"/><path d="M8.708 21.313h-5.27v5.843h5.27v-5.843zm0 8.135h-5.27v5.844h5.27v-5.844zm0 8.135h-5.27v5.844h5.27v-5.844zm0 8.136h-5.27v5.843h5.27V45.72zm42.855-24.406h-5.271v5.843h5.27v-5.843zm0 8.135h-5.271v5.844h5.27v-5.844zm0 8.135h-5.271v5.844h5.27v-5.844zm0 8.136h-5.271v5.843h5.27V45.72z" fill="#54C0EB"/><path d="M21.313 31.51h-5.73v5.844h5.73V31.51z" fill="#84DBFF"/><path d="M33.573 40.677h-12.26V55h12.26V40.677z" fill="#40596B"/><path d="M55 52.594H0V55h55v-2.406z" fill="#ACB3BA"/><path d="M21.313 15.24h-5.73v5.843h5.73V15.24zm0 8.135h-5.73v5.844h5.73v-5.844zm9.051-8.135h-5.729v5.843h5.73V15.24zm0 8.135h-5.729v5.844h5.73v-5.844zm0 8.135h-5.729v5.844h5.73V31.51zm9.053-16.27h-5.73v5.843h5.73V15.24zm0 8.135h-5.73v5.844h5.73v-5.844zm0 8.135h-5.73v5.844h5.73V31.51z" fill="#84DBFF"/><path d="M15.813.115h1.49v6.76h-1.49V4.24h-2.75v2.635h-1.49V.115h1.49v2.864h2.75V.115zm8.822 5.843c-.687.688-1.49 1.032-2.52 1.032-1.032 0-1.834-.344-2.521-1.032-.688-.687-1.032-1.49-1.032-2.52 0-1.032.344-1.834 1.032-2.521A3.772 3.772 0 0 1 22.114 0c1.032 0 1.834.344 2.521 1.031.688.688 1.032 1.49 1.032 2.521 0 .917-.344 1.833-1.032 2.406zm-.458-2.406c0-.573-.229-1.146-.573-1.604-.343-.458-.916-.688-1.49-.688-.572 0-1.03.23-1.489.688-.344.458-.573.917-.573 1.604 0 .688.23 1.146.573 1.49.458.458.917.687 1.49.687s1.03-.229 1.49-.687c.458-.459.572-.917.572-1.49zm5.5-2.062v5.5h-1.49v-5.5H26.24V.115h5.385v1.26h-1.948v.115zM37.583.115V1.49h-3.437v1.375h3.094v1.26h-3.094V5.5h3.437v1.375h-5.041V.115h5.041zm1.49 6.875V.115h1.49V5.5h2.864v1.375h-4.354v.115z" fill="#40596B"/></svg>