<svg width="92" height="25" viewBox="0 0 92 25" fill="none" xmlns="http://www.w3.org/2000/svg"><path d="M81.126 9.513c-.834.06-1.37.08-1.37.08h.02c.02 0 .04 0 .08.021.02 0 .04.02.059.02.08.02.159.04.278.08.02 0 .04.021.06.021.039.02.079.02.138.04.278.101.635.243 1.032.445.06.04.14.08.218.1.08.041.14.082.219.122.139.08.297.182.436.262 1.23.828 2.441 2.201 2.322 4.342-.198 4.038-14.507 5.23-16.253 5.35-.12 0-.179.02-.179.02s.1.061.278.162c.536.344 1.647 1.151 1.687 2 .099 2.362-24.57 3.574-25.562 0a.52.52 0 0 1 0-.303l.06-.121c.02-.02.04-.061.06-.081.019-.02.039-.06.059-.081.02-.04.06-.06.099-.08a.26.26 0 0 1 .08-.061l.178-.122.119-.06.119-.06c.04-.02.08-.041.12-.041.019-.02.039-.02.059-.02.06-.02.119-.04.158-.06h.02c.02 0 .04-.021.06-.021.02 0 .04 0 .04-.02.02 0 .04 0 .04-.02.039-.02.079-.02.098-.02h.02s-1.21-.02-2.917-.142c-3.533-.283-9.13-1.09-10.062-3.372a1.817 1.817 0 0 1-.139-.566 3.089 3.089 0 0 1 0-.605V16.6c0-.061 0-.142.02-.202.02-.101.02-.202.04-.303 0-.04.02-.101.04-.142 0-.02 0-.06.02-.08.019-.04.019-.101.039-.142.02-.08.04-.141.08-.222.019-.06.039-.141.079-.202.02-.06.04-.1.079-.161.02-.04.02-.06.04-.081.04-.06.079-.141.119-.202l.119-.182c.08-.1.139-.202.238-.303l.02-.02c.02-.04.06-.06.099-.1a2.91 2.91 0 0 1 .556-.465c.06-.04.099-.081.158-.101l.12-.06c.079-.041.139-.081.218-.122.1-.04.198-.1.298-.121.099-.04.198-.08.297-.101.04-.02.08-.02.1-.04a.607.607 0 0 1 .158-.04.973.973 0 0 1 .219-.041c.04 0 .06-.02.099-.02.04 0 .08-.02.099-.02h.08s-1.588-.101-4.01-.283c-2.202-.182-5.08-.445-8.077-.788-7.323-.868-15.281-2.281-15.4-4.361-.04-.566.516-1.192 1.845-1.858 0 0-1.389-.06-3.175-.303C4.699 5.172.947 4.425.015 2.89c-.04-.08 0-.162.119-.242C2.833.77 45.661-1.25 71.937.992c8.613.727 15.44 1.918 18.477 3.695.754.444 1.27.929 1.528 1.454.833 2.261-7.482 3.13-10.816 3.372z" fill="#361203"/><path d="M79.756 9.613c.04 0 .06.02.1.02.02 0 .04.02.059.02.08.02.159.041.278.082.02 0 .04.02.06.02.04.02.079.02.138.04.278.101.635.242 1.032.444.06.04.14.081.219.101.079.04.139.081.218.121.139.081.298.182.436.263.516.747.834 1.676.774 2.847-.04.788-.595 1.454-1.488 2.04-2.54 1.635-7.76 2.524-11.292 2.968-2.124.262-3.632.363-3.632.363s1.21.667 1.727 1.474c.04.06.079.122.099.182.08.162.139.323.139.505.079 2.04-18.418 3.23-24.014 1.191l.06-.12c.02-.021.04-.061.059-.082.02-.02.04-.06.06-.08.02-.04.06-.061.099-.081.02-.02.04-.04.08-.06l.178-.122.119-.06.119-.061c.04-.02.08-.04.119-.04.02-.02.04-.02.06-.02.06-.02.119-.041.158-.061h.02c.02 0 .04-.02.06-.02.02 0 .04 0 .04-.02.02 0 .04 0 .04-.02.039-.021.078-.021.098-.021h.02c.159-1.494-1.548-1.494-1.548-1.494s-7.879-.101-11.431-2.04a1.814 1.814 0 0 1-.139-.565 3.073 3.073 0 0 1 0-.606V16.6c0-.06 0-.141.02-.202 0-.08.02-.162.04-.242v-.081c0-.04.02-.101.04-.141 0-.02 0-.061.019-.081.02-.04.02-.101.04-.142.02-.08.04-.14.08-.222.019-.06.039-.141.078-.202.02-.06.04-.1.08-.161.02-.04.02-.06.04-.08.04-.061.079-.142.119-.203l.119-.181c.08-.102.139-.203.238-.303l.02-.02c.02-.041.06-.061.099-.102l.06-.06.258-.222.059-.04c.06-.041.12-.102.198-.142.06-.04.1-.08.16-.101l.118-.06c.08-.04.14-.081.219-.122.099-.04.198-.1.297-.12.1-.041.199-.082.298-.102.04-.02.08-.02.1-.04.059-.02.118-.04.158-.04.08-.02.159-.041.218-.041.04 0 .06-.02.1-.02.04 0 .079-.02.099-.02h.08c.575-.626.217-.99-.299-1.212-.535-.222-1.25-.283-1.25-.283S14.622 10.36 8.807 7.574c-.04-.565.516-1.191 1.845-1.858v-.02c.1-.424 0-.707-.218-.929-.456-.464-1.33-.545-1.33-.545s-2.6-.121-5.259-.626c-1.21-.222-2.44-.545-3.433-.949a3.29 3.29 0 0 1-.278-.121C2.834.769 45.661-1.25 71.937.99c8.613.727 15.44 1.918 18.477 3.695.873 2.807-12.206 3.433-12.206 3.433-2.421.162 1.548 1.494 1.548 1.494z" fill="#491904"/><path d="M71.937.991c-.655.747-1.469 1.474-2.421 2.18-.08.061-.16.122-.239.162-.277.202-.575.404-.873.586a20.36 20.36 0 0 1-1.468.868c-.358.182-.715.384-1.072.566-.1.06-.218.1-.338.161a.59.59 0 0 0-.158.08c-.556.263-1.151.526-1.766.788a51.28 51.28 0 0 1-2.72 1.05c-.099.04-.198.061-.297.101a58.508 58.508 0 0 1-3.434 1.05c-.099.02-.218.061-.317.081-5.914 1.616-13.019 2.746-20.819 3.17a122.44 122.44 0 0 1-7.283.202c-1.528 0-3.036-.02-4.505-.08-7.323-.869-15.281-2.282-15.4-4.362-.04-.565.515-1.191 1.845-1.858 0 0-1.39-.06-3.175-.303C4.718 5.07.967 4.323.035 2.788c-.04-.08 0-.161.119-.242C2.833.769 45.66-1.25 71.937.99z" fill="#361203"/><path d="M26.589 4.646c-2.72.1-5.418.182-8.058.323-2.64.141-5.259.343-7.66.686-.06 0-.14.02-.199.02.1-.423 0-.706-.218-.928 1.19-.162 2.421-.263 3.651-.364 1.37-.06 2.74-.12 4.128-.12 2.779 0 5.577.12 8.356.383zm7.641 9.207c2.4.061 4.762.101 7.124.101 3.493 0 6.946-.08 10.26-.323 1.667-.12 3.295-.282 4.803-.545 1.508-.242 2.937-.606 3.711-1.13.397-.263.516-.586.417-.93-.119-.343-.496-.686-1.012-1.01-1.032-.666-2.5-1.21-3.99-1.736 1.688.364 3.335.828 4.704 1.495.675.343 1.27.726 1.548 1.211.298.464.16.99-.317 1.373-.457.404-1.131.707-1.866.95-.734.242-1.528.423-2.342.585-1.647.303-3.373.505-5.12.646-3.513.242-7.105.262-10.697.141-2.52-.1-5.06-.262-7.561-.525l.337-.303zm-7.9-11.691c-4.088.162-8.116.283-12.066.505-3.572.202-7.125.464-10.439.929-1.21-.222-2.44-.545-3.433-.95.397-.08.814-.14 1.21-.201 1.965-.303 3.99-.465 6.034-.626 2.083-.101 4.128-.202 6.211-.202 4.148-.02 8.336.141 12.484.545z" fill="#361203"/><path d="M78.565 13.854c-.675.605-1.687 1.07-2.778 1.433-1.092.364-2.283.646-3.513.909-2.46.484-5.06.767-7.66.97-5.26.383-10.618.423-15.996.221-5.26-.202-10.519-.605-15.679-1.292v-.04c5.22.14 10.38.282 15.5.282 5.22-.02 10.4-.12 15.38-.505 2.481-.181 4.922-.444 7.185-.848 2.242-.383 4.386-.928 5.557-1.736.595-.404.774-.889.635-1.414-.159-.525-.754-1.05-1.528-1.554-1.548-1.01-3.751-1.838-5.974-2.646 2.52.545 4.962 1.252 7.025 2.262.993.505 1.886 1.11 2.323 1.837.436.747.218 1.515-.477 2.12zm-53.882 2.019c0 .747-1.905 1.353-4.266 1.353-2.362 0-4.267-.606-4.267-1.353 0-.162.079-.303.238-.444.595-.525 2.163-.909 4.029-.909 1.865 0 3.453.384 4.028.909.14.141.238.282.238.444zm-5.437 5.795c0 1.03-2.58 1.878-5.756 1.878-3.175 0-5.755-.848-5.755-1.878 0-.161.06-.302.159-.444.635-.828 2.897-1.433 5.616-1.433 2.7 0 4.962.605 5.577 1.433a.81.81 0 0 1 .159.444zm14.646 1.939c0 .767-2.004 1.393-4.465 1.393s-4.446-.626-4.446-1.393c0-.162.08-.303.238-.445.596-.545 2.263-.949 4.228-.949 1.964 0 3.631.404 4.227.95.139.14.218.282.218.444z" fill="#361203"/><path d="M24.445 15.429c-.595.525-2.163.908-4.028.908-1.866 0-3.434-.383-4.03-.908.596-.525 2.164-.909 4.03-.909 1.845 0 3.433.364 4.028.909zm-5.358 5.795c-.615.808-2.878 1.414-5.577 1.414s-4.961-.606-5.596-1.414c.615-.828 2.877-1.433 5.596-1.433 2.7 0 4.962.605 5.577 1.433zm14.567 1.939c-.596.545-2.263.949-4.227.949-1.965 0-3.632-.404-4.227-.95.595-.544 2.262-.948 4.227-.948 1.984-.02 3.632.383 4.227.949z" fill="#491904"/><path d="M14.88 4.949c-.219.12-.437.242-.616.383a2.477 2.477 0 0 0-.516.505c-.139.202-.198.424-.139.626l.02.08c0 .021.02.021.04.041s.08.06.1.101c.098.06.197.121.297.162.416.202.893.363 1.35.505.476.141.932.282 1.408.383A69.59 69.59 0 0 0 22.6 8.886c1.945.323 3.89.545 5.835.747 1.965.182 3.91.323 5.894.404-.992.081-1.964.121-2.957.142-.992 0-1.984 0-2.957-.061a57.156 57.156 0 0 1-5.894-.606c-1.945-.323-3.89-.727-5.795-1.292-.953-.303-1.905-.606-2.778-1.11a1.774 1.774 0 0 1-.318-.223l-.159-.161-.06-.121-.019-.101c-.04-.283.08-.566.238-.768.318-.404.794-.626 1.25-.787zm53.485 13.589l3.512-.525c1.171-.182 2.322-.364 3.473-.606a26.257 26.257 0 0 0 1.727-.363c.575-.121 1.131-.283 1.707-.445 1.111-.343 2.222-.726 3.215-1.413-.397.444-.913.808-1.43 1.11a11.85 11.85 0 0 1-1.627.768c-1.13.444-2.282.727-3.453.97-1.17.221-2.362.383-3.552.464-1.191.08-2.382.12-3.572.04zm10.399-9.934a47.416 47.416 0 0 1 2.897-.384l2.898-.323c.476-.04.952-.1 1.448-.162l1.43-.181c.476-.081.952-.142 1.409-.263.476-.1.932-.242 1.349-.484-.337.363-.814.585-1.27.787a11.36 11.36 0 0 1-1.41.444c-.952.243-1.924.384-2.897.505-.972.101-1.945.162-2.917.182-.992 0-1.965-.02-2.937-.121zM17.102 15.53a.83.83 0 0 0-.198.262.382.382 0 0 0-.04.162v.04l.04.04c.179.102.397.162.615.223a9.97 9.97 0 0 0 1.35.262c.913.142 1.826.202 2.739.283a8.673 8.673 0 0 1-2.799.02c-.456-.08-.933-.161-1.37-.343a2.172 2.172 0 0 1-.634-.343c-.02-.02-.04-.04-.06-.101-.02-.02-.02-.061-.02-.081l.02-.04c.02-.061.04-.122.08-.182a.996.996 0 0 1 .277-.202zM8.43 21.79c.178.161.377.262.595.343.218.1.437.161.655.222.437.121.893.222 1.35.283.912.161 1.845.242 2.778.383-.476.04-.933.081-1.41.06-.475 0-.932-.06-1.408-.12a8.061 8.061 0 0 1-1.37-.364c-.456-.181-.912-.404-1.19-.807zm17.286 1.816c.516.223 1.012.384 1.528.546.258.08.516.141.774.202.258.06.536.12.794.201-.556.102-1.112.04-1.668-.1a3.3 3.3 0 0 1-.773-.324c-.239-.14-.477-.302-.655-.525zm21.434-.464c.555.141 1.11.242 1.666.323.556.101 1.112.162 1.667.242 1.112.122 2.243.223 3.374.283l.854.04.853.02c.556.02 1.131.02 1.687.041 1.131.02 2.262 0 3.394 0-.556.06-1.132.101-1.688.162-.555.02-1.13.06-1.686.08a38.42 38.42 0 0 1-3.394-.04 31.32 31.32 0 0 1-3.374-.343c-1.17-.182-2.282-.404-3.354-.808zM28.573 2.304c-.258.04-.516.121-.774.182-.258.08-.516.181-.754.302a3.092 3.092 0 0 0-.695.485c-.06.04-.099.101-.139.162-.04.06-.079.12-.118.201a.972.972 0 0 0-.12.485c0 .162.06.323.14.465.079.14.178.242.297.323.218.181.456.303.715.383-.219-.161-.437-.323-.596-.525-.159-.202-.278-.424-.258-.646.02-.222.159-.424.337-.565.18-.162.397-.303.616-.404.456-.242.933-.404 1.429-.545.496-.142 1.012-.263 1.508-.404a7 7 0 0 0-1.588.1zm8.316 1.616a1.032 1.032 0 0 0-.318-.485c-.258-.243-.575-.404-.913-.525.278.181.576.383.774.646a.83.83 0 0 1 .199.424c.02.141 0 .283-.06.424-.139.262-.397.464-.694.626a4.97 4.97 0 0 1-.894.384c-.615.222-1.27.343-1.944.464-.655.1-1.33.182-2.005.242.675.101 1.35.121 2.025.06.674-.06 1.349-.18 2.024-.383.317-.121.655-.242.952-.444.16-.101.298-.202.437-.343a1.24 1.24 0 0 0 .337-.485c.12-.161.14-.404.08-.606z" fill="#935B47"/><path d="M25.973 2.364c-.396.06-.774.141-1.17.222a8.3 8.3 0 0 0-1.132.384c-.357.161-.734.343-1.032.606a1.15 1.15 0 0 0-.218.222.95.95 0 0 0-.179.242 1.018 1.018 0 0 0-.178.586c0 .202.08.404.198.585.12.162.278.303.437.404.337.222.694.364 1.071.485-.317-.202-.635-.404-.893-.646-.258-.243-.416-.525-.396-.808.04-.263.238-.525.515-.707.259-.202.596-.363.933-.505.675-.282 1.41-.504 2.144-.686.734-.182 1.508-.323 2.262-.485a10.34 10.34 0 0 0-2.362.101zm12.444 2.019a1.523 1.523 0 0 0-.457-.605c-.397-.324-.873-.505-1.35-.647.437.243.854.485 1.152.808.159.162.278.343.317.525.04.182 0 .364-.099.525-.218.323-.615.586-1.032.767a7.143 7.143 0 0 1-1.35.485c-.932.262-1.905.444-2.897.586-.992.14-1.985.222-2.997.302 1.012.122 2.025.142 3.037.081a15.403 15.403 0 0 0 3.016-.484 8.721 8.721 0 0 0 1.43-.546c.218-.12.456-.262.654-.424.199-.161.397-.363.516-.585.12-.263.14-.545.06-.788zm6.311 2.625c-.397.04-.794.121-1.171.202-.377.101-.774.202-1.131.343a4.68 4.68 0 0 0-1.052.525c-.08.06-.159.122-.218.182-.08.06-.14.141-.199.222a.839.839 0 0 0-.178.525c0 .182.079.364.198.505.12.141.278.263.437.363.337.202.694.324 1.071.425-.317-.182-.635-.364-.893-.566-.258-.202-.416-.464-.397-.707.04-.242.239-.464.516-.626.278-.181.596-.323.933-.444.675-.262 1.429-.444 2.163-.606.755-.161 1.509-.282 2.283-.424a11.56 11.56 0 0 0-2.362.081zm6.827 4.261c1.032-.06 2.044-.182 3.036-.424a8.727 8.727 0 0 0 1.45-.485c.237-.1.456-.222.654-.363.199-.142.397-.323.516-.525a.762.762 0 0 0 .06-.687 1.301 1.301 0 0 0-.457-.525c-.397-.282-.873-.444-1.37-.565.437.202.854.424 1.172.707.159.14.278.302.317.464a.56.56 0 0 1-.099.464c-.218.283-.615.505-1.032.687a7.517 7.517 0 0 1-1.35.424c-.952.242-1.924.384-2.917.505-.992.121-2.004.202-3.016.262.972.101 2.004.121 3.036.06z" fill="#935B47"/><path d="M38.913 7.957c.397-.282.893-.504 1.409-.686 1.012-.384 2.124-.666 3.235-.909 1.131-.242 2.262-.444 3.433-.666-1.19-.06-2.381 0-3.572.161a27.27 27.27 0 0 0-1.766.303c-.576.142-1.151.303-1.707.505-.556.222-1.092.465-1.568.808-.119.08-.238.182-.337.283a1.409 1.409 0 0 0-.278.323 1.29 1.29 0 0 0-.258.787c0 .283.119.545.298.767.178.223.416.404.654.546.497.303 1.052.504 1.608.646-.476-.263-.972-.545-1.33-.868-.377-.324-.635-.707-.595-1.07.06-.324.357-.647.774-.93zm23.279.626c-.139-.343-.397-.606-.694-.808-.596-.424-1.31-.686-2.044-.868.654.303 1.29.646 1.746 1.09.238.223.397.465.456.707.06.243 0 .485-.158.707-.318.444-.913.767-1.548 1.03-.635.262-1.33.484-2.025.646-1.409.364-2.877.586-4.366.767a81.892 81.892 0 0 1-4.525.404c1.509.162 3.057.182 4.585.101 1.528-.08 3.056-.283 4.545-.666.734-.202 1.468-.424 2.163-.747.337-.162.675-.344.992-.566.298-.222.576-.484.774-.787.199-.283.238-.687.1-1.01zm3.751-3.271c-.258.04-.516.101-.774.162a4.77 4.77 0 0 0-.754.283 3.68 3.68 0 0 0-.694.444.54.54 0 0 0-.14.161l-.118.182a.825.825 0 0 0-.12.444c0 .162.06.303.14.424.079.122.178.223.297.303.218.162.457.283.715.364a2.864 2.864 0 0 1-.596-.485c-.159-.182-.278-.404-.258-.585.02-.202.159-.384.338-.525a3.18 3.18 0 0 1 .615-.384c.456-.222.933-.364 1.429-.505.496-.141 1.012-.242 1.508-.363-.536-.04-1.052 0-1.588.08zm8.316 1.495a1.014 1.014 0 0 0-.318-.444c-.258-.243-.575-.364-.913-.485.278.182.576.363.774.606.1.12.179.242.199.383.02.142 0 .263-.06.384-.139.242-.397.424-.694.565a6.913 6.913 0 0 1-.893.364c-.616.202-1.27.323-1.945.424-.655.1-1.33.161-2.005.222.675.101 1.35.101 2.025.06a8.897 8.897 0 0 0 2.024-.363c.317-.1.655-.242.953-.404.158-.08.297-.181.436-.303a1.25 1.25 0 0 0 .338-.444.638.638 0 0 0 .079-.565zM54.016 18.62c-.258.04-.516.1-.774.16a4.87 4.87 0 0 0-.754.283 3.684 3.684 0 0 0-.695.445c-.06.04-.1.1-.139.161l-.119.182a.825.825 0 0 0-.119.444c0 .162.06.303.139.424.08.121.178.222.298.303.218.162.456.283.714.363a2.86 2.86 0 0 1-.595-.484c-.16-.182-.278-.404-.258-.586.02-.202.159-.383.337-.525.179-.141.397-.282.615-.383.457-.223.933-.364 1.43-.505.495-.142 1.011-.242 1.508-.364-.536-.04-1.072 0-1.588.081zm8.296 1.493a1.014 1.014 0 0 0-.318-.444c-.258-.242-.575-.363-.913-.484.278.181.576.363.774.605.1.122.179.243.199.384a.63.63 0 0 1-.06.384c-.139.242-.397.424-.694.565a6.913 6.913 0 0 1-.894.363c-.615.202-1.27.324-1.944.424-.655.102-1.33.162-2.005.223.675.1 1.35.1 2.024.06a8.892 8.892 0 0 0 2.025-.363 5.62 5.62 0 0 0 .952-.404c.159-.08.298-.182.437-.303s.258-.263.337-.444a.542.542 0 0 0 .08-.566z" fill="#935B47"/><path d="M60.367 19.73c-3.334 2.968-7.105 0-7.105 0v-.101c.04-1.959 1.627-3.514 3.552-3.514 1.965 0 3.553 1.616 3.553 3.615z" fill="#935B47"/><path d="M59.474 19.407c-2.402 2.06-5.022.969-6.133.343.04-1.959 1.627-3.514 3.553-3.514 1.488.323 2.58 1.636 2.58 3.17z" fill="#361203"/><path d="M55.96 18.316c.56 0 1.013-.325 1.013-.727 0-.401-.453-.727-1.012-.727-.56 0-1.012.326-1.012.727 0 .402.453.727 1.012.727zM34.626 4.242c-3.334 2.968-7.104 0-7.104 0V4.14c.04-1.959 1.627-3.514 3.552-3.514 1.965.02 3.552 1.636 3.552 3.615z" fill="#935B47"/><path d="M33.753 3.939c-2.401 2.06-5.021.969-6.132.343.04-1.959 1.627-3.513 3.552-3.513 1.469.323 2.58 1.615 2.58 3.17z" fill="#361203"/><path d="M31.253 2.101c0 .404-.457.727-1.013.727-.555 0-1.012-.323-1.012-.727 0-.403.457-.726 1.012-.726.556 0 1.013.323 1.013.726zm41.021 4.585c-3.334 2.968-7.105 0-7.105 0v-.101c.04-1.959 1.628-3.514 3.553-3.514 1.965 0 3.552 1.616 3.552 3.615z" fill="#935B47"/><path d="M71.401 6.363c-2.401 2.06-5.021.969-6.132.343.04-1.959 1.627-3.514 3.552-3.514 1.469.323 2.58 1.616 2.58 3.17z" fill="#361203"/><path d="M68.9 4.525c0 .404-.456.727-1.012.727-.555 0-1.012-.323-1.012-.727 0-.404.457-.727 1.012-.727.556.02 1.012.344 1.012.727z" fill="#935B47"/></svg>