<svg width="67" height="74" viewBox="0 0 67 74" fill="none" xmlns="http://www.w3.org/2000/svg"><path d="M53.951 15.792C51.643 6.718 43.412 0 33.575 0c-8.381 0-15.608 4.863-19.02 11.982C6.474 12.232 0 18.9 0 27.022c0 8.322 6.775 15.09 15.106 15.09h38.745C61.128 42.112 67 36.246 67 28.977c-.05-7.22-5.822-13.085-13.049-13.185z" fill="#ECECEC"/><path d="M18.97 57.102l3.614-7.47c.602-1.253.1-2.757-1.154-3.359-1.255-.601-2.76-.1-3.363 1.153l-3.613 7.47c-.602 1.254-.1 2.758 1.154 3.36 1.255.6 2.76.1 3.363-1.154zm15.208 0l3.663-7.47c.602-1.253.1-2.757-1.154-3.359-1.255-.601-2.76-.1-3.363 1.153l-3.613 7.47c-.602 1.254-.1 2.758 1.154 3.36 1.205.6 2.71.1 3.313-1.154zm17.665-10.829c-1.254-.601-2.76-.1-3.362 1.153l-3.614 7.47c-.602 1.254-.1 2.758 1.155 3.36 1.254.6 2.76.1 3.362-1.154l3.614-7.47c.652-1.253.1-2.757-1.155-3.359zM8.08 61.764c-1.255-.601-2.76-.1-3.362 1.153l-3.614 7.47c-.602 1.254-.1 2.758 1.154 3.36 1.255.601 2.76.1 3.363-1.154l3.613-7.47c.603-1.253.1-2.757-1.154-3.359zm15.207 0c-1.255-.601-2.76-.1-3.363 1.153l-3.613 7.47c-.602 1.254-.1 2.758 1.154 3.36 1.255.601 2.76.1 3.363-1.154l3.613-7.47c.603-1.253.1-2.757-1.154-3.359zm15.207 0c-1.255-.601-2.76-.1-3.363 1.153l-3.613 7.47c-.603 1.254-.1 2.758 1.154 3.36 1.255.601 2.76.1 3.362-1.154l3.614-7.47c.602-1.253.1-2.757-1.154-3.359z" fill="#29ABE2"/></svg>