<svg width="53" height="68" viewBox="0 0 53 68" fill="none" xmlns="http://www.w3.org/2000/svg"><path fill-rule="evenodd" clip-rule="evenodd" d="M46.5 33.3c-3.1 0-5.7.9-5.7 5.8 0 4.9 2.5 5.8 5.7 5.8 3.1 0 5.7-2.6 5.7-5.8 0-3.2-2.5-5.8-5.7-5.8z" fill="#FAC7A3"/><path fill-rule="evenodd" clip-rule="evenodd" d="M5.7 33.3c3.1 0 5.7.9 5.7 5.8 0 4.9-2.6 5.9-5.7 5.9C2.5 45 0 42.4 0 39.1c0-3.2 2.5-5.8 5.7-5.8z" fill="#EEBD9C"/><path fill-rule="evenodd" clip-rule="evenodd" d="M26.1 67.2c11.9 0 21.6-9.7 21.6-21.6V27.8c0-11.9-9.7-21.6-21.6-21.6-8.2 20.6-6.6 40.9 0 61z" fill="#FAC7A3"/><path fill-rule="evenodd" clip-rule="evenodd" d="M26.1 67.2c-11.9 0-21.6-9.7-21.6-21.6V27.8c0-11.9 9.7-21.6 21.6-21.6v61z" fill="#EEBD9C"/><path fill-rule="evenodd" clip-rule="evenodd" d="M26.1 67.2c11.9 0 21.6-9.7 21.6-21.6v-2.4c-5.6 8.2-15.3 9-21.6 1-2.3 8-2.3 15.7 0 23z" fill="#E0BBA8"/><path fill-rule="evenodd" clip-rule="evenodd" d="M26.1 67.2c-11.9 0-21.6-9.7-21.6-21.6v-2.4c5.6 8.2 15.3 9 21.6 1v23z" fill="#D5B2A1"/><path fill-rule="evenodd" clip-rule="evenodd" d="M32 47.4c-2.1-.9-4.1-2.4-5.9-4.7-1.1 3.9-1.7 7.7-1.7 11.4h.5c1.1.1 2.9-.7 4.1-1.4.4-.3.9-.6 1.3-.8 2.3-1.4 2.4-2.5 1.7-4.5z" fill="#D5B2A1"/><path d="M22 55.6c-.2.1-.4 0-.5-.2-.1-.2 0-.4.2-.5 1.5-.8 3.1-1.2 4.7-1.2 1.7 0 3.4.4 5.2 1.2.2.1.3.3.2.5-.1.2-.3.3-.5.2-1.7-.8-3.4-1.1-4.9-1.1-1.6 0-3 .4-4.4 1.1z" fill="#231F20"/><path fill-rule="evenodd" clip-rule="evenodd" d="M26.1 34.9c-.3.1-.9.1-1.4 1.1-1.4 3.3-2.2 5.3-3.6 8.5-1 2.3-1.6 3.3.8 4.6.3.2.7.4 1 .6.9.5 2.3 1 3.2 1 1.1-6.2 1.3-9.5 0-15.8z" fill="#F7A686"/><path fill-rule="evenodd" clip-rule="evenodd" d="M26.1 34.9c.3.1.9.1 1.4 1.1 1.4 3.3 2.2 5.3 3.6 8.5 1 2.3 1.6 3.3-.8 4.6-.3.2-.7.4-1 .6-.9.5-2.3 1-3.2 1V34.9z" fill="#EB9E80"/><path fill-rule="evenodd" clip-rule="evenodd" d="M29.4 56.2c.5 4.5-6.4 4.9-5.7-.1.8-.3 1.7-.4 2.6-.4 1.1 0 2.1.2 3.1.5z" fill="#D5B2A1"/><path fill-rule="evenodd" clip-rule="evenodd" d="M21 0c2.7 0 4.9 2.2 4.9 4.9S23.7 9.8 21 9.8s-4.9-2.2-4.9-4.9C16.2 2.2 18.3 0 21 0z" fill="#333"/><path fill-rule="evenodd" clip-rule="evenodd" d="M4.4 25C5.5 14 14.8 5.4 26.1 5.4 37.4 5.4 46.7 14 47.8 25H4.4z" fill="#000"/><path fill-rule="evenodd" clip-rule="evenodd" d="M5.3 17.4h41.5c.5 0 .9.4 1 1l.7 11.1c0 .5-.4 1-1 1h-43c-.5 0-1-.4-1-1l.7-11.1c.2-.5.6-1 1.1-1z" fill="#333"/><path fill-rule="evenodd" clip-rule="evenodd" d="M30.7 35.3c-.5 4.5 2.7 8 6.4 7.9 4-.1 5.7-4 4.9-7.9H30.7z" fill="#D5B2A1"/><path fill-rule="evenodd" clip-rule="evenodd" d="M31.5 35.3c-.1 2.3 1.7 4.7 4.8 4.7 3 0 4.9-2.4 4.8-4.7h-9.6z" fill="#fff"/><path d="M31.5 33c.3.8.6 1.2 3.1 1.3 2.5.1 4.8-.5 7.3-.4.3-2.1-7.3-.9-10.4-.9z" fill="#231F20"/><path fill-rule="evenodd" clip-rule="evenodd" d="M38.6 35.3h-4.2c0 1.2.9 2.1 2.1 2.1 1.2 0 2.1-.9 2.1-2.1z" fill="#000"/><path fill-rule="evenodd" clip-rule="evenodd" d="M21.5 35.3c.5 4.5-2.7 8-6.4 7.9-4-.1-5.7-4-4.9-7.9h11.3z" fill="#D5B2A1"/><path fill-rule="evenodd" clip-rule="evenodd" d="M20.7 35.3c.1 2.3-1.7 4.7-4.8 4.7-3 0-4.9-2.4-4.8-4.7h9.6z" fill="#fff"/><path d="M20.7 33c-.3.8-.6 1.2-3.1 1.3-2.5.1-4.8-.5-7.3-.4-.3-2.1 7.3-.9 10.4-.9z" fill="#231F20"/><path fill-rule="evenodd" clip-rule="evenodd" d="M17.8 35.3h-4.2c0 1.2.9 2.1 2.1 2.1 1.1 0 2.1-.9 2.1-2.1z" fill="#000"/></svg>