<svg width="53" height="56" viewBox="0 0 53 56" fill="none" xmlns="http://www.w3.org/2000/svg"><path d="M14 20H0v36h14V20z" fill="#4B6DAA"/><path d="M7 51a4 4 0 1 0 0-8 4 4 0 0 0 0 8z" fill="#D8A852"/><path d="M52 26a4 4 0 0 0-4-4H32.398l.988-4.619c.754-3.524.552-7.819.104-10.836C33.042 3.528 30.34 0 27.513 0h-.239C24.864 0 24 2.659 24 6c0 16.25-8 16-8 16h-2v32h29a4 4 0 0 0 0-8h3a4 4 0 0 0 0-8h3a4 4 0 0 0 4-4c0-2.493-1.613-3.442-4-3.796-1.163-.173-3.276-.204-4-.204h3a4 4 0 0 0 4-4z" fill="#FBCE9D"/><path d="M50.62 29H38a1 1 0 1 0 0 2h13.456c-.657-.403-1.488-.653-2.456-.796-1.163-.173-3.276-.204-4-.204h3a3.963 3.963 0 0 0 2.62-1zm1 8H38a1 1 0 1 0 0 2h10.621A3.966 3.966 0 0 0 46 38h3a3.963 3.963 0 0 0 2.62-1zm-3 8H36a1 1 0 1 0 0 2h9.621A3.966 3.966 0 0 0 43 46h3a3.963 3.963 0 0 0 2.62-1z" fill="#F7B563"/></svg>