<svg width="280" height="44" viewBox="0 0 280 44" fill="none" xmlns="http://www.w3.org/2000/svg"><mask id="a" maskUnits="userSpaceOnUse" x="0" y="0" width="281" height="45"><path d="M23.055.021c-2.096.057-4.135-.113-6.231.057-1.36.057-2.38 1.193-2.776 2.443-3.682 10.394-7.307 20.789-10.99 31.184L0 42.168l5.551-.17c1.416-.057 2.436-1.25 2.833-2.556.623-1.818 1.19-3.636 1.812-5.453h-.056.056c.737-2.33 1.53-4.601 2.266-6.93h13.255c.737 2.329 1.53 4.714 2.266 7.043h7.42c-4.134-11.36-8.27-22.72-12.348-34.08zm-8.724 21.3c1.587-4.827 3.172-9.655 4.759-14.427 1.586 4.828 3.172 9.656 4.758 14.428H14.33zM280 42.452c-2.889-4.487-10.989-16.984-13.821-21.357 3.568-5.567 7.08-11.19 10.649-16.757-2.096 0-4.192-.057-6.288.057-1.076 0-1.982.682-2.492 1.647-1.983 3.408-3.908 6.76-5.891 10.168a558.214 558.214 0 0 1-4.532-7.896h-7.647c2.719 4.26 5.438 8.52 8.1 12.78-2.889 4.488-5.721 9.032-8.61 13.576 2.606-.056 5.268.057 7.874-.056 1.869-2.613 3.285-5.567 4.985-8.294 3.172 5.397 6.401 10.793 9.573 16.246h8.1v-.114zM199.393 7.973h-8.27c-2.833 3.238-5.608 6.476-8.384 9.714V3.543c.057-1.59-1.246-3.067-2.775-3.238-1.36-.113-2.776-.057-4.136-.057V34.33h6.911c.057-3.465-.113-6.987.113-10.509.737-1.193 2.21-.738 2.776.341 2.039 3.294 3.739 6.76 5.608 10.11h8.27a2434.257 2434.257 0 0 1-9.46-16.245c3.059-3.294 6.231-6.645 9.347-10.054zm7.987 3.352c0-2.613.057-5.17 0-7.782.057-1.59-1.189-3.124-2.719-3.351-1.303-.17-2.662-.057-3.965-.057 0 7.895-.057 15.79 0 23.686.057 3.238 1.133 6.93 4.135 8.634 4.475 2.727 10.31 3.238 15.068.966 3.059-1.534 4.588-4.999 5.211-8.18.907-5.169.227-11.19-3.568-15.109-3.796-4.033-11.216-3.579-14.162 1.193zm9.63 15.904c-1.926 2.556-6.401 2.556-8.214-.113-1.472-2.216-1.529-4.999-1.359-7.555.17-2.442 1.303-5.226 3.852-5.964 1.756-.511 3.908-.284 5.211 1.08 1.643 1.59 2.096 4.032 2.096 6.247 0 2.216-.226 4.544-1.586 6.305zM47.526 7.52c-3.569-.399-7.477.34-10.083 2.953-2.889 2.84-3.739 7.1-3.625 10.963.056 3.748.963 7.725 3.795 10.394 3.399 3.352 8.78 3.636 13.085 2.215 3.512-1.192 6.061-4.26 6.968-7.838-1.87 0-3.74-.114-5.608.057-1.53.113-2.096 1.817-3.4 2.329-2.038.852-4.814.738-6.343-1.08-1.133-1.25-1.36-3.01-1.53-4.6h17.22c.17-3.693-.17-7.612-2.209-10.736-1.756-2.84-4.985-4.43-8.27-4.658zm-6.74 10.905c.226-1.193.396-2.5 1.189-3.465 1.586-2.102 4.871-2.386 6.967-1.022 1.473.965 1.813 2.84 2.04 4.487a305.07 305.07 0 0 1-10.197 0zm55.002-8.293c-3.059-2.783-7.534-3.18-11.443-2.442-3.625.738-6.684 3.578-7.76 7.043-1.416 4.544-1.246 9.656.566 14.087 1.756 3.92 6.118 5.85 10.197 5.964 3.172.057 6.514-.795 8.836-3.124 2.776-2.783 3.682-6.873 3.682-10.736 0-3.862-1.133-8.066-4.078-10.792zm-2.662 11.247c-.114 2.385-.454 5.055-2.38 6.702-2.209 2.102-6.4 1.08-7.42-1.76-.963-2.443-1.076-5.17-.85-7.782.283-2.102 1.303-4.488 3.569-5.056 1.756-.681 3.965-.284 5.211 1.25 1.643 1.76 1.926 4.374 1.87 6.646zM116.577 7.69c-4.192-.853-8.667.17-12.179 2.612-2.662 1.989-3.455 5.567-3.455 8.748v24.936c1.246 0 2.492.057 3.738-.057 1.643-.114 3.059-1.704 3.003-3.351 0-3.238.056-6.476 0-9.657 2.719 4.601 9.573 5.056 13.481 1.818 2.776-2.272 4.136-5.907 4.475-9.429.397-4.09-.113-8.463-2.549-11.872-1.529-2.101-4.078-3.18-6.514-3.748zm.51 19.653c-1.926 2.386-6.061 2.158-7.874-.284-1.643-2.102-1.699-4.942-1.529-7.441.113-2.272.963-4.885 3.172-5.907 2.039-.91 4.815-.569 6.231 1.25 1.359 1.646 1.699 3.918 1.756 5.963.113 2.272-.283 4.658-1.756 6.419zm26.17-19.199c-3.455-.909-7.194-1.08-10.593-.057-2.945.909-5.211 3.579-5.664 6.646h6.571c1.303-2.102 4.078-2.159 6.231-1.647.963.17 2.152.624 2.266 1.76.283 1.364-1.077 2.159-2.21 2.443-2.889.852-6.061.682-8.836 1.988-1.983.795-3.852 2.272-4.362 4.43-.623 2.67-.51 5.851 1.246 8.123 1.869 2.159 4.815 3.068 7.591 3.01 2.662-.056 5.494-.17 7.93-1.42 2.946-1.363 4.928-4.487 5.098-7.724.227-3.806.114-7.555.057-11.36 0-3.011-2.493-5.454-5.325-6.192zm-2.039 19.029c-1.36 2.101-4.249 2.783-6.571 2.158-2.549-.795-2.492-4.999-.057-5.907 2.436-.966 5.155-1.136 7.591-2.273-.057 1.989.226 4.26-.963 6.021zm27.53-.796c-1.417.568-2.153 2.216-3.739 2.5-2.606.908-5.835-.341-6.741-3.068-1.02-3.294-1.076-7.1.397-10.28 1.812-3.466 7.477-3.068 9.006.51h6.854c-.736-2.158-1.699-4.373-3.512-5.907-2.662-2.329-6.401-2.954-9.856-2.613-2.946.227-5.778 1.647-7.534 3.976-2.379 3.068-2.889 7.1-2.719 10.906.113 3.579 1.246 7.27 3.965 9.713 3.342 3.068 8.384 3.352 12.576 2.102 3.625-1.136 6.344-4.26 7.307-7.952-2.039 0-4.022-.17-6.004.113z" fill="#fff"/><path d="M246.749 9.962c-3.059-2.613-7.421-2.954-11.216-2.216-3.682.739-6.741 3.636-7.817 7.214-1.416 4.544-1.246 9.6.623 13.973 1.756 3.92 6.174 5.85 10.253 5.965 3.172 0 6.514-.796 8.78-3.181 2.776-2.784 3.682-6.873 3.625-10.68 0-4.089-1.189-8.349-4.248-11.075zm-2.493 11.474c-.113 2.385-.453 5.055-2.379 6.702-2.152 2.102-6.287 1.136-7.42-1.647-.963-2.329-1.077-4.942-.907-7.384.227-2.272 1.247-4.942 3.682-5.567 1.756-.682 3.965-.227 5.155 1.25 1.643 1.76 1.926 4.317 1.869 6.646zm-183.532-.909c-.056 4.6 0 9.258 0 13.86h6.91v-13.35c0-1.76.284-3.748 1.757-4.884 1.756-1.363 4.135-1.022 6.174-1.08v-7.1c-3.625 0-7.534.512-10.48 2.84-2.945 2.216-4.248 6.078-4.36 9.714z" fill="#fff"/></mask><g mask="url(#a)" fill="#fff"><path d="M23.055.021c-2.096.057-4.135-.113-6.231.057-1.36.057-2.38 1.193-2.776 2.443-3.682 10.394-7.307 20.789-10.99 31.184L0 42.168l5.551-.17c1.416-.057 2.436-1.25 2.833-2.556.623-1.818 1.19-3.636 1.812-5.453h-.056.056c.737-2.33 1.53-4.601 2.266-6.93h13.255c.737 2.329 1.53 4.714 2.266 7.043h7.42c-4.134-11.36-8.27-22.72-12.348-34.08zm-8.724 21.3c1.587-4.827 3.172-9.655 4.759-14.427 1.586 4.828 3.172 9.656 4.758 14.428H14.33zM280 42.452c-2.889-4.487-10.989-16.984-13.821-21.357 3.568-5.567 7.08-11.19 10.649-16.757-2.096 0-4.192-.057-6.288.057-1.076 0-1.982.682-2.492 1.647-1.983 3.408-3.908 6.76-5.891 10.168a558.214 558.214 0 0 1-4.532-7.896h-7.647c2.719 4.26 5.438 8.52 8.1 12.78-2.889 4.488-5.721 9.032-8.61 13.576 2.606-.056 5.268.057 7.874-.056 1.869-2.613 3.285-5.567 4.985-8.294 3.172 5.397 6.401 10.793 9.573 16.246h8.1v-.114zM199.393 7.973h-8.27c-2.833 3.238-5.608 6.476-8.384 9.714V3.543c.057-1.59-1.246-3.067-2.775-3.238-1.36-.113-2.776-.057-4.136-.057V34.33h6.911c.057-3.465-.113-6.987.113-10.509.737-1.193 2.21-.738 2.776.341 2.039 3.294 3.739 6.76 5.608 10.11h8.27a2434.257 2434.257 0 0 1-9.46-16.245c3.059-3.294 6.231-6.645 9.347-10.054zm7.987 3.352c0-2.613.057-5.17 0-7.782.057-1.59-1.189-3.124-2.719-3.351-1.303-.17-2.662-.057-3.965-.057 0 7.895-.057 15.79 0 23.686.057 3.238 1.133 6.93 4.135 8.634 4.475 2.727 10.31 3.238 15.068.966 3.059-1.534 4.588-4.999 5.211-8.18.907-5.169.227-11.19-3.568-15.109-3.796-4.033-11.216-3.579-14.162 1.193zm9.63 15.904c-1.926 2.556-6.401 2.556-8.214-.113-1.472-2.216-1.529-4.999-1.359-7.555.17-2.442 1.303-5.226 3.852-5.964 1.756-.511 3.908-.284 5.211 1.08 1.643 1.59 2.096 4.032 2.096 6.247 0 2.216-.226 4.544-1.586 6.305zM47.526 7.52c-3.569-.399-7.477.34-10.083 2.953-2.889 2.84-3.739 7.1-3.625 10.963.056 3.748.963 7.725 3.795 10.394 3.399 3.352 8.78 3.636 13.085 2.215 3.512-1.192 6.061-4.26 6.968-7.838-1.87 0-3.74-.114-5.608.057-1.53.113-2.096 1.817-3.4 2.329-2.038.852-4.814.738-6.343-1.08-1.133-1.25-1.36-3.01-1.53-4.6h17.22c.17-3.693-.17-7.612-2.209-10.736-1.756-2.84-4.985-4.43-8.27-4.658zm-6.74 10.905c.226-1.193.396-2.5 1.189-3.465 1.586-2.102 4.871-2.386 6.967-1.022 1.473.965 1.813 2.84 2.04 4.487a305.07 305.07 0 0 1-10.197 0zm55.002-8.293c-3.059-2.783-7.534-3.18-11.443-2.442-3.625.738-6.684 3.578-7.76 7.043-1.416 4.544-1.246 9.656.566 14.087 1.756 3.92 6.118 5.85 10.197 5.964 3.172.057 6.514-.795 8.836-3.124 2.776-2.783 3.682-6.873 3.682-10.736 0-3.862-1.133-8.066-4.078-10.792zm-2.662 11.247c-.114 2.385-.454 5.055-2.38 6.702-2.209 2.102-6.4 1.08-7.42-1.76-.963-2.443-1.076-5.17-.85-7.782.283-2.102 1.303-4.488 3.569-5.056 1.756-.681 3.965-.284 5.211 1.25 1.643 1.76 1.926 4.374 1.87 6.646zM116.577 7.69c-4.192-.853-8.667.17-12.179 2.612-2.662 1.989-3.455 5.567-3.455 8.748v24.936c1.246 0 2.492.057 3.738-.057 1.643-.114 3.059-1.704 3.003-3.351 0-3.238.056-6.476 0-9.657 2.719 4.601 9.573 5.056 13.481 1.818 2.776-2.272 4.136-5.907 4.475-9.429.397-4.09-.113-8.463-2.549-11.872-1.529-2.101-4.078-3.18-6.514-3.748zm.51 19.653c-1.926 2.386-6.061 2.158-7.874-.284-1.643-2.102-1.699-4.942-1.529-7.441.113-2.272.963-4.885 3.172-5.907 2.039-.91 4.815-.569 6.231 1.25 1.359 1.646 1.699 3.918 1.756 5.963.113 2.272-.283 4.658-1.756 6.419zm26.17-19.199c-3.455-.909-7.194-1.08-10.593-.057-2.945.909-5.211 3.579-5.664 6.646h6.571c1.303-2.102 4.078-2.159 6.231-1.647.963.17 2.152.624 2.266 1.76.283 1.364-1.077 2.159-2.21 2.443-2.889.852-6.061.682-8.836 1.988-1.983.795-3.852 2.272-4.362 4.43-.623 2.67-.51 5.851 1.246 8.123 1.869 2.159 4.815 3.068 7.591 3.01 2.662-.056 5.494-.17 7.93-1.42 2.946-1.363 4.928-4.487 5.098-7.724.227-3.806.114-7.555.057-11.36 0-3.011-2.493-5.454-5.325-6.192zm-2.039 19.029c-1.36 2.101-4.249 2.783-6.571 2.158-2.549-.795-2.492-4.999-.057-5.907 2.436-.966 5.155-1.136 7.591-2.273-.057 1.989.226 4.26-.963 6.021zm27.53-.796c-1.417.568-2.153 2.216-3.739 2.5-2.606.908-5.835-.341-6.741-3.068-1.02-3.294-1.076-7.1.397-10.28 1.812-3.466 7.477-3.068 9.006.51h6.854c-.736-2.158-1.699-4.373-3.512-5.907-2.662-2.329-6.401-2.954-9.856-2.613-2.946.227-5.778 1.647-7.534 3.976-2.379 3.068-2.889 7.1-2.719 10.906.113 3.579 1.246 7.27 3.965 9.713 3.342 3.068 8.384 3.352 12.576 2.102 3.625-1.136 6.344-4.26 7.307-7.952-2.039 0-4.022-.17-6.004.113z"/><path d="M246.749 9.962c-3.059-2.613-7.421-2.954-11.216-2.216-3.682.739-6.741 3.636-7.817 7.214-1.416 4.544-1.246 9.6.623 13.973 1.756 3.92 6.174 5.85 10.253 5.965 3.172 0 6.514-.796 8.78-3.181 2.776-2.784 3.682-6.873 3.625-10.68 0-4.089-1.189-8.349-4.248-11.075zm-2.493 11.474c-.113 2.385-.453 5.055-2.379 6.702-2.152 2.102-6.287 1.136-7.42-1.647-.963-2.329-1.077-4.942-.907-7.384.227-2.272 1.247-4.942 3.682-5.567 1.756-.682 3.965-.227 5.155 1.25 1.643 1.76 1.926 4.317 1.869 6.646zm-183.532-.909c-.056 4.6 0 9.258 0 13.86h6.91v-13.35c0-1.76.284-3.748 1.757-4.884 1.756-1.363 4.135-1.022 6.174-1.08v-7.1c-3.625 0-7.534.512-10.48 2.84-2.945 2.216-4.248 6.078-4.36 9.714z"/></g></svg>