<svg width="10" height="15" viewBox="0 0 10 15" fill="none" xmlns="http://www.w3.org/2000/svg"><path d="M4.18 10.565c-1.29-.12-2.455-.407-3.451-1.11-.124-.087-.252-.17-.365-.268-.436-.378-.48-.81-.135-1.255.296-.381.791-.483 1.307-.265.1.043.194.096.285.153C3.68 8.97 6.231 9 8.095 7.87c.184-.127.382-.231.61-.284.446-.103.86.044 1.1.395.272.4.269.79-.067 1.102-.516.476-1.136.821-1.825 1.062-.652.227-1.365.342-2.071.418.106.104.157.156.223.216.96.868 1.922 1.732 2.878 2.603.326.296.394.664.214 1.009a1.154 1.154 0 0 1-1.065.599c-.272-.018-.485-.14-.674-.311-.724-.656-1.46-1.3-2.17-1.968-.206-.194-.305-.158-.487.011-.728.675-1.468 1.34-2.213 2-.334.297-.731.35-1.119.181-.412-.18-.674-.558-.654-.939.014-.257.155-.454.35-.63.95-.854 1.896-1.71 2.843-2.565.063-.056.121-.117.212-.205z" fill="#fff"/><path d="M4.967 7.592C2.664 7.585.775 5.866.788 3.788.802 1.688 2.691-.006 5.018 0c2.33.006 4.2 1.723 4.189 3.845C9.195 5.92 7.293 7.6 4.967 7.592zm2.093-3.8C7.056 2.763 6.144 1.94 5 1.94c-1.152-.001-2.073.835-2.064 1.876.009 1.028.929 1.843 2.075 1.84 1.143-.004 2.053-.83 2.049-1.862z" fill="#fff"/></svg>