<svg width="56" height="53" viewBox="0 0 56 53" fill="none" xmlns="http://www.w3.org/2000/svg"><path d="M55.31 21.997l-5.75 3.325-22.828 13.203L13.285 46.3a1.377 1.377 0 0 1-1.882-.503l-4.2-7.273-7.017-12.15a1.37 1.37 0 0 1-.137-1.053c.092-.338.313-.641.64-.83L42.714.184a1.377 1.377 0 0 1 1.883.504L55.815 20.11a1.38 1.38 0 0 1-.504 1.886z" fill="#FFA81E"/><path d="M49.56 25.322L26.732 38.525H7.202L.186 26.375a1.37 1.37 0 0 1-.137-1.053H49.56z" fill="#F90"/><path d="M55.31 21.997l-5.75 3.325-22.828 13.203-1.322.764-.441-.764-7.626-13.203-4.53-7.844L42.715.185a1.377 1.377 0 0 1 1.883.504L55.815 20.11a1.38 1.38 0 0 1-.504 1.886z" fill="#DCEFF9"/><path d="M49.56 25.322L26.732 38.525h-1.763l-7.626-13.203H49.56z" fill="#C5E2EF"/><path d="M20.123 22.26a.847.847 0 0 1-.423-1.58l4.72-2.73a.847.847 0 0 1 .845 1.466l-4.72 2.73a.842.842 0 0 1-.422.113z" fill="#FFA81E"/><path d="M27.079 34.303a.847.847 0 0 1-.423-1.58l15.29-8.843a.847.847 0 0 1 .845 1.466L27.5 34.189a.838.838 0 0 1-.422.114z" fill="#57555C"/><path d="M21.281 24.265a.847.847 0 0 1-.423-1.58l19.508-11.283a.847.847 0 0 1 .845 1.466L21.703 24.151a.84.84 0 0 1-.422.114z" fill="#FFA81E"/><path d="M23.336 27.823a.847.847 0 0 1-.423-1.58l19.508-11.282a.844.844 0 0 1 1.154.31.848.848 0 0 1-.309 1.156L23.758 27.71a.84.84 0 0 1-.422.113zm21.644-3.085a.844.844 0 0 1-.732-.422l-1.497-2.591a.847.847 0 0 1 .309-1.157.844.844 0 0 1 1.154.309l1.497 2.59a.847.847 0 0 1-.731 1.271zm1.78-1.029a.844.844 0 0 1-.732-.423l-1.496-2.59a.847.847 0 0 1 .308-1.158.844.844 0 0 1 1.154.31l1.496 2.59a.847.847 0 0 1-.73 1.27zm1.78-1.029a.844.844 0 0 1-.732-.424l-1.496-2.59a.847.847 0 0 1 .308-1.157.844.844 0 0 1 1.154.309l1.496 2.59a.847.847 0 0 1-.73 1.271zm1.78-1.03a.844.844 0 0 1-.732-.423l-1.496-2.59a.847.847 0 0 1 .308-1.157.844.844 0 0 1 1.154.308l1.496 2.591a.847.847 0 0 1-.73 1.27zm1.78-1.03a.844.844 0 0 1-.732-.422l-1.497-2.591a.847.847 0 0 1 .308-1.157.844.844 0 0 1 1.155.309l1.496 2.59a.847.847 0 0 1-.73 1.271z" fill="#57555C"/><path d="M13.334 26.27l-3.169-.042-.768-1.33a.844.844 0 0 0-1.155-.31.847.847 0 0 0-.308 1.157l.768 1.33-1.546 2.767a.848.848 0 0 0 .737 1.26.845.845 0 0 0 .738-.433l1.055-1.889.62 1.074a.844.844 0 0 0 1.155.309.847.847 0 0 0 .308-1.157l-.619-1.072 2.162.028h.011a.846.846 0 0 0 .01-1.693z" fill="#DCEFF9"/><path d="M37.85 7.646l.17-.098a.847.847 0 0 0-.845-1.466l-1.803 1.043a.847.847 0 0 0 .844 1.466l.17-.098.66 1.14a.844.844 0 0 0 1.154.309.847.847 0 0 0 .308-1.157l-.657-1.139zm2.032-2.145a.844.844 0 0 0-1.154-.309.847.847 0 0 0-.308 1.157l1.035 1.793a.844.844 0 0 0 1.155.309.847.847 0 0 0 .308-1.157l-1.036-1.793zm3.846-.57l-.541-.145.144-.541a.845.845 0 1 0-1.633-.438l-.144.542-.543-.145a.845.845 0 0 0-.437 1.636l.542.145-.144.541a.847.847 0 0 0 .816 1.066c.374 0 .715-.25.816-.627l.145-.543.543.145a.846.846 0 0 0 .436-1.636z" fill="#FFA81E"/><path d="M51.215 53H2.778a1.43 1.43 0 0 1-1.43-1.432V29.24c0-.791.64-1.433 1.43-1.433h48.437c.79 0 1.43.642 1.43 1.433v22.327c0 .79-.64 1.432-1.43 1.432z" fill="#49BAEC"/><path d="M51.215 53H16.731V27.808h34.484c.79 0 1.43.642 1.43 1.433v22.327c0 .79-.64 1.432-1.43 1.432zm-38.43-17.32l-2.723-1.623v-1.535a.846.846 0 1 0-1.69 0v1.535L5.65 35.68a.848.848 0 0 0-.294 1.16.844.844 0 0 0 1.158.295l1.858-1.107v.883l-.985.97a.848.848 0 0 0-.011 1.197.844.844 0 0 0 1.195.011l.646-.636.647.636a.842.842 0 0 0 1.195-.01.848.848 0 0 0-.01-1.198l-.987-.97v-.883l1.859 1.107a.845.845 0 0 0 1.158-.295.848.848 0 0 0-.294-1.16zm-3.021 6.177a.844.844 0 0 0-1.194 0L6.147 44.28a.848.848 0 0 0 .598 1.446.841.841 0 0 0 .597-.248l1.825-1.826 1.758 1.76c.33.33.865.33 1.195 0a.848.848 0 0 0 0-1.198l-2.356-2.357zm.846 4.165H7.656a.846.846 0 0 0 0 1.694h2.954a.846.846 0 0 0 0-1.694zm0 1.916H7.656a.846.846 0 0 0 0 1.693h2.954a.846.846 0 0 0 0-1.693z" fill="#DCEFF9"/><path d="M21.092 35.72h5.45a.846.846 0 0 0 0-1.693h-5.45a.846.846 0 0 0 0 1.694z" fill="#49BAEC"/><path d="M38.752 47.938h-17.66a.846.846 0 0 0 0 1.693h17.66a.846.846 0 0 0 0-1.693z" fill="#57555C"/><path d="M43.623 36.344H21.092a.846.846 0 0 0 0 1.693h22.531a.846.846 0 0 0 0-1.693z" fill="#49BAEC"/><path d="M43.623 40.454H21.092a.846.846 0 0 0 0 1.693h22.531a.846.846 0 0 0 0-1.693zm-2.25 5.174a.846.846 0 0 0-.845.847v2.992a.846.846 0 1 0 1.69 0v-2.992a.846.846 0 0 0-.845-.847zm2.056 0a.846.846 0 0 0-.845.847v2.992a.846.846 0 1 0 1.69 0v-2.992a.846.846 0 0 0-.845-.847zm2.056 0a.846.846 0 0 0-.845.847v2.992a.846.846 0 1 0 1.69 0v-2.992a.846.846 0 0 0-.845-.847zm2.055 0a.846.846 0 0 0-.844.847v2.992a.846.846 0 1 0 1.69 0v-2.992a.846.846 0 0 0-.845-.847zm2.057 0a.846.846 0 0 0-.845.847v2.992a.846.846 0 1 0 1.69 0v-2.992a.846.846 0 0 0-.845-.847z" fill="#57555C"/><path d="M41.438 31.833h.196v1.315a.846.846 0 1 0 1.69 0v-1.315h.196a.846.846 0 0 0 0-1.693h-2.082a.846.846 0 0 0 0 1.693zm3.873 2.078a.846.846 0 0 0 .845-.846v-2.071a.846.846 0 1 0-1.69 0v2.07c0 .468.378.847.845.847zm4.46-.288a.848.848 0 0 0 0-1.198l-.397-.396.396-.396a.848.848 0 0 0 .001-1.197.844.844 0 0 0-1.195-.001l-.397.398-.398-.398a.844.844 0 0 0-1.195 0 .848.848 0 0 0 .001 1.198l.396.396-.396.396a.848.848 0 0 0 .597 1.446.842.842 0 0 0 .597-.248l.398-.397.397.398a.842.842 0 0 0 1.195-.001z" fill="#49BAEC"/></svg>