<svg width="53" height="62" viewBox="0 0 53 62" fill="none" xmlns="http://www.w3.org/2000/svg"><path d="M2.364 45.172a1.821 1.821 0 1 0 0-3.643 1.821 1.821 0 0 0 0 3.643z" fill="#FF4B4E"/><path d="M10.796 24.054a1.821 1.821 0 1 0 0-3.642 1.821 1.821 0 0 0 0 3.642z" fill="#FFCA54"/><path d="M35.769 19.668a1.821 1.821 0 1 0 0-3.642 1.821 1.821 0 0 0 0 3.642z" fill="#00CDB3"/><path d="M51.178 45.172a1.821 1.821 0 1 0 .001-3.643 1.821 1.821 0 0 0 0 3.643zM18.01 10.455a1.821 1.821 0 1 0 .002-3.642 1.821 1.821 0 0 0-.001 3.642z" fill="#57BAE5"/><path d="M49.263 30.775c-.902-.13-14.594-2.12-15.436-2.242l-6.903-13.98c-.633-1.283-2.47-1.284-3.103 0l-6.903 13.98L1.48 30.775a1.73 1.73 0 0 0-.958 2.95l11.17 10.882-2.638 15.367c-.241 1.41 1.243 2.49 2.51 1.823l13.807-7.255c15.022 7.893 14.009 7.454 14.612 7.454a1.73 1.73 0 0 0 1.705-2.022l-2.637-15.367 11.17-10.882c1.025-.998.458-2.744-.959-2.95z" fill="#FFCA54"/><path d="M8.723 17.164c-1.046-.2-2.86-1.508-2.243-5.027.225-1.285-.053-1.39-1.565-1.733-1.478-.335-3.71-.842-3.871-3.966a.993.993 0 0 1 1.983-.102c.08 1.554.812 1.788 2.328 2.132 1.361.31 3.64.826 3.08 4.012-.424 2.415.65 2.732.66 2.734a.993.993 0 1 1-.372 1.95z" fill="#F99830"/><path d="M2.967 20.957a1.289 1.289 0 1 0 0-2.578 1.289 1.289 0 0 0 0 2.578z" fill="#57BAE5"/><path d="M45.582 47.215a1.289 1.289 0 1 0 0-2.578 1.289 1.289 0 0 0 0 2.578z" fill="#00CDB3"/><path d="M4.115 55.223a1.289 1.289 0 1 0 0-2.578 1.289 1.289 0 0 0 0 2.578z" fill="#FFCA54"/><path d="M42.01 18.005a.992.992 0 0 1-.02-1.404l1.38-1.418a.993.993 0 0 1 1.423 1.384l-1.38 1.418a.994.994 0 0 1-1.403.02zm-26.84-.545l-1.835-.742a.992.992 0 1 1 .744-1.84l1.835.741a.992.992 0 1 1-.745 1.84z" fill="#FF4B4E"/><path d="M6.107 50.045l-1.835-.742a.992.992 0 1 1 .745-1.84l1.834.742a.992.992 0 1 1-.744 1.84z" fill="#00CDB3"/><path d="M47.977 53.434l-1.835-.741a.992.992 0 1 1 .745-1.84l1.834.741a.993.993 0 1 1-.744 1.84z" fill="#57BAE5"/><path d="M36.187.82a.993.993 0 0 0-1.956.345c.271 1.532-.39 1.925-1.79 2.6-1.257.606-3.361 1.62-2.102 4.6.958 2.266-.03 2.813-.03 2.813-.278.184-1.157.51-.781 1.403.648 1.544 4.668-.191 2.64-4.988-.508-1.202-.261-1.367 1.136-2.04C34.669 4.894 36.73 3.9 36.187.82zm15.125 14.46a.993.993 0 0 0-1.382.246c-.726 1.041-.867 2.28-.992 3.373-.214 1.884-.294 2.59-2.264 2.463-2.17-.139-3.79.326-4.818 1.38-1.267 1.299-1.222 3.09-.028 3.11.993.016 1.06-1.041 1.06-1.041s.205-1.687 3.66-1.468c5.438.346 3.7-4.802 5.01-6.681a.991.991 0 0 0-.246-1.382zM21.303 26.538l5.77-11.685-.15-.301c-.632-1.282-2.468-1.284-3.102 0l-6.903 13.981 2.337-.415c.164-.03 1.418-.305 2.048-1.58zm-8.521 32.775l2.348-13.685c.276-1.612-.705-2.65-.708-2.654L4.249 33.063a1.729 1.729 0 0 1 .354-2.741l-3.122.453a1.73 1.73 0 0 0-.958 2.95l11.17 10.882-2.638 15.367c-.241 1.41 1.243 2.489 2.51 1.823l1.752-.92a1.727 1.727 0 0 1-.535-1.564z" fill="#F99830"/></svg>