<svg width="64" height="49" viewBox="0 0 64 49" fill="none" xmlns="http://www.w3.org/2000/svg"><path d="M60 9H4v39h56V9z" fill="#FFE1B2"/><path d="M60 42H4v6h56v-6zm0-35H4v7h56V7z" fill="#FFB980"/><path d="M24 16H10a1 1 0 0 0-1 1v30h16V17a1 1 0 0 0-1-1z" fill="#7E5C62"/><path d="M63 49H1a1 1 0 1 1 0-2h62a1 1 0 1 1 0 2zM22 35a1 1 0 0 1-1-1v-2a1 1 0 1 1 2 0v2a1 1 0 0 1-1 1z" fill="#5C546A"/><path d="M5 12a3 3 0 0 1-3-3V2a2 2 0 0 1 2-2h4v9a3 3 0 0 1-3 3z" fill="#FF4F19"/><path d="M11 12a3 3 0 0 1-3-3V0h6v9a3 3 0 0 1-3 3z" fill="#E9001E"/><path d="M17 12a3 3 0 0 1-3-3V0h6v9a3 3 0 0 1-3 3z" fill="#FF4F19"/><path d="M23 12a3 3 0 0 1-3-3V0h6v9a3 3 0 0 1-3 3z" fill="#E9001E"/><path d="M29 12a3 3 0 0 1-3-3V0h6v9a3 3 0 0 1-3 3z" fill="#FF4F19"/><path d="M35 12a3 3 0 0 1-3-3V0h6v9a3 3 0 0 1-3 3z" fill="#E9001E"/><path d="M41 12a3 3 0 0 1-3-3V0h6v9a3 3 0 0 1-3 3z" fill="#FF4F19"/><path d="M47 12a3 3 0 0 1-3-3V0h6v9a3 3 0 0 1-3 3z" fill="#E9001E"/><path d="M53 12a3 3 0 0 1-3-3V0h6v9a3 3 0 0 1-3 3z" fill="#FF4F19"/><path d="M59 12a3 3 0 0 1-3-3V0h4a2 2 0 0 1 2 2v7a3 3 0 0 1-3 3z" fill="#E9001E"/><path d="M55 17H30a1 1 0 0 0-1 1v20a1 1 0 0 0 1 1h25a1 1 0 0 0 1-1V18a1 1 0 0 0-1-1z" fill="#53DCFF"/><path d="M49.699 39H55a1 1 0 0 0 1-1v-1.184L36.184 17H29a.983.983 0 0 0-.828.473L49.699 39z" fill="#B3F4FF"/><path d="M41.757 17L56 31.243V27L46 17h-4.243z" fill="#fff"/><path d="M55 40H30c-1.102 0-2-.898-2-2V18c0-1.102.898-2 2-2h25c1.102 0 2 .898 2 2v20c0 1.102-.898 2-2 2zM30 18v20h25.002L55 18H30z" fill="#7E5C62"/><path d="M22 29H12a1 1 0 0 1-1-1v-9a1 1 0 0 1 1-1h10a1 1 0 0 1 1 1v9a1 1 0 0 1-1 1z" fill="#53DCFF"/><path d="M17.012 18H12a1 1 0 0 0-1 1v1.473L19.527 29H22a1 1 0 0 0 1-1v-4.012L17.012 18z" fill="#B3F4FF"/></svg>