<svg width="18" height="9" viewBox="0 0 18 9" fill="none" xmlns="http://www.w3.org/2000/svg"><path d="M17.904 8.128a1.036 1.036 0 0 0-.06-.103c-.313-.493-.91-1.098-1.79-1.815l-.02-.016-.008-.008-.01-.009h-.01c-.4-.334-.652-.558-.758-.673-.194-.22-.238-.44-.132-.666.075-.17.357-.528.844-1.075.256-.29.459-.523.609-.698C17.649 1.805 18.119 1 17.975.65l-.056-.082c-.038-.05-.134-.094-.29-.136a1.679 1.679 0 0 0-.6-.02l-2.7.016a.398.398 0 0 0-.187.004l-.122.025-.047.02-.037.025a.4.4 0 0 0-.103.087.552.552 0 0 0-.094.143 12.746 12.746 0 0 1-1.003 1.848c-.23.34-.443.634-.637.883a4.38 4.38 0 0 1-.487.55 3.29 3.29 0 0 1-.357.284c-.106.071-.187.101-.243.09a7.726 7.726 0 0 1-.16-.033.582.582 0 0 1-.21-.201.821.821 0 0 1-.108-.32A3.103 3.103 0 0 1 10.5 3.5a6.123 6.123 0 0 1 .005-.394c.006-.17.01-.285.01-.345 0-.208.004-.434.013-.678.01-.243.017-.437.024-.579.006-.142.009-.293.009-.452a1.67 1.67 0 0 0-.033-.373 1.172 1.172 0 0 0-.098-.263.464.464 0 0 0-.192-.197 1.174 1.174 0 0 0-.314-.111A7.087 7.087 0 0 0 8.66 0C7.498-.01 6.75.055 6.42.197c-.131.06-.25.143-.356.247-.113.12-.128.186-.047.197.375.049.64.167.796.353l.057.098c.043.072.087.198.13.378.045.181.073.38.085.6.031.4.031.742 0 1.026-.031.285-.06.507-.089.666a1.21 1.21 0 0 1-.126.386 1.582 1.582 0 0 1-.113.18.154.154 0 0 1-.047.041.79.79 0 0 1-.253.042.643.643 0 0 1-.318-.116 2.166 2.166 0 0 1-.39-.316 4.285 4.285 0 0 1-.454-.562 9.495 9.495 0 0 1-.525-.854l-.15-.239a19.621 19.621 0 0 1-.384-.669 12.167 12.167 0 0 1-.43-.85.555.555 0 0 0-.226-.263L3.533.518a.675.675 0 0 0-.15-.07 1.105 1.105 0 0 0-.215-.053L.6.412C.338.412.16.464.066.568L.028.617A.243.243 0 0 0 0 .748c0 .06.019.135.056.222A25.8 25.8 0 0 0 1.28 3.204c.44.717.823 1.295 1.148 1.733.325.438.656.851.994 1.24.337.389.56.638.67.747.11.11.195.192.257.247l.235.197c.15.131.37.289.66.472.291.184.613.364.966.542a5.68 5.68 0 0 0 1.232.435c.469.113.925.158 1.369.136h1.077c.219-.016.384-.077.497-.18l.037-.042a.51.51 0 0 0 .07-.152.738.738 0 0 0 .033-.225 2.384 2.384 0 0 1 .061-.637c.047-.189.1-.331.16-.427a1.07 1.07 0 0 1 .201-.242.8.8 0 0 1 .16-.12.663.663 0 0 1 .074-.028c.15-.044.327-.001.53.127.203.13.394.288.572.477.178.189.392.4.642.636s.468.41.656.526l.187.099c.125.065.288.126.488.18.2.055.374.069.524.041l2.4-.032c.237 0 .421-.035.552-.103.132-.069.21-.144.235-.226a.559.559 0 0 0 .004-.28.931.931 0 0 0-.066-.217z" fill="#fff"/></svg>